<svg width="108" height="108" viewBox="0 0 108 108" fill="none" xmlns="http://www.w3.org/2000/svg">
<path d="M81 13.5L88.5 13.5C91.3284 13.5 92.7426 13.5 93.6213 14.3787C94.5 15.2574 94.5 16.6716 94.5 19.5L94.5 39.5C94.5 39.9714 94.5 40.2071 94.3536 40.3536C94.2071 40.5 93.9714 40.5 93.5 40.5L67.5 40.5M81 13.5L73.5 13.5C70.6716 13.5 69.2574 13.5 68.3787 14.3787C67.5 15.2574 67.5 16.6716 67.5 19.5L67.5 40.5M81 13.5L17.5 13.5C15.6144 13.5 14.6716 13.5 14.0858 14.0858C13.5 14.6716 13.5 15.6144 13.5 17.5L13.5 94.5L27 90L40.5 94.5L54 90L67.5 94.5L67.5 40.5" stroke="#33363F" stroke-width="2"/>
<path d="M31.5 31.5L49.5 31.5" stroke="#33363F" stroke-width="2" stroke-linecap="round"/>
<path d="M36 49.5H31.5" stroke="#33363F" stroke-width="2" stroke-linecap="round"/>
<path d="M31.5 67.5L45 67.5" stroke="#33363F" stroke-width="2" stroke-linecap="round"/>
</svg>
