<svg width="31" height="51" viewBox="0 0 31 51" fill="none" xmlns="http://www.w3.org/2000/svg">
<path d="M28.4033 -0.0490872H2.5933C1.40224 -0.0490872 0.433091 0.920065 0.433091 2.11112V47.3726C0.433091 48.5637 1.40224 49.5328 2.5933 49.5328H3.71442V50.4327C3.71442 50.7737 3.99039 51.0497 4.33138 51.0497C4.67237 51.0497 4.94834 50.7737 4.94834 50.4327V49.5327H26.0484V50.4326C26.0484 50.7736 26.3244 51.0496 26.6654 51.0496C27.0064 51.0496 27.2824 50.7736 27.2824 50.4326V49.5327H28.4035C29.5945 49.5327 30.5637 48.5636 30.5637 47.3725V2.11102C30.5635 0.919959 29.5943 -0.0490872 28.4033 -0.0490872ZM2.5933 1.18473H28.4033C28.914 1.18473 29.3296 1.60035 29.3296 2.11102V27.1782H1.66701V2.11102C1.66701 1.60035 2.08263 1.18473 2.5933 1.18473ZM28.4033 48.2988H2.5933C2.08263 48.2988 1.66701 47.8832 1.66701 47.3725V28.4121H29.3297V47.3725C29.3296 47.8832 28.9139 48.2988 28.4033 48.2988Z" fill="black" stroke="black" stroke-width="0.172881"/>
<path d="M5.41905 30.3606C4.42333 30.3606 3.61375 31.1702 3.61375 32.1659V39.189C3.61375 40.1848 4.42333 40.9943 5.41905 40.9943C6.41478 40.9943 7.22436 40.1848 7.22436 39.189V32.1659C7.22436 31.1702 6.41488 30.3606 5.41905 30.3606ZM5.99053 39.189C5.99053 39.504 5.73399 39.7605 5.41905 39.7605C5.10412 39.7605 4.84758 39.504 4.84758 39.189V32.1659C4.84758 31.8509 5.10412 31.5944 5.41905 31.5944C5.73399 31.5944 5.99053 31.8509 5.99053 32.1659V39.189Z" fill="black" stroke="black" stroke-width="0.172881"/>
<path d="M5.41905 25.2286C6.41478 25.2286 7.22436 24.419 7.22436 23.4233V16.4001C7.22436 15.4044 6.41478 14.5948 5.41905 14.5948C4.42333 14.5948 3.61375 15.4044 3.61375 16.4001V23.4233C3.61375 24.4191 4.42334 25.2286 5.41905 25.2286ZM4.84758 16.4002C4.84758 16.0853 5.10412 15.8288 5.41905 15.8288C5.73399 15.8288 5.99053 16.0853 5.99053 16.4002V23.4234C5.99053 23.7383 5.73399 23.9949 5.41905 23.9949C5.10412 23.9949 4.84758 23.7383 4.84758 23.4234V16.4002Z" fill="black" stroke="black" stroke-width="0.172881"/>
<path d="M18.7371 6.78685H12.3083C11.383 6.78685 10.6304 7.53945 10.6304 8.46475V11.6051C10.6304 12.5304 11.383 13.283 12.3083 13.283H18.7371C19.6624 13.283 20.415 12.5304 20.415 11.6051V8.46475C20.415 7.53935 19.6624 6.78685 18.7371 6.78685ZM19.1812 11.605C19.1812 11.85 18.9821 12.0491 18.7371 12.0491H12.3083C12.0633 12.0491 11.8642 11.85 11.8642 11.605V8.46465C11.8642 8.21973 12.0633 8.02057 12.3083 8.02057H18.7371C18.9821 8.02057 19.1812 8.21965 19.1812 8.46465V11.605Z" fill="black" stroke="black" stroke-width="0.172881"/>
</svg>
