<svg width="53" height="44" viewBox="0 0 53 44" fill="none" xmlns="http://www.w3.org/2000/svg">
<path d="M5 29C6.0062 29 6.65708 28.1816 7.03748 27.5112C7.46274 26.7617 7.81256 25.7437 8.09371 24.5722C8.65978 22.2136 9 19.0065 9 15.5C9 11.9935 8.65978 8.78644 8.09371 6.42779C7.81256 5.25634 7.46274 4.23827 7.03748 3.4888C6.65708 2.81841 6.0062 2 5 2C3.99381 2 3.34292 2.81841 2.96253 3.4888C2.53726 4.23827 2.18744 5.25634 1.90629 6.42779C1.34022 8.78644 1 11.9935 1 15.5C1 19.0065 1.34022 22.2136 1.90629 24.5722C2.18744 25.7437 2.53726 26.7617 2.96253 27.5112C3.34292 28.1816 3.99381 29 5 29Z" stroke="#222222" stroke-width="2"/>
<path d="M48 29C48.9782 29 49.6254 28.2194 50.0133 27.5498C50.4431 26.8081 50.8021 25.7872 51.0937 24.5722C51.6801 22.1291 52 18.8667 52 15.5C52 12.1333 51.6801 8.8709 51.0937 6.42779C50.8021 5.21278 50.4431 4.19188 50.0133 3.45017C49.6254 2.78064 48.9782 2 48 2" stroke="#222222" stroke-width="2" stroke-linecap="round"/>
<path d="M48 1C48 1 38.5938 4 26.5 4C14.4062 4 5 1 5 1" stroke="#222222" stroke-width="2" stroke-linecap="round"/>
<path d="M5 30C5 30 9.42699 27.7068 18.8214 27M48 30C48 30 43.573 27.7068 34.1786 27" stroke="#222222" stroke-width="2" stroke-linecap="round"/>
<path d="M20 4V16M33 4V16" stroke="#222222" stroke-width="2" stroke-linecap="round"/>
<circle cx="26.5" cy="21.5" r="7.5" stroke="#222222" stroke-width="2"/>
<path d="M18.7917 28L8 37L14.1667 38.5L18.7917 43L26.5 31L34.2083 43L38.8333 38.5L45 37L34.2083 28" stroke="#222222" stroke-width="2" stroke-linecap="round" stroke-linejoin="round"/>
</svg>
