<?xml version="1.0" encoding="UTF-8"?>
<svg xmlns="http://www.w3.org/2000/svg" xmlns:xlink="http://www.w3.org/1999/xlink" width="42px" height="42px" viewBox="0 0 42 42" version="1.1">
<g id="surface1">
<path style=" stroke:none;fill-rule:nonzero;fill:rgb(0%,0%,0%);fill-opacity:1;" d="M 33.058594 16.632812 L 31.019531 16.632812 C 31.019531 16.632812 31.019531 16.605469 30.988281 16.59375 L 24.453125 10.5 C 24.863281 9.570312 24.832031 8.507812 24.359375 7.605469 C 23.890625 6.707031 23.035156 6.070312 22.039062 5.878906 L 22.039062 2.703125 C 22.039062 2.359375 21.761719 2.078125 21.414062 2.078125 C 21.070312 2.078125 20.792969 2.359375 20.792969 2.703125 L 20.792969 6.445312 C 20.792969 6.789062 21.070312 7.070312 21.414062 7.070312 C 22.039062 7.070312 22.632812 7.347656 23.027344 7.835938 C 23.421875 8.316406 23.578125 8.953125 23.453125 9.5625 L 21.839844 8.066406 C 21.605469 7.855469 21.246094 7.855469 21.007812 8.066406 L 19.382812 9.519531 C 19.355469 9.394531 19.339844 9.273438 19.335938 9.148438 C 19.335938 8.804688 19.058594 8.523438 18.714844 8.523438 C 18.367188 8.523438 18.089844 8.804688 18.089844 9.148438 C 18.089844 9.585938 18.175781 10.019531 18.347656 10.425781 L 11.4375 16.582031 C 11.421875 16.601562 11.410156 16.617188 11.398438 16.632812 L 9.355469 16.632812 C 9.011719 16.632812 8.734375 16.914062 8.734375 17.257812 L 8.734375 36.386719 C 8.734375 36.730469 9.011719 37.011719 9.355469 37.011719 L 33.058594 37.011719 C 33.402344 37.011719 33.683594 36.730469 33.683594 36.386719 L 33.683594 17.257812 C 33.683594 16.914062 33.402344 16.632812 33.058594 16.632812 Z M 21.414062 9.371094 L 22.820312 10.679688 C 22.015625 11.441406 20.746094 11.421875 19.960938 10.640625 Z M 19.042969 11.476562 C 20.320312 12.78125 22.414062 12.808594 23.726562 11.535156 L 29.203125 16.632812 L 13.257812 16.632812 Z M 32.4375 35.761719 L 9.980469 35.761719 L 9.980469 17.882812 L 32.4375 17.882812 Z M 32.4375 35.761719 "/>
<path style=" stroke:none;fill-rule:nonzero;fill:rgb(0%,0%,0%);fill-opacity:1;" d="M 16.84375 30.355469 C 17.1875 30.355469 17.464844 30.078125 17.464844 29.734375 L 17.464844 23.910156 C 17.464844 23.566406 17.1875 23.285156 16.84375 23.285156 C 16.496094 23.285156 16.21875 23.566406 16.21875 23.910156 L 16.21875 29.734375 C 16.21875 30.078125 16.496094 30.355469 16.84375 30.355469 Z M 16.84375 30.355469 "/>
<path style=" stroke:none;fill-rule:nonzero;fill:rgb(0%,0%,0%);fill-opacity:1;" d="M 21.414062 30.355469 C 21.761719 30.355469 22.039062 30.078125 22.039062 29.734375 L 22.039062 23.910156 C 22.039062 23.566406 21.761719 23.285156 21.414062 23.285156 C 21.070312 23.285156 20.792969 23.566406 20.792969 23.910156 L 20.792969 29.734375 C 20.792969 30.078125 21.070312 30.355469 21.414062 30.355469 Z M 21.414062 30.355469 "/>
<path style=" stroke:none;fill-rule:nonzero;fill:rgb(0%,0%,0%);fill-opacity:1;" d="M 25.574219 30.355469 C 25.917969 30.355469 26.199219 30.078125 26.199219 29.734375 L 26.199219 23.910156 C 26.199219 23.566406 25.917969 23.285156 25.574219 23.285156 C 25.230469 23.285156 24.949219 23.566406 24.949219 23.910156 L 24.949219 29.734375 C 24.949219 30.078125 25.230469 30.355469 25.574219 30.355469 Z M 25.574219 30.355469 "/>
</g>
</svg>
