<svg width="54" height="54" viewBox="0 0 54 54" fill="none" xmlns="http://www.w3.org/2000/svg">
<g clip-path="url(#clip0_130_235)">
<path d="M50.4903 -0.068812H44.0103C42.0177 -0.068812 40.3971 1.5518 40.3971 3.54437V53.325C40.3971 53.7548 40.7453 54.1038 41.176 54.1038H53.3247C53.7553 54.1038 54.1035 53.7548 54.1035 53.325V3.54372C54.1035 1.55179 52.4829 -0.068812 50.4903 -0.068812ZM41.9548 3.54372C41.9548 2.41103 42.8775 1.48888 44.0103 1.48888H50.4903C51.6237 1.48888 52.5458 2.41099 52.5458 3.54437V30.3548H41.9548V3.54372ZM52.5458 52.5461H41.9548V35.9827H52.5458V52.5461ZM52.5458 34.425H41.9548V31.9124H52.5458V34.425Z" fill="black" stroke="black" stroke-width="0.207692"/>
<path d="M25.7017 11.5817V18.1124H25.1717C24.7411 18.1124 24.3929 18.4613 24.3929 18.8912V34.4257H23.5881C23.1574 34.4257 22.8092 34.7747 22.8092 35.2046L22.8092 53.325L22.8092 53.3252C22.81 53.755 23.1588 54.1039 23.5887 54.1039H35.7374C36.1681 54.1039 36.5163 53.7549 36.5163 53.325V35.204C36.5163 35.2039 36.5163 35.2039 36.5163 35.2039C36.5164 34.7741 36.1683 34.4251 35.7376 34.4251H34.9329V18.8905C34.9329 18.4607 34.5847 18.1117 34.1541 18.1117H33.6241V9.57356C33.6241 8.74453 33.2133 7.97368 32.5252 7.51103C31.8384 7.04895 30.9691 6.9581 30.2012 7.27154L27.9987 8.16718C26.6035 8.73458 25.7017 10.0754 25.7017 11.5817ZM30.7892 8.71395L30.7892 8.71394C31.0806 8.59538 31.3965 8.62805 31.6567 8.80318L31.6568 8.80321C31.9184 8.97903 32.0672 9.2585 32.0672 9.57356V18.1117H27.2603V11.581V11.5569C27.2698 10.6965 27.7881 9.9344 28.5866 9.60964C28.5866 9.60964 28.5866 9.60964 28.5866 9.60964L30.7892 8.71395ZM25.9513 19.6694H33.3759V34.4251H25.9513V19.6694ZM34.9587 52.5462H24.3677V35.9828H34.9587V52.5462Z" fill="black" stroke="black" stroke-width="0.207692"/>
<path d="M20.6912 0.778846H20.6913V0.675C20.6913 0.245145 20.3431 -0.103846 19.9125 -0.103846H0.675C0.244354 -0.103846 -0.103846 0.245145 -0.103846 0.675L-0.103846 0.67505L-0.101869 4.77567H-0.102158L-0.101576 4.78341L3.09555 47.287V53.325C3.09555 53.5313 3.17733 53.7299 3.32387 53.8758L3.32391 53.8759C3.47011 54.0213 3.66775 54.1038 3.87439 54.1038H16.7128C17.1435 54.1038 17.4917 53.7549 17.4917 53.325L17.4897 47.3383L20.6909 4.73278L20.6912 4.7328V4.725V0.778846ZM12.2803 52.5455L8.30716 52.5461C8.57464 51.6997 9.3619 51.0826 10.2936 51.0826C11.2262 51.0826 12.0134 51.6992 12.2803 52.5455ZM15.9343 52.5462H13.8731C13.5741 50.8349 12.091 49.5255 10.2936 49.5255C8.49625 49.5255 7.01321 50.8355 6.71412 52.5468H4.65333L4.65144 47.9728H15.9343V52.5462ZM4.09643 39.8479H16.4924L15.999 46.4151H4.59048L4.09643 39.8479ZM3.9789 38.2902L2.58717 19.7916H17.999L16.6093 38.2902H3.9789ZM1.50915 5.46126H19.0756L18.1165 18.2339H2.47029L1.50915 5.46126ZM1.45385 3.90436V1.45385H19.1337L19.1349 3.90436H1.45385Z" fill="black" stroke="black" stroke-width="0.207692"/>
</g>
<defs>
<clipPath id="clip0_130_235">
<rect width="54" height="54" fill="white"/>
</clipPath>
</defs>
</svg>
