<?xml version="1.0" encoding="UTF-8"?>
<svg xmlns="http://www.w3.org/2000/svg" xmlns:xlink="http://www.w3.org/1999/xlink" width="px" height="38px" viewBox="0 0 38 38" version="1.1">
<g id="surface1">
<path style="fill:none;stroke-width:2;stroke-linecap:butt;stroke-linejoin:miter;stroke:rgb(13.333333%,13.333333%,13.333333%);stroke-opacity:1;stroke-miterlimit:4;" d="M 6.999178 5.000822 L 17.000822 5.000822 C 17.970395 5.000822 18.599507 5.003289 19.060855 5.064967 C 19.495066 5.121711 19.630757 5.217928 19.707237 5.291941 C 19.783717 5.368421 19.877467 5.504112 19.936678 5.938322 C 19.998355 6.402138 20.000822 7.028783 20.000822 8.000822 L 20.000822 15.999178 L 3.999178 15.999178 L 3.999178 8.000822 C 3.999178 7.028783 4.001645 6.402138 4.063322 5.938322 C 4.122533 5.504112 4.216283 5.368421 4.292763 5.291941 C 4.369243 5.217928 4.504934 5.121711 4.939145 5.064967 C 5.400493 5.003289 6.029605 5.000822 6.999178 5.000822 Z M 6.999178 5.000822 " transform="matrix(1.583333,0,0,1.583333,0,0)"/>
<path style="fill:none;stroke-width:2;stroke-linecap:butt;stroke-linejoin:miter;stroke:rgb(13.333333%,13.333333%,13.333333%);stroke-opacity:1;stroke-miterlimit:4;" d="M 20.333882 15.999178 L 3.666118 15.999178 C 2.745888 15.999178 2.000822 16.746711 2.000822 17.666941 C 2.000822 18.95477 3.044408 20.000822 4.332237 20.000822 L 19.667763 20.000822 C 20.955592 20.000822 21.999178 18.95477 21.999178 17.666941 C 21.999178 16.746711 21.254112 15.999178 20.333882 15.999178 Z M 20.333882 15.999178 " transform="matrix(1.583333,0,0,1.583333,0,0)"/>
</g>
</svg>
