<svg width="62" height="66" viewBox="0 0 62 66" fill="none" xmlns="http://www.w3.org/2000/svg">
<g clip-path="url(#clip0_151_157)">
<path d="M41.9546 34.287V34.2416C41.9092 34.1508 41.8638 34.1054 41.8184 34.06L41.773 34.0146C41.7276 34.0146 41.7276 33.9692 41.6822 33.9692C41.6368 33.9692 41.5914 33.9238 41.546 33.9238C41.546 33.9238 41.546 33.9238 41.5006 33.9238L14.2619 24.8896C14.0349 24.7988 13.8079 24.8442 13.6263 24.9804L0.279291 33.9692L0.233893 34.0146C0.188495 34.06 0.0976992 34.1054 0.0976992 34.1962C0.0976992 34.2416 0.0523012 34.2416 0.0523012 34.287C0.00690332 34.3324 0.00690332 34.4231 0.00690332 34.5139V34.5593V56.3503C-0.0384946 56.6681 0.143097 56.9405 0.460883 57.0313L26.3831 65.1121C26.4739 65.1121 26.5193 65.1575 26.6101 65.1575C26.7009 65.1575 26.7917 65.1575 26.8825 65.1121H26.9279H26.9733L41.6368 57.0313C41.8638 56.8951 42 56.6681 42 56.3957V34.5593V34.5139V34.4685C42 34.3779 41.9546 34.3324 41.9546 34.287ZM14.1257 26.3877L39.4577 34.7409L33.8738 37.7826L9.04109 29.838L14.1257 26.3877ZM25.8837 63.3871L1.41424 55.8057V35.6036L25.8837 43.1851V63.3871ZM26.5193 41.823L2.3676 34.3324L7.45216 30.8821L32.0578 38.7813L26.5193 41.823ZM40.5472 55.8965L27.3365 63.1601V43.0943L40.5472 35.8306V55.8965Z" fill="black"/>
<path d="M37.4602 41.6414C37.2786 41.2782 36.8247 41.142 36.4615 41.3236L31.5131 43.9113C31.1499 44.0929 31.0137 44.5469 31.1953 44.9101C31.3315 45.1824 31.6039 45.3186 31.8309 45.3186C31.9671 45.3186 32.0579 45.2732 32.1941 45.2278L37.1424 42.6402C37.5056 42.4586 37.6418 42.0046 37.4602 41.6414Z" fill="black"/>
</g>
<path fill-rule="evenodd" clip-rule="evenodd" d="M49.4197 63.5809H60.3633V1.41923H49.4197V63.5809ZM61.0731 65H48.7098C48.3167 65 48 64.6823 48 64.2905V0.70954C48 0.317884 48.3164 0 48.7095 0L61.0731 0C61.4663 0 61.7821 0.317884 61.7821 0.70969L61.7822 64.2903C61.7822 64.6821 61.4657 65 61.0725 65H61.0731Z" fill="black"/>
<path fill-rule="evenodd" clip-rule="evenodd" d="M54.8924 10.5225H48.7098C48.3167 10.5225 48 10.2046 48 9.81299C48 9.42103 48.3164 9.1033 48.7095 9.1033L54.8924 9.10315C55.2836 9.10315 55.6013 9.42118 55.6013 9.81299C55.6016 10.2046 55.2836 10.5225 54.8924 10.5225Z" fill="black"/>
<path fill-rule="evenodd" clip-rule="evenodd" d="M51.8011 14.734H48.7098C48.3167 14.734 48 14.4162 48 14.0244C48 13.6326 48.3164 13.3149 48.7095 13.3149H51.8011C52.1929 13.3149 52.5088 13.6326 52.5088 14.0244C52.5088 14.4161 52.1925 14.734 51.8011 14.734Z" fill="black"/>
<path fill-rule="evenodd" clip-rule="evenodd" d="M51.8011 18.9457H48.7098C48.3167 18.9457 48 18.6278 48 18.2362C48 17.8444 48.3164 17.5266 48.7095 17.5266L51.8011 17.5265C52.1929 17.5265 52.5088 17.8444 52.5088 18.2362C52.5088 18.6278 52.1925 18.9457 51.8011 18.9457Z" fill="black"/>
<path fill-rule="evenodd" clip-rule="evenodd" d="M54.8924 23.1573H48.7098C48.3167 23.1573 48 22.8394 48 22.4477C48 22.0559 48.3164 21.7382 48.7095 21.7382L54.8924 21.738C55.2836 21.738 55.6013 22.0559 55.6013 22.4477C55.6016 22.8394 55.2836 23.1573 54.8924 23.1573Z" fill="black"/>
<path fill-rule="evenodd" clip-rule="evenodd" d="M51.8011 27.3674H48.7098C48.3167 27.3674 48 27.0496 48 26.658C48 26.266 48.3164 25.9483 48.7095 25.9483H51.8011C52.1929 25.9483 52.5088 26.2662 52.5088 26.658C52.5088 27.0495 52.1925 27.3675 51.8011 27.3674Z" fill="black"/>
<path fill-rule="evenodd" clip-rule="evenodd" d="M51.8011 31.5791H48.7098C48.3167 31.5791 48 31.2614 48 30.8696C48 30.4778 48.3164 30.16 48.7095 30.16H51.8011C52.1929 30.16 52.5088 30.4779 52.5088 30.8696C52.5088 31.2614 52.1925 31.5793 51.8011 31.5791Z" fill="black"/>
<path fill-rule="evenodd" clip-rule="evenodd" d="M54.8924 35.7905H48.7098C48.3167 35.7905 48 35.4728 48 35.0811C48 34.6893 48.3164 34.3716 48.7095 34.3716L54.8924 34.3715C55.2836 34.3715 55.6013 34.6893 55.6013 35.0811C55.6016 35.4728 55.2836 35.7907 54.8918 35.7907L54.8924 35.7905Z" fill="black"/>
<path fill-rule="evenodd" clip-rule="evenodd" d="M51.8011 40.0024H48.7098C48.3167 40.0024 48 39.6845 48 39.2928C48 38.901 48.3164 38.5832 48.7095 38.5832L51.8011 38.583C52.1929 38.583 52.5088 38.901 52.5088 39.2928C52.5088 39.6845 52.1925 40.0024 51.8011 40.0024V40.0024Z" fill="black"/>
<path fill-rule="evenodd" clip-rule="evenodd" d="M51.8011 44.2139H48.7098C48.3167 44.2139 48 43.8961 48 43.5045C48 43.111 48.3164 42.7948 48.7095 42.7948H51.8011C52.1929 42.7948 52.5088 43.1112 52.5088 43.5045C52.5088 43.896 52.1925 44.2139 51.8011 44.2139Z" fill="black"/>
<path fill-rule="evenodd" clip-rule="evenodd" d="M54.8924 48.4256H48.7098C48.3167 48.4256 48 48.1078 48 47.716C48 47.3229 48.3164 47.0065 48.7095 47.0065L54.8924 47.0063C55.2836 47.0063 55.6013 47.3229 55.6013 47.716C55.6016 48.1078 55.2836 48.4256 54.8924 48.4256Z" fill="black"/>
<path fill-rule="evenodd" clip-rule="evenodd" d="M51.8011 52.6355H48.7098C48.3167 52.6355 48 52.3193 48 51.9261C48 51.5343 48.3164 51.2166 48.7095 51.2166L51.8011 51.2164C52.1929 51.2164 52.5088 51.5343 52.5088 51.9261C52.5088 52.3193 52.1925 52.6357 51.8011 52.6355Z" fill="black"/>
<path fill-rule="evenodd" clip-rule="evenodd" d="M51.8011 56.8474H48.7098C48.3167 56.8474 48 56.5295 48 56.1379C48 55.7459 48.3164 55.4283 48.7095 55.4283L51.8011 55.4282C52.1929 55.4282 52.5088 55.746 52.5088 56.1379C52.5088 56.5295 52.1925 56.8474 51.8011 56.8474Z" fill="black"/>
<path fill-rule="evenodd" clip-rule="evenodd" d="M54.8924 61.0589H48.7098C48.3167 61.0589 48 60.7411 48 60.3493C48 59.9577 48.3164 59.6398 48.7095 59.6398H54.8924C55.2836 59.6398 55.6013 59.9577 55.6013 60.3493C55.6016 60.741 55.2836 61.059 54.8918 61.059L54.8924 61.0589Z" fill="black"/>
<path fill-rule="evenodd" clip-rule="evenodd" d="M53.4328 4.36683C52.9405 4.36683 52.5382 4.76749 52.5382 5.26126C52.5387 5.75353 52.9404 6.15568 53.4326 6.15568C53.9264 6.15553 54.3269 5.75353 54.3269 5.26126C54.3275 4.76749 53.9263 4.36683 53.4328 4.36683V4.36683ZM53.4328 7.57476C52.1568 7.57476 51.1191 6.53699 51.1191 5.26126C51.1191 3.98552 52.1568 2.94775 53.4326 2.94775C54.7087 2.94775 55.7461 3.98552 55.7461 5.26126C55.7464 6.53699 54.7084 7.57476 53.4328 7.57476V7.57476Z" fill="black"/>
<path fill-rule="evenodd" clip-rule="evenodd" d="M58.1574 65C57.7662 65 57.4478 64.6823 57.4478 64.2905L57.4482 0.70954C57.4482 0.317884 57.7656 0 58.1573 0C58.5493 0 58.8668 0.317884 58.8668 0.70969L58.8671 64.2903C58.8671 64.6821 58.5489 65 58.1574 65V65Z" fill="black"/>
<defs>
<clipPath id="clip0_151_157">
<rect width="42" height="42" fill="white" transform="translate(0 24)"/>
</clipPath>
</defs>
</svg>
