<svg width="102" height="102" viewBox="0 0 102 102" fill="none" xmlns="http://www.w3.org/2000/svg">
<path d="M89.25 71.9453V21.9147C89.25 21.5963 88.9285 21.3786 88.6329 21.4969L68.1351 29.696C68.0473 29.7311 67.9506 29.7377 67.8588 29.7147L34.1412 21.2853C34.0494 21.2623 33.9527 21.2689 33.8649 21.304L13.0329 29.6369C12.862 29.7052 12.75 29.8707 12.75 30.0547V80.0853C12.75 80.4037 13.0715 80.6214 13.3671 80.5032L33.8649 72.304C33.9527 72.2689 34.0494 72.2623 34.1412 72.2853L67.8588 80.7147C67.9506 80.7377 68.0473 80.7311 68.1351 80.696L88.9671 72.3632C89.138 72.2948 89.25 72.1293 89.25 71.9453Z" stroke="#222222" stroke-width="2" stroke-linejoin="round"/>
<path d="M68 80.75V29.75" stroke="#222222" stroke-width="2"/>
<path d="M34 72.25L34 21.25" stroke="#222222" stroke-width="2"/>
</svg>
