<svg width="50" height="50" viewBox="0 0 50 50" fill="none" xmlns="http://www.w3.org/2000/svg">
<path d="M43.75 35.112V11.0814C43.75 10.763 43.4285 10.5453 43.1329 10.6635L33.4684 14.5293C33.3806 14.5644 33.2839 14.571 33.1922 14.5481L16.8078 10.452C16.7161 10.429 16.6194 10.4356 16.5316 10.4707L6.53287 14.4702C6.36203 14.5385 6.25 14.704 6.25 14.888V38.9187C6.25 39.237 6.57154 39.4547 6.86713 39.3365L16.5316 35.4707C16.6194 35.4356 16.7161 35.429 16.8078 35.452L33.1922 39.5481C33.2839 39.571 33.3806 39.5644 33.4684 39.5293L43.4671 35.5298C43.638 35.4615 43.75 35.296 43.75 35.112Z" stroke="#222222" stroke-width="2" stroke-linejoin="round"/>
<path d="M33.3333 39.5833V14.5833" stroke="#222222" stroke-width="2"/>
<path d="M16.6667 35.4167L16.6667 10.4167" stroke="#222222" stroke-width="2"/>
</svg>
