<svg width="70" height="70" viewBox="0 0 70 70" fill="none" xmlns="http://www.w3.org/2000/svg">
<path d="M35 61.25C41.0731 61.25 46.9583 59.1442 51.6528 55.2915C56.3474 51.4388 59.5608 46.0775 60.7456 40.1211C61.9304 34.1647 61.0133 27.9818 58.1504 22.6258C55.2876 17.2699 50.6562 13.0722 45.0454 10.7482C39.4347 8.4241 33.1916 8.11739 27.38 9.88031C21.5685 11.6432 16.5479 15.3667 13.1739 20.4163C9.7999 25.4659 8.28114 31.5291 8.8764 37.5729C9.47166 43.6168 12.1441 49.2672 16.4384 53.5615" stroke="#222222" stroke-width="2" stroke-linecap="round"/>
<path d="M46.6667 29.1666L33.4854 44.9842C32.8298 45.7709 32.502 46.1642 32.0614 46.1842C31.6209 46.2042 31.2588 45.8421 30.5347 45.118L23.3333 37.9166" stroke="#222222" stroke-width="2" stroke-linecap="round"/>
</svg>
