<svg width="108" height="108" viewBox="0 0 108 108" fill="none" xmlns="http://www.w3.org/2000/svg">
<circle cx="54" cy="36" r="17" stroke="#222222" stroke-width="2" stroke-linecap="round"/>
<path d="M65.6747 34.25C67.3323 31.3789 70.0625 29.284 73.2648 28.4259C76.467 27.5679 79.8789 28.0171 82.75 29.6747C85.6211 31.3323 87.716 34.0625 88.5741 37.2648C89.4321 40.467 88.9829 43.8789 87.3253 46.75C85.6677 49.6211 82.9375 51.716 79.7352 52.5741C76.533 53.4321 73.1211 52.9829 70.25 51.3253C67.3789 49.6677 65.284 46.9375 64.4259 43.7352C63.5679 40.533 64.0171 37.1211 65.6747 34.25L65.6747 34.25Z" stroke="#222222" stroke-width="2"/>
<path d="M20.6747 34.25C22.3323 31.3789 25.0625 29.284 28.2648 28.4259C31.467 27.5679 34.8789 28.0171 37.75 29.6747C40.6211 31.3323 42.716 34.0625 43.5741 37.2648C44.4321 40.467 43.9829 43.8789 42.3253 46.75C40.6677 49.6211 37.9375 51.716 34.7352 52.5741C31.533 53.4321 28.1211 52.9829 25.25 51.3253C22.3789 49.6677 20.284 46.9375 19.4259 43.7352C18.5679 40.533 19.0171 37.1211 20.6747 34.25L20.6747 34.25Z" stroke="#222222" stroke-width="2"/>
<path d="M75.9673 81L74.987 81.1974L75.1486 82H75.9673V81ZM94.3066 79.8894L93.3266 80.0883L93.3266 80.0883L94.3066 79.8894ZM66.5137 66.1974L65.9088 65.4011L64.7523 66.2795L65.9855 67.0466L66.5137 66.1974ZM93.3672 80H75.9673V82H93.3672V80ZM93.3266 80.0883C93.3256 80.0833 93.3245 80.0693 93.3293 80.0516C93.3337 80.0353 93.341 80.0232 93.3477 80.0154C93.3615 79.9993 93.3734 80 93.3672 80V82C94.5525 82 95.5415 80.9461 95.2867 79.6905L93.3266 80.0883ZM76.5 64C82.797 64 86.771 67.029 89.3057 70.5573C91.8673 74.123 92.9406 78.1861 93.3266 80.0883L95.2867 79.6905C94.8767 77.6703 93.7306 73.2887 90.93 69.3904C88.1024 65.4545 83.571 62 76.5 62V64ZM67.1185 66.9937C69.4477 65.2246 72.4921 64 76.5 64V62C72.0483 62 68.5804 63.3719 65.9088 65.4011L67.1185 66.9937ZM65.9855 67.0466C71.868 70.7051 74.1264 76.9247 74.987 81.1974L76.9476 80.8026C76.0433 76.3127 73.6136 69.4355 67.0418 65.3482L65.9855 67.0466Z" fill="#222222"/>
<path d="M41.4863 66.1973L42.0144 67.0465L43.2477 66.2795L42.0911 65.401L41.4863 66.1973ZM13.6933 79.8893L14.6733 80.0883L14.6733 80.0883L13.6933 79.8893ZM32.0326 81V82H32.8513L33.0129 81.1974L32.0326 81ZM31.5 64C35.5079 64 38.5523 65.2246 40.8814 66.9937L42.0911 65.401C39.4196 63.3719 35.9518 62 31.5 62V64ZM14.6733 80.0883C15.0594 78.1861 16.1327 74.123 18.6943 70.5573C21.2291 67.029 25.203 64 31.5 64V62C24.4291 62 19.8977 65.4545 17.0701 69.3904C14.2694 73.2887 13.1233 77.6703 12.7133 79.6904L14.6733 80.0883ZM14.6328 80C14.6266 80 14.6385 79.9993 14.6522 80.0154C14.6589 80.0232 14.6663 80.0353 14.6706 80.0516C14.6754 80.0693 14.6743 80.0833 14.6733 80.0883L12.7133 79.6904C12.4584 80.9461 13.4475 82 14.6328 82V80ZM32.0326 80H14.6328V82H32.0326V80ZM33.0129 81.1974C33.8734 76.9247 36.1319 70.705 42.0144 67.0465L40.9582 65.3482C34.3863 69.4354 31.9565 76.3127 31.0523 80.8026L33.0129 81.1974Z" fill="#222222"/>
<path d="M54 63C73.6434 63 76.1373 80.1494 76.454 84.5041C76.494 85.0549 76.0523 85.5 75.5 85.5H32.5C31.9477 85.5 31.506 85.0549 31.546 84.5041C31.8627 80.1495 34.3566 63 54 63Z" stroke="#222222" stroke-width="2" stroke-linecap="round"/>
</svg>
