<svg width="50" height="50" viewBox="0 0 50 50" fill="none" xmlns="http://www.w3.org/2000/svg">
<circle cx="25" cy="16.6666" r="7.33333" stroke="#222222" stroke-width="2" stroke-linecap="round"/>
<path d="M30.8701 16.125C31.5662 14.9192 32.7129 14.0393 34.0579 13.6789C35.4028 13.3185 36.8358 13.5072 38.0417 14.2034C39.2475 14.8996 40.1274 16.0463 40.4878 17.3912C40.8482 18.7361 40.6595 20.1692 39.9633 21.375C39.2671 22.5808 38.1204 23.4607 36.7755 23.8211C35.4305 24.1815 33.9975 23.9928 32.7917 23.2966C31.5858 22.6004 30.706 21.4537 30.3456 20.1088C29.9852 18.7639 30.1739 17.3308 30.8701 16.125L30.8701 16.125Z" stroke="#222222" stroke-width="2"/>
<path d="M10.0367 16.125C10.7329 14.9192 11.8796 14.0393 13.2245 13.6789C14.5695 13.3185 16.0025 13.5072 17.2083 14.2034C18.4142 14.8996 19.294 16.0463 19.6544 17.3912C20.0148 18.7361 19.8261 20.1692 19.1299 21.375C18.4338 22.5808 17.2871 23.4607 15.9421 23.8211C14.5972 24.1815 13.1642 23.9928 11.9583 23.2966C10.7525 22.6004 9.87258 21.4537 9.5122 20.1088C9.15183 18.7639 9.34049 17.3308 10.0367 16.125L10.0367 16.125Z" stroke="#222222" stroke-width="2"/>
<path d="M35.1701 37.5L34.1897 37.6975L34.3514 38.5H35.1701V37.5ZM43.5247 36.3935L42.5556 36.6403L42.5556 36.6403L43.5247 36.3935ZM30.7934 30.647L30.1885 29.8506L29.032 30.7291L30.2653 31.4961L30.7934 30.647ZM42.6172 36.5H35.1701V38.5H42.6172V36.5ZM42.5556 36.6403C42.553 36.6301 42.5508 36.6082 42.5572 36.5813C42.5632 36.556 42.5742 36.5368 42.5848 36.5242C42.6057 36.4991 42.6235 36.5 42.6172 36.5V38.5C43.7935 38.5 44.8218 37.4351 44.4938 36.1468L42.5556 36.6403ZM35.4167 30.1667C37.8858 30.1667 39.4994 31.2361 40.5912 32.5649C41.7106 33.9272 42.2841 35.5738 42.5556 36.6403L44.4938 36.1468C44.1882 34.9465 43.5205 32.9797 42.1365 31.2952C40.725 29.5773 38.5731 28.1667 35.4167 28.1667V30.1667ZM31.3983 31.4433C32.3847 30.6941 33.6804 30.1667 35.4167 30.1667V28.1667C33.2365 28.1667 31.5173 28.8414 30.1885 29.8506L31.3983 31.4433ZM30.2653 31.4961C32.8035 33.0748 33.8031 35.7777 34.1897 37.6975L36.1504 37.3026C35.72 35.1656 34.5491 31.8052 31.3215 29.7978L30.2653 31.4961Z" fill="#222222"/>
<path d="M19.2066 30.6469L19.7347 31.4961L20.968 30.7291L19.8114 29.8506L19.2066 30.6469ZM6.47528 36.3935L5.50619 36.1468L5.50619 36.1468L6.47528 36.3935ZM14.8299 37.5V38.5H15.6486L15.8102 37.6975L14.8299 37.5ZM14.5833 30.1667C16.3196 30.1667 17.6153 30.6941 18.6017 31.4433L19.8114 29.8506C18.4827 28.8414 16.7635 28.1667 14.5833 28.1667V30.1667ZM7.44437 36.6403C7.71585 35.5738 8.28942 33.9272 9.40877 32.5649C10.5006 31.2361 12.1142 30.1667 14.5833 30.1667V28.1667C11.4269 28.1667 9.27501 29.5773 7.8635 31.2952C6.47947 32.9797 5.81178 34.9465 5.50619 36.1468L7.44437 36.6403ZM7.38275 36.5C7.37645 36.5 7.39424 36.4991 7.41522 36.5242C7.42574 36.5368 7.43682 36.556 7.44281 36.5813C7.44921 36.6082 7.44695 36.6301 7.44437 36.6403L5.50619 36.1468C5.17823 37.4351 6.2065 38.5 7.38275 38.5V36.5ZM14.8299 36.5H7.38275V38.5H14.8299V36.5ZM15.8102 37.6975C16.1968 35.7777 17.1964 33.0748 19.7347 31.4961L18.6785 29.7978C15.4508 31.8051 14.2799 35.1656 13.8496 37.3026L15.8102 37.6975Z" fill="#222222"/>
<path d="M25 29.1667C33.4269 29.1667 35.0366 35.9839 35.344 38.5883C35.4088 39.1368 34.9689 39.5834 34.4166 39.5834H15.5833C15.031 39.5834 14.5912 39.1368 14.6559 38.5883C14.9634 35.9839 16.5731 29.1667 25 29.1667Z" stroke="#222222" stroke-width="2" stroke-linecap="round"/>
</svg>
