<svg width="58" height="58" viewBox="0 0 58 58" fill="none" xmlns="http://www.w3.org/2000/svg">
<path d="M0.900043 7.19985L0.900043 7.1998L0.9 7.19883V7.19881C0.9 7.19782 0.900015 7.19685 0.900042 7.19591L0.9 7.10554L0.9 7.1055C0.9 3.68331 3.69105 0.9 7.12105 0.9H12.3602C12.8066 0.9 13.1679 1.26171 13.1679 1.70776V11.4484H25.3373C25.514 8.69262 25.8582 6.08293 26.4754 4.15269C26.7874 3.17698 27.1714 2.36739 27.6446 1.79999C28.1196 1.2305 28.6893 0.9 29.3658 0.9C30.0424 0.9 30.6121 1.2305 31.0871 1.79999C31.5603 2.36739 31.9443 3.17698 32.2563 4.15269C32.8735 6.08293 33.2177 8.69262 33.3944 11.4484H50.52C54.4531 11.4484 57.6736 14.6389 57.7003 18.562C57.7003 18.5625 57.7004 18.563 57.7004 18.5635L57.7203 19.1062L57.7203 19.1065M0.900043 7.19985L57.7172 19.1064C57.7163 19.103 57.7155 19.1004 57.7153 19.0999C57.7148 19.0981 57.7155 19.1005 57.7162 19.1034C57.7164 19.1042 57.7166 19.1052 57.7169 19.1064L57.6204 19.1102M0.900043 7.19985L0.920733 46.3481L0.920737 46.3487C0.946676 50.2727 4.16752 53.4641 8.10114 53.4641H43.5144M0.900043 7.19985L43.5144 53.4641M57.7203 19.1065L57.7173 19.1066C57.7176 19.108 57.718 19.1094 57.7183 19.1109C57.7189 19.1136 57.7195 19.1168 57.72 19.1203M57.7203 19.1065C57.7205 19.1116 57.7204 19.1162 57.72 19.1203M57.7203 19.1065L43.5144 53.4641M57.72 19.1203C57.7196 19.1246 57.7191 19.1284 57.7185 19.1314C57.7182 19.1331 57.7179 19.1347 57.7175 19.1361C57.7168 19.1394 57.7161 19.1418 57.716 19.1422C57.7155 19.144 57.7163 19.1415 57.7169 19.1385C57.717 19.1378 57.7171 19.137 57.7173 19.1361C57.7176 19.134 57.718 19.1313 57.7182 19.1282C57.7183 19.1259 57.7184 19.1233 57.7184 19.1206M57.72 19.1203C57.7206 19.1249 57.7211 19.1302 57.7211 19.1361V50.5341C57.7211 54.4975 54.4884 57.7211 50.5151 57.7211H44.3222C43.8757 57.7211 43.5144 57.3594 43.5144 56.9133V53.4641M57.7184 19.1206L57.7184 19.1209C57.7184 19.1208 57.7184 19.1207 57.7184 19.1206ZM57.7184 19.1206C57.7182 19.1149 57.7176 19.1101 57.7169 19.1066L57.6204 19.1102M57.6204 19.1102C57.6205 19.1124 57.6199 19.1144 57.6194 19.1165C57.6189 19.1185 57.6183 19.1205 57.6184 19.1226L50.52 11.5484C54.3988 11.5484 57.5748 14.6956 57.6004 18.5642L57.6204 19.1102ZM26.5289 34.0519L26.5289 34.0519C27.321 33.5307 28.2508 33.2549 29.2179 33.2549C30.7052 33.2549 32.0067 33.8834 32.8863 35.0244C33.9096 36.3518 34.2435 38.2167 33.7708 40.0142C33.0734 42.6658 30.8733 44.8373 29.459 46.0055C29.3307 44.6786 28.9193 43.7018 28.3899 42.9303C27.8378 42.1256 27.1593 41.5476 26.5549 41.0326L26.5527 41.0308L26.5526 41.0307L26.3339 40.844C26.3338 40.844 26.3338 40.844 26.3338 40.844C25.2569 39.9182 24.6682 38.5316 24.758 37.1362L24.758 37.1362C24.8397 35.8615 25.4852 34.7382 26.5289 34.0519ZM2.53626 46.3425L2.51769 11.232C3.58637 12.3576 5.09339 13.0639 6.76509 13.0639H25.2527C25.1985 14.3739 25.1762 15.6948 25.1762 16.9727C25.1762 20.6302 25.3533 24.17 25.6853 27.2663C24.7436 27.4814 24.0371 28.3221 24.0371 29.3289V31.1356C24.0371 31.964 24.5158 32.68 25.2094 33.028C23.9963 34.0048 23.2485 35.4333 23.1457 37.0325C23.0234 38.9328 23.8224 40.8152 25.2808 42.0691L25.281 42.0693L25.505 42.2604L25.505 42.2605C26.1765 42.8327 26.8139 43.377 27.2611 44.166C27.7066 44.9521 27.9677 45.99 27.8623 47.5529C27.8418 47.8574 27.9948 48.1473 28.2567 48.3023L28.2569 48.3024C28.3844 48.3776 28.5264 48.4151 28.6684 48.4151C28.8199 48.4151 28.9714 48.3725 29.1039 48.2877C29.2091 48.2204 30.4615 47.4075 31.8392 46.0373C33.2159 44.6681 34.7256 42.7345 35.3327 40.4252C35.9308 38.1528 35.4969 35.7647 34.1651 34.038C33.9025 33.6973 33.612 33.3908 33.2977 33.1193C34.1097 32.8234 34.6946 32.0502 34.6946 31.1356V29.3289C34.6946 28.3221 33.988 27.4812 33.0462 27.2662C33.3785 24.1732 33.5555 20.6353 33.5555 16.9727C33.5555 15.6948 33.5332 14.3739 33.479 13.0639H50.52C53.5684 13.0639 56.0652 15.5358 56.0855 18.5952L56.0856 18.5982L56.1054 19.1409C56.1028 22.2104 53.5965 24.7075 50.5151 24.7075H44.3222C43.8757 24.7075 43.5144 25.0692 43.5144 25.5153V51.8486H8.10114C5.05248 51.8486 2.55611 49.3762 2.53626 46.3428C2.53626 46.3427 2.53626 46.3426 2.53626 46.3425ZM7.12105 2.51553H11.5524V11.4484H6.76509C4.42228 11.4484 2.51608 9.54242 2.51557 7.19978V7.19975L2.51553 7.10515C2.51553 7.10514 2.51553 7.10512 2.51553 7.10511C2.51555 4.57464 4.5813 2.51553 7.12105 2.51553ZM0.902905 7.17484L0.902644 7.17592L0.902636 7.17597C0.9029 7.17482 0.903066 7.17419 0.902998 7.17446L0.902996 7.17447L0.902991 7.17449L0.902973 7.17456L0.902905 7.17484ZM56.1056 50.5341C56.1056 53.6058 53.5981 56.1056 50.5151 56.1056H45.1299V26.3231H50.5151C52.7683 26.3231 54.7832 25.2861 56.1056 23.6663V50.5341ZM32.575 31.6393H26.1567C25.8788 31.6393 25.6526 31.4131 25.6526 31.1356V29.3289C25.6526 29.0509 25.8788 28.8248 26.1567 28.8248H32.575C32.8529 28.8248 33.0791 29.0509 33.0791 29.3289V31.1356C33.0791 31.4131 32.8529 31.6393 32.575 31.6393ZM29.3658 2.51553C29.5425 2.51553 29.7992 2.6653 30.0893 3.12428C30.3754 3.57691 30.6776 4.30573 30.9527 5.40051C31.5028 7.5891 31.94 11.2192 31.94 16.9727C31.94 20.6256 31.7619 24.1475 31.4276 27.2092H27.3035C26.9696 24.144 26.7917 20.6202 26.7917 16.9727C26.7917 11.2192 27.2289 7.5891 27.7789 5.40051C28.0541 4.30573 28.3562 3.57691 28.6424 3.12428C28.9325 2.6653 29.1892 2.51553 29.3658 2.51553Z" fill="black" stroke="black" stroke-width="0.2"/>
</svg>
