<svg width="54" height="54" viewBox="0 0 54 54" fill="none" xmlns="http://www.w3.org/2000/svg">
<g clip-path="url(#clip0_133_266)">
<path d="M45.9065 7.87619C40.8272 2.79715 34.0743 0 26.8916 0C19.7089 0 12.956 2.79715 7.87672 7.87619C2.79736 12.9553 0 19.7085 0 26.8916C0 34.0736 2.79736 40.8262 7.87672 45.9059C12.9563 50.9856 19.7092 53.7832 26.8916 53.7832C34.074 53.7832 40.8269 50.9856 45.9065 45.9059C50.9858 40.8262 53.7832 34.0736 53.7832 26.8916C53.7832 19.7085 50.9858 12.9553 45.9065 7.87619ZM26.8916 51.6741C13.2265 51.6741 2.1091 40.5567 2.1091 26.8916C2.1091 13.2265 13.2265 2.1091 26.8916 2.1091C40.5567 2.1091 51.6741 13.2265 51.6741 26.8916C51.6741 40.5567 40.5567 51.6741 26.8916 51.6741Z" fill="black"/>
<path d="M41.6548 19.9315H33.851V12.1276C33.851 11.5451 33.3788 11.0731 32.7965 11.0731H20.9852C20.4027 11.0731 19.9306 11.5452 19.9306 12.1276V19.9314H12.1268C11.5443 19.9314 11.0723 20.4036 11.0723 20.986V32.7973C11.0723 33.3797 11.5444 33.8518 12.1268 33.8518H19.9306V41.6556C19.9306 42.2381 20.4028 42.7102 20.9852 42.7102H32.7965C33.379 42.7102 33.851 42.238 33.851 41.6557V33.8519H41.6548C42.2373 33.8519 42.7094 33.3797 42.7094 32.7974V20.9861C42.7094 20.4037 42.2373 19.9315 41.6548 19.9315ZM40.6003 31.7426H32.7965C32.214 31.7426 31.7419 32.2148 31.7419 32.7972V40.601H22.0398V32.7973C22.0398 32.2148 21.5677 31.7427 20.9853 31.7427H13.1815V22.0406H20.9853C21.5678 22.0406 22.0398 21.5685 22.0398 20.9861V13.1822H31.7419V20.986C31.7419 21.5685 32.2141 22.0405 32.7965 22.0405H40.6003V31.7426Z" fill="black"/>
</g>
<defs>
<clipPath id="clip0_133_266">
<rect width="53.7832" height="53.7832" fill="white"/>
</clipPath>
</defs>
</svg>
