<svg width="26" height="52" viewBox="0 0 26 52" fill="none" xmlns="http://www.w3.org/2000/svg">
<path d="M0.785369 35.1617C0.785369 38.9354 1.93472 41.8567 4.23342 43.9255C6.53212 45.9943 9.53959 47.0287 13.2558 47.0287C16.9721 47.0287 19.9412 46.0518 22.1633 44.0979C24.3854 42.1248 25.4964 39.5101 25.4964 36.2536C25.4964 33.3036 24.6536 30.8995 22.9678 29.0414C21.3013 27.1641 18.5045 25.6412 14.5776 24.4727C10.6315 23.3042 7.94966 22.0304 6.53212 20.6511C5.11459 19.2528 4.40582 17.4808 4.40582 15.3354C4.40582 12.9026 5.13375 11.0062 6.58959 9.6461C8.04543 8.26688 10.1717 7.57727 12.9685 7.57727C15.861 7.57727 18.0735 8.43929 19.606 10.1633C21.1576 11.8682 21.9334 14.0903 21.9334 16.8295V17.1744H24.7493V16.8295C24.7493 13.4581 23.6766 10.6709 21.5311 8.46802C19.4048 6.2651 16.5506 5.16364 12.9685 5.16364C9.48212 5.16364 6.7141 6.10227 4.66443 7.97955C2.63391 9.85682 1.61865 12.3279 1.61865 15.3929C1.61865 18.3237 2.5094 20.6894 4.29089 22.4901C6.07238 24.2907 8.95534 25.7753 12.9398 26.9438C16.9242 28.1123 19.5485 29.4245 20.8128 30.8804C22.0771 32.3362 22.7092 34.1752 22.7092 36.3972C22.7284 38.8492 21.8951 40.8318 20.2094 42.3451C18.5428 43.8584 16.225 44.6151 13.2558 44.6151C10.2867 44.6151 7.9305 43.8201 6.18732 42.2302C4.44414 40.6211 3.57254 38.2649 3.57254 35.1617V34.8456H0.785369V35.1617ZM11.9915 51.3963H14.3764V45.9081L14.2328 45.6782V25.8232H11.9915V51.3963ZM12.0777 25.8232H14.319V0.939774H11.9341V6.37046L12.0777 6.60033V25.8232Z" fill="black"/>
</svg>
