<svg width="40" height="40" viewBox="0 0 40 40" fill="none" xmlns="http://www.w3.org/2000/svg">
<path d="M1 4.2C1 3.0799 1 2.51984 1.21799 2.09202C1.40973 1.71569 1.71569 1.40973 2.09202 1.21799C2.51984 1 3.0799 1 4.2 1H35.8C36.9201 1 37.4802 1 37.908 1.21799C38.2843 1.40973 38.5903 1.71569 38.782 2.09202C39 2.51984 39 3.0799 39 4.2V35.8C39 36.9201 39 37.4802 38.782 37.908C38.5903 38.2843 38.2843 38.5903 37.908 38.782C37.4802 39 36.9201 39 35.8 39H4.2C3.0799 39 2.51984 39 2.09202 38.782C1.71569 38.5903 1.40973 38.2843 1.21799 37.908C1 37.4802 1 36.9201 1 35.8V4.2Z" stroke="#222222" stroke-width="2" stroke-linecap="round"/>
<path d="M34.7778 39L26.3333 8.38889" stroke="#222222" stroke-width="2"/>
<path d="M39 7.33334L1 11.5556" stroke="#222222" stroke-width="2"/>
<path d="M22.1111 24.4085C22.1111 28.6903 17.6456 31.604 16.2139 32.4281C15.9417 32.5848 15.6139 32.5848 15.3417 32.4281C13.91 31.604 9.44446 28.6903 9.44446 24.4085C9.44446 20.4967 12.5132 17.8889 15.7778 17.8889C19.1556 17.8889 22.1111 20.4967 22.1111 24.4085Z" stroke="#222222" stroke-width="2"/>
</svg>
