<svg width="74" height="56" viewBox="0 0 74 56" fill="none" xmlns="http://www.w3.org/2000/svg">
<path d="M70.1982 42.5769H27.5724V41.0728H57.3606C66.5525 41.0728 73.9988 33.6265 73.9988 24.4347C73.9988 15.2429 66.5525 7.79657 57.3606 7.79657H56.6488V5.26185C58.0756 5.02355 59.1062 3.67727 58.8679 2.25053C58.71 0.981625 57.5989 0.0314941 56.3331 0.0314941H42.7837C41.357 0.0314941 40.1685 1.3004 40.1685 2.72714C40.1685 3.99295 41.1187 5.10401 42.3876 5.26185V7.79657H27.4919V5.50016C27.4919 5.02355 27.0957 4.70787 26.6996 4.70787H17.3499C16.8764 4.70787 16.5576 5.02355 16.5576 5.50016V7.87703C7.4463 7.79657 0 15.2429 0 24.4347C0 33.6265 7.4463 40.9923 16.5576 40.9923V42.5769H4.51544C2.45734 42.6574 0.792291 44.4803 0.950131 46.5384C1.0306 48.5191 2.61518 50.0263 4.51544 50.1037H5.6265C6.10002 53.669 9.42703 56.2842 12.9923 55.8107C16.0037 55.4145 18.3032 53.0376 18.6993 50.1037H30.8189C31.2955 53.7495 34.5451 56.2842 38.1878 55.8107C41.1991 55.4145 43.4955 53.115 43.8917 50.1037H56.0144C56.491 53.7495 59.7375 56.2842 63.3833 55.8107C66.3946 55.4145 68.691 53.115 69.0872 50.1037H70.1982C72.2563 50.0263 73.9214 48.2839 73.7635 46.1422C73.6831 44.1615 72.179 42.5769 70.1982 42.5769ZM41.7531 2.64667C41.7531 2.09269 42.2297 1.61608 42.7837 1.61608H56.2527C56.8067 1.61608 57.2833 2.09269 57.2833 2.64667C57.2833 3.20066 56.8067 3.67727 56.2527 3.67727H42.7837C42.2297 3.75464 41.7531 3.28113 41.7531 2.64667ZM55.0642 5.33923V7.79657H44.0526V5.33923H55.0642ZM27.4919 9.38115H57.3606C65.6797 9.38115 72.4142 16.1156 72.4142 24.4347C72.4142 32.7537 65.6797 39.4882 57.3606 39.4882H27.4919V9.38115ZM18.1422 6.21198H25.9073V7.7161H18.1422V6.21198ZM18.1422 9.38115H25.9073V12.312H18.1422V9.38115ZM18.1422 13.8966H25.9073V17.9385H18.1422V13.8966ZM18.1422 19.5231H25.9073V23.5619H18.1422V19.5231ZM18.1422 25.1465H25.9073V29.1884H18.1422V25.1465ZM18.1422 30.773H25.9073V34.8149H18.1422V30.773ZM18.1422 36.3995H25.9073V39.4077H18.1422V36.3995ZM18.1422 40.9923H25.9073V42.4995H18.1422V40.9923ZM1.58458 24.4347C1.58458 16.4313 8.63474 9.85776 16.5576 9.38115V39.4077C8.63474 39.0116 1.58458 32.4381 1.58458 24.4347ZM4.51544 48.5191C3.327 48.4417 2.37687 47.4111 2.45734 46.2227C2.53471 45.1147 3.40747 44.242 4.51544 44.1615H8.08075C6.73447 45.2726 5.78434 46.7767 5.6265 48.5191H4.51544ZM12.2 54.3034C9.42703 54.3034 7.21109 52.0844 7.21109 49.3114C7.21109 46.5384 9.42703 44.3224 12.2 44.3224C14.9731 44.3224 17.1921 46.5384 17.1921 49.3114C17.1921 52.007 14.9731 54.3034 12.2 54.3034ZM18.6993 48.5191C18.461 46.7767 17.5882 45.1921 16.242 44.1615H33.2762C31.93 45.2726 30.9798 46.7767 30.8189 48.5191H18.6993ZM37.3955 54.3034C34.6225 54.3034 32.4035 52.0844 32.4035 49.3114C32.4035 46.5384 34.6225 44.3224 37.3955 44.3224C40.1685 44.3224 42.3876 46.5384 42.3876 49.3114C42.3876 52.007 40.1685 54.3034 37.3955 54.3034ZM43.8917 48.5191C43.6565 46.7767 42.7837 45.1921 41.4374 44.1615H58.4717C57.1254 45.2726 56.2527 46.7767 56.0144 48.5191H43.8917ZM62.591 54.3034C59.818 54.3034 57.5989 52.0844 57.5989 49.3114C57.5989 46.5384 59.818 44.3224 62.591 44.3224C65.364 44.3224 67.5831 46.5384 67.5831 49.3114C67.5831 52.007 65.2836 54.3034 62.591 54.3034ZM70.1982 48.5191H69.0872C68.8489 46.7767 67.9792 45.1921 66.6329 44.1615H70.1982C71.3867 44.242 72.3368 45.2726 72.2563 46.461C72.179 47.569 71.3062 48.4417 70.1982 48.5191Z" fill="black"/>
</svg>
