<svg width="62" height="47" viewBox="0 0 62 47" fill="none" xmlns="http://www.w3.org/2000/svg">
<path d="M59.4008 12.9945H47.1863L35.7635 1.01857C34.5103 -0.295175 32.4221 -0.344703 31.1081 0.908499C31.071 0.943859 31.0352 0.980187 31.0001 1.01688C30.9649 0.980187 30.9292 0.94398 30.892 0.908499C29.5782 -0.344581 27.4898 -0.295296 26.2366 1.01857L14.8138 12.9944L5.04732 12.9945C4.54563 12.9945 8.40259 13.401 8.40259 13.9026C8.40259 14.4042 8.8091 14.8108 9.3108 14.8108H13.0813C12.0972 15.8428 11.8243 17.4492 12.4286 18.6569C11.3807 18.6569 3.83468 18.6569 2.59928 18.6569C2.1677 18.6569 1.81641 18.3057 1.81641 17.874V15.5938C1.81641 15.1621 2.16758 14.8109 2.59928 14.8109L13.0813 14.8108C13.583 14.8108 8.40259 14.4042 8.40259 13.9026C8.40259 13.401 14.8138 12.9944 5.04732 12.9945H2.59928C1.16601 12.9945 0 14.1605 0 15.5938V17.8741C0 19.3074 1.16601 20.4734 2.59928 20.4734H3.91981L8.20024 42.6309C8.66876 45.056 10.8013 46.8162 13.2713 46.8162H48.7757C51.2455 46.8162 53.3782 45.0561 53.8469 42.6309L54.1383 41.1218C54.2334 40.6293 53.9113 40.1529 53.4188 40.0578C52.9267 39.9626 52.45 40.2849 52.3549 40.7772L52.0634 42.2864C51.7597 43.8586 50.3769 44.9998 48.7758 44.9998H13.2713C11.6699 44.9998 10.2874 43.8587 9.98384 42.2866L5.76977 20.4733H56.2771L52.3549 40.7772C52.2598 41.2697 52.9264 39.9626 53.4188 40.0578C53.9155 40.1537 54.0439 41.6101 54.1383 41.1218L58.1271 20.4733H59.4007C60.834 20.4733 62 19.3073 62 17.874V15.5938C62.0001 14.1605 60.8341 12.9945 59.4008 12.9945ZM31.0001 5.56614L38.0853 12.9945H23.9147L31.0001 5.56614ZM14.3525 18.2488C13.7634 17.6869 13.7413 16.7505 14.3033 16.1614L27.5508 2.27226C28.1128 1.68314 29.0492 1.66098 29.6382 2.22285C30.2134 2.77141 30.2599 3.71025 29.6876 4.31027L16.44 18.1994C15.878 18.7886 14.9415 18.8107 14.3525 18.2488ZM18.5138 18.6569L22.1822 14.8108H39.8179L43.4863 18.6569H18.5138ZM47.6476 18.2488C47.0585 18.8107 46.1219 18.7884 45.5602 18.1995L32.3124 4.31027C31.7395 3.70965 31.7873 2.7708 32.3618 2.22285C32.9506 1.66086 33.8872 1.68314 34.4492 2.27214L47.6967 16.1613C48.2587 16.7505 48.2367 17.6869 47.6476 18.2488ZM60.1837 17.8741C60.1837 18.3058 59.8325 18.657 59.4008 18.657C58.1663 18.657 50.7768 18.657 49.5715 18.657C50.1759 17.4495 49.9956 15.9398 49.0112 14.9078L48.9188 14.8109H59.4008C59.8324 14.8109 60.1837 15.1621 60.1837 15.5938V17.8741Z" fill="black"/>
<path d="M18.3576 25.0423C16.8737 25.3035 15.8842 26.7154 16.1453 28.1997L18.0551 39.0459C18.3166 40.5317 19.7268 41.5198 21.2125 41.2581C22.6962 40.9969 23.6856 39.5846 23.4245 38.1007L21.5148 27.2544C21.2539 25.7715 19.8416 24.7811 18.3576 25.0423ZM20.8975 39.4692C20.4008 39.5567 19.9312 39.2275 19.844 38.7311L17.9343 27.8848C17.847 27.3899 18.177 26.9184 18.6724 26.8312C19.1655 26.7441 19.6389 27.0733 19.7259 27.5693L21.6356 38.4157C21.7228 38.9104 21.3929 39.382 20.8975 39.4692Z" fill="black"/>
<path d="M28.2734 27.727V38.5733C28.2734 40.0765 29.4964 41.2994 30.9995 41.2994C32.5026 41.2994 33.7256 40.0765 33.7256 38.5733V27.727C33.7256 26.2239 32.5026 25.001 30.9995 25.001C29.4964 25.001 28.2734 26.2239 28.2734 27.727ZM31.9092 27.727V38.5733C31.9092 39.0749 31.5011 39.483 30.9995 39.483C30.4979 39.483 30.0898 39.0749 30.0898 38.5733V27.727C30.0898 27.2255 30.4979 26.8174 30.9995 26.8174C31.5011 26.8174 31.9092 27.2255 31.9092 27.727Z" fill="black"/>
<path d="M43.6428 25.0422C42.1638 24.782 40.7461 25.7742 40.4856 27.2543L38.576 38.1007C38.3149 39.5842 39.3036 40.9968 40.7884 41.2582C42.2772 41.52 43.6845 40.5289 43.9454 39.0461L45.8552 28.1998C46.1163 26.7158 45.1273 25.3036 43.6428 25.0422ZM44.0661 27.8848L42.1564 38.7311C42.0693 39.2264 41.6009 39.5567 41.103 39.4693C40.6079 39.3821 40.2776 38.9109 40.3649 38.4157L42.2746 27.5693C42.361 27.0779 42.831 26.7443 43.3281 26.8312C43.8232 26.9184 44.1536 27.3894 44.0661 27.8848Z" fill="black"/>
</svg>
