<?xml version="1.0" encoding="UTF-8"?>
<svg xmlns="http://www.w3.org/2000/svg" xmlns:xlink="http://www.w3.org/1999/xlink" width="px" height="38px" viewBox="0 0 38 38" version="1.1">
<g id="surface1">
<path style="fill:none;stroke-width:2;stroke-linecap:butt;stroke-linejoin:miter;stroke:rgb(13.333333%,13.333333%,13.333333%);stroke-opacity:1;stroke-miterlimit:4;" d="M 12 21.999178 C 16.337171 21.999178 20.000822 18.752467 20.000822 14.570724 C 20.000822 12 18.695724 9.45148 17.284539 7.42352 C 15.853618 5.368421 14.208059 3.698191 13.322368 2.854441 C 12.577303 2.148849 11.422697 2.148849 10.677632 2.854441 C 9.791941 3.698191 8.146382 5.368421 6.715461 7.42352 C 5.304276 9.45148 3.999178 12 3.999178 14.570724 C 3.999178 18.752467 7.662829 21.999178 12 21.999178 Z M 12 21.999178 " transform="matrix(1.583333,0,0,1.583333,0,0)"/>
<path style="fill:none;stroke-width:2;stroke-linecap:round;stroke-linejoin:miter;stroke:rgb(13.333333%,13.333333%,13.333333%);stroke-opacity:1;stroke-miterlimit:4;" d="M 12 18 C 11.474507 18 10.953947 17.896382 10.470395 17.696546 C 9.984375 17.494243 9.542763 17.200658 9.172697 16.828125 C 8.800164 16.458059 8.506579 16.016447 8.304276 15.530428 C 8.104441 15.044408 8.000822 14.526316 8.000822 14.000822 " transform="matrix(1.583333,0,0,1.583333,0,0)"/>
</g>
</svg>
