<svg width="70" height="69" viewBox="0 0 70 69" fill="none" xmlns="http://www.w3.org/2000/svg">
<path d="M61.5995 63.3213C59.0534 63.342 9.35273 63.3972 7.65533 63.4041C4.64003 63.411 4.61933 63.3627 5.76473 61.0512C5.86133 60.858 32.6954 6.49981 32.8955 6.09271C33.9443 3.93991 35.1173 3.86401 36.1592 5.96161C37.967 9.60481 63.2348 60.0921 63.635 60.8925C64.739 63.1143 64.6976 63.3006 61.5995 63.3213ZM7.95203 61.3203C10.3532 61.3203 59.4743 61.2444 61.3925 61.2444C61.0751 60.5889 35.0966 8.49391 34.5653 7.41061C33.9926 8.56291 9.29753 58.5534 7.95203 61.3203Z" fill="black"/>
<path d="M15.0311 58.6845C11.9606 58.7052 11.864 58.6845 12.968 56.4558C14.5205 53.3163 32.7641 16.2909 33.6335 14.5314C34.1165 13.5516 35.0066 13.5171 35.531 14.5728C37.9391 19.4166 56.2379 55.9935 56.4035 56.3247C57.4799 58.4775 57.473 58.512 54.4715 58.5258C54.2093 58.5258 15.2381 58.6845 15.0311 58.6845ZM54.1472 56.4489C53.471 55.0827 35.4551 19.0854 34.5788 17.319C34.082 18.3195 15.6245 55.7313 15.2036 56.6145C29.8454 56.6214 39.5261 56.4489 54.1472 56.4489Z" fill="black"/>
<path d="M30.9633 36.0663C30.5838 32.7957 31.1979 29.4078 34.7169 29.4009C38.4705 29.394 38.643 33.5961 38.4084 35.8662C38.1393 38.4261 37.1802 42.2625 36.5592 44.3187C36.4005 44.8569 35.9037 46.7544 34.7514 46.7613C33.2955 46.7613 32.7711 44.7051 32.6124 44.0979C32.1156 42.1935 31.1496 37.7016 30.9633 36.0663ZM34.6203 44.3394C35.8968 40.7445 36.78 37.1703 36.7593 35.0313C36.7455 33.5685 36.2625 31.4985 34.7583 31.5606C32.7159 31.6434 32.8746 34.1481 32.9367 35.4867C33.0126 37.1565 33.6405 40.9446 34.6203 44.3394Z" fill="black"/>
<path d="M37.574 50.5287C37.6085 52.0329 36.4562 53.406 34.7519 53.406C32.9993 53.406 31.916 51.9087 31.916 50.5287C31.916 49.0383 33.227 47.748 34.6967 47.748C36.3941 47.748 37.5395 49.0176 37.574 50.5287ZM35.7041 51.3222C36.1319 50.7633 36.0215 50.0181 35.5109 49.6317C34.952 49.2108 34.2275 49.2798 33.7928 49.8249C33.3512 50.3838 33.5444 51.1566 33.9515 51.4947C34.607 52.026 35.3729 51.75 35.7041 51.3222Z" fill="black"/>
</svg>
