<svg width="56" height="56" viewBox="0 0 56 56" fill="none" xmlns="http://www.w3.org/2000/svg">
<g clip-path="url(#clip0_130_149)">
<path d="M53.375 25.375H49.4524C49.0061 23.3319 48.0462 21.4393 46.6445 19.8643C46.0084 19.1494 45.2655 18.5728 44.4701 18.158C46.0653 17.0511 47.1135 15.2093 47.1135 13.125V12.25H42.7385C40.509 12.25 38.5604 13.4514 37.4885 15.2364V13.125C37.4885 11.1948 39.0583 9.625 40.9885 9.625V7.875C38.0931 7.875 35.7385 10.2296 35.7385 13.125V17.9804C33.1494 17.0424 30.2382 17.7441 28.378 19.8126C28.1531 20.0629 27.9422 20.3228 27.7401 20.5888L27.8162 20.2239C27.9379 19.6376 28 19.0365 28 18.375C28 15.9171 26.978 13.6964 25.3409 12.1056L28.4086 7.59063C28.4742 7.4935 28.5338 7.39113 28.5889 7.28175C29.2565 5.94562 28.7131 4.31463 27.377 3.647L27.1583 3.53763C26.5116 3.21388 25.7775 3.16138 25.0906 3.39063C24.4037 3.61988 23.8472 4.102 23.5165 4.76175C23.4692 4.85538 23.4281 4.9525 23.3931 5.04963L21.609 9.95662C21.4882 9.9225 21.3657 9.891 21.2432 9.86213L21.861 3.67675C21.8706 3.591 21.875 3.5035 21.875 3.41688C21.875 2.01513 20.734 0.875 19.3331 0.875H19.1677C17.766 0.875 16.625 2.01513 16.625 3.41688C16.625 3.50438 16.6294 3.591 16.6381 3.67063L17.2568 9.86388C17.1334 9.89275 17.0118 9.92425 16.891 9.95837L15.1078 5.05225C15.0719 4.95338 15.0308 4.85625 14.9774 4.7495C14.6536 4.102 14.0971 3.61988 13.4102 3.39063C12.7242 3.16138 11.9901 3.21388 11.3426 3.53763L11.1239 3.647C9.78863 4.3155 9.24525 5.94563 9.91375 7.28525C9.968 7.39113 10.0266 7.49263 10.094 7.59238L13.1635 12.11C11.5237 13.7095 10.5 15.9469 10.5 18.438C10.5 19.0365 10.5621 19.6376 10.6846 20.223L11.7582 25.375H10.5C9.53487 25.375 8.75 26.1599 8.75 27.125V27.195C8.463 27.1539 8.1725 27.125 7.875 27.125H3.5V28C3.5 30.0843 4.54825 31.9261 6.14337 33.033C5.34713 33.4478 4.60425 34.0244 3.969 34.7401C1.974 36.9819 0.875 39.8711 0.875 42.875C0.875 46.2368 2.20938 49.3719 4.63225 51.7038C6.937 53.921 9.93475 55.1259 13.1198 55.1259C13.2834 55.1259 13.4461 55.1224 13.6106 55.1163C16.7248 54.9964 19.5571 53.6813 21.6632 51.6259H47.25C49.6624 51.6259 51.625 49.6633 51.625 47.2509V30.625H53.375C54.3401 30.625 55.125 29.8401 55.125 28.875V27.125C55.125 26.1599 54.3401 25.375 53.375 25.375ZM42.7385 14H45.2751C44.8683 15.9941 43.1016 17.5 40.9885 17.5H38.4519C38.8579 15.5059 40.6254 14 42.7385 14ZM29.6782 20.9825C31.1036 19.3988 33.4618 18.8764 35.413 19.7111C35.518 19.7558 35.6291 19.7908 35.7385 19.8284V21.6965C34.8696 21.3728 34.0445 20.6911 33.7313 20.3796L32.4949 21.6186C32.6996 21.8243 34.5599 23.625 36.6135 23.625C38.6671 23.625 40.5274 21.8243 40.7321 21.6186L39.4958 20.3796C39.1825 20.6903 38.3574 21.3719 37.4885 21.6965V19.25H40.9885C41.2851 19.25 41.5739 19.222 41.8591 19.1809C43.085 19.2684 44.3817 19.9544 45.3372 21.0271C46.4529 22.2801 47.2378 23.7685 47.6516 25.375H27.3254C27.7436 23.7493 28.5425 22.2451 29.6782 20.9825ZM25.0381 5.64638C25.0504 5.61313 25.0635 5.58075 25.0889 5.53175C25.2035 5.3025 25.3995 5.13188 25.6436 5.0505C25.8886 4.96913 26.1467 4.98838 26.376 5.103L26.5947 5.21238C27.0681 5.44863 27.2606 6.02612 27.0252 6.496C27.006 6.53538 26.9824 6.57475 26.9596 6.60888L23.9654 11.0154C23.73 10.864 23.4876 10.724 23.2383 10.5954L25.0381 5.64638ZM18.375 3.41688C18.375 2.98025 18.7303 2.625 19.1669 2.625H19.3323C19.7689 2.625 20.1241 2.98025 20.1197 3.49563L19.5055 9.63813C19.4206 9.6355 19.3366 9.625 19.25 9.625C19.1634 9.625 19.0794 9.6355 18.9936 9.63813L18.375 3.41688ZM11.5421 6.6115C11.5176 6.57475 11.494 6.53625 11.4765 6.4995C11.2394 6.02613 11.4319 5.44863 11.9052 5.21238L12.124 5.103C12.3524 4.98925 12.6122 4.96913 12.8564 5.0505C13.0996 5.13188 13.2965 5.3025 13.4199 5.54838C13.4365 5.57988 13.4496 5.61225 13.4627 5.64725L15.2626 10.5971C15.0133 10.7258 14.7709 10.8658 14.5364 11.0171L11.5421 6.6115ZM19.25 11.375C23.1096 11.375 26.25 14.5154 26.25 18.438C26.25 18.9166 26.2001 19.397 26.103 19.866L24.955 25.375H15.2092C15.8244 24.8369 16.6198 24.5 17.5 24.5V22.75C15.8462 22.75 14.371 23.52 13.4076 24.7188L12.3961 19.866C12.2999 19.397 12.25 18.9166 12.25 18.375C12.25 14.5154 15.3904 11.375 19.25 11.375ZM10.5 27.125H12.3288C12.2806 27.4103 12.25 27.7016 12.25 28V28.9721C11.7478 28.4585 11.1554 28.0376 10.5 27.7253V27.125ZM7.875 28.875C9.98812 28.875 11.7556 30.3809 12.1616 32.375H9.625C7.51188 32.375 5.74437 30.8691 5.33838 28.875H7.875ZM13.5433 53.3671C10.64 53.4713 7.92225 52.4396 5.84588 50.442C3.7695 48.4435 2.625 45.7564 2.625 42.875C2.625 40.2999 3.5665 37.8245 5.27537 35.9021C6.23088 34.8285 7.52763 34.1425 8.75437 34.0559C9.03963 34.097 9.32837 34.125 9.625 34.125H12.25V36.5715C11.3811 36.2478 10.556 35.5661 10.2428 35.2546L9.00638 36.4936C9.21113 36.6993 11.0714 38.5 13.125 38.5C15.1786 38.5 17.0389 36.6993 17.2436 36.4936L16.0073 35.2546C15.694 35.5653 14.8689 36.2469 14 36.5715V34.9239C14.4191 34.8565 14.8251 34.7471 15.2005 34.5861C17.1509 33.7496 19.5099 34.2746 20.9344 35.8575C22.785 37.9146 23.737 40.5764 23.6145 43.3519C23.3756 48.7594 18.9508 53.158 13.5433 53.3671ZM25.361 42.875C25.361 41.0358 24.9681 39.2499 24.1955 37.625H49.875V42.875H25.361ZM47.25 49.875H23.1551C24.2331 48.3403 24.9699 46.5526 25.249 44.625H49.875V47.25C49.875 48.6973 48.6973 49.875 47.25 49.875ZM53.375 28.875H49.875V35.875H23.1656C22.8786 35.4646 22.575 35.0648 22.2355 34.6876C20.2869 32.522 17.1815 31.836 14.5128 32.9779C14.3526 33.0461 14.1767 33.0908 14.0009 33.1345V30.625H49.875V28.875H14V28C14 27.6964 14.0507 27.4068 14.1243 27.125H53.375V28.875Z" fill="black"/>
</g>
<defs>
<clipPath id="clip0_130_149">
<rect width="56" height="56" fill="white"/>
</clipPath>
</defs>
</svg>
