<svg width="44" height="44" viewBox="0 0 44 44" fill="none" xmlns="http://www.w3.org/2000/svg">
<path d="M9.16669 23.3926C9.16669 20.9034 9.16669 19.6588 9.66987 18.5648C10.173 17.4707 11.118 16.6608 13.008 15.0408L14.8413 13.4694C18.2574 10.5413 19.9654 9.07727 22 9.07727C24.0346 9.07727 25.7426 10.5413 29.1587 13.4694L30.9921 15.0408C32.882 16.6608 33.827 17.4707 34.3302 18.5648C34.8334 19.6588 34.8334 20.9034 34.8334 23.3926V31.1667C34.8334 34.6236 34.8334 36.3521 33.7594 37.4261C32.6855 38.5 30.957 38.5 27.5 38.5H16.5C13.0431 38.5 11.3146 38.5 10.2406 37.4261C9.16669 36.3521 9.16669 34.6236 9.16669 31.1667V23.3926Z" stroke="#222222" stroke-width="2"/>
<path d="M26.5834 38.5V28.5C26.5834 27.9477 26.1356 27.5 25.5834 27.5H18.4167C17.8644 27.5 17.4167 27.9477 17.4167 28.5V38.5" stroke="#222222" stroke-width="2" stroke-linecap="round" stroke-linejoin="round"/>
</svg>
