<svg width="71" height="71" viewBox="0 0 71 71" fill="none" xmlns="http://www.w3.org/2000/svg">
<path d="M21.9535 42.0419L21.9534 42.042L15.5932 47.4585C15.256 47.7456 15.2152 48.252 15.5027 48.5893C15.6614 48.7759 15.8872 48.8714 16.1137 48.8714C16.2975 48.8714 16.4825 48.8083 16.6335 48.6799L16.6336 48.6799L22.9937 43.2634C22.9937 43.2633 22.9938 43.2633 22.9938 43.2633C23.331 42.9762 23.3718 42.4697 23.0842 42.1325C22.7966 41.7944 22.2909 41.755 21.9535 42.0419Z" fill="black" stroke="black" stroke-width="0.184416"/>
<path d="M25.1429 45.8107L25.1429 45.8108L18.7827 51.2273C18.4454 51.5144 18.4047 52.0208 18.6921 52.3581C18.8508 52.5447 19.0767 52.6402 19.3032 52.6402C19.4869 52.6402 19.6719 52.5771 19.8229 52.4487L19.823 52.4487L26.1832 47.0321C26.1832 47.0321 26.1832 47.0321 26.1832 47.0321C26.5204 46.745 26.5612 46.2386 26.2737 45.9013C25.9858 45.5632 25.4804 45.5238 25.1429 45.8107Z" fill="black" stroke="black" stroke-width="0.184416"/>
<path d="M23.0105 56.2175L23.0104 56.2175C22.8594 56.3458 22.6748 56.409 22.4907 56.409C22.2642 56.409 22.0384 56.3135 21.8797 56.127C21.5922 55.7897 21.6329 55.2832 21.9702 54.9961L23.0105 56.2175ZM23.0105 56.2175L29.3707 50.8006C29.3707 50.8006 29.3707 50.8006 29.3707 50.8006C29.708 50.5135 29.7487 50.007 29.4612 49.6697C29.1733 49.3318 28.6676 49.2918 28.3304 49.5792C28.3303 49.5793 28.3303 49.5793 28.3303 49.5793L21.9702 54.9961L23.0105 56.2175Z" fill="black" stroke="black" stroke-width="0.184416"/>
<path d="M17.1106 36.985L11.0882 29.8671L11.1586 29.8075L11.0882 29.8671C9.75158 28.287 9.94521 25.9104 11.52 24.5687C12.2832 23.9185 13.2549 23.603 14.2526 23.6865C15.2519 23.7683 16.16 24.2354 16.8085 25.0019L22.8619 32.1565L26.1231 29.4186C25.8035 23.0154 28.3438 16.5361 33.5814 12.0754C37.9075 8.39096 43.4023 6.61505 49.0627 7.07848C54.7232 7.54122 59.8649 10.1887 63.5399 14.5322C63.8262 14.8706 63.7839 15.3767 63.4458 15.6627C63.107 15.9497 62.6016 15.9074 62.3153 15.5686C58.9174 11.5526 54.1645 9.10531 48.9319 8.67778C43.7042 8.25024 38.6218 9.89052 34.6217 13.2967C26.3606 20.3326 25.3446 32.8001 32.3574 41.0886C35.9695 45.3576 41.2431 47.8907 46.8257 48.0384C47.2687 48.0502 47.6181 48.4183 47.6064 48.8614C47.6064 48.8614 47.6064 48.8614 47.6064 48.8614L47.5142 48.859C47.5042 49.2445 47.1884 49.5502 46.8049 49.5502C46.7987 49.5502 46.7921 49.5502 46.7859 49.5499L17.1106 36.985ZM17.1106 36.985L10.2125 42.7762L10.212 42.7766C7.5902 45.0093 7.26797 48.9654 9.4935 51.5959L9.92919 52.1109L8.11219 53.6582L8.17186 53.7283L8.11218 53.6582C6.79665 54.7791 6.63494 56.7646 7.75178 58.0851L7.82218 58.0255L7.75178 58.0851L11.4474 62.4532L11.4474 62.4533C11.9895 63.0935 12.7481 63.4841 13.583 63.5527L13.5834 63.5527C13.6699 63.5595 13.7565 63.563 13.843 63.563C14.5847 63.563 15.2954 63.3021 15.867 62.8154L15.8073 62.7452L15.867 62.8154L17.6799 61.2716L18.1123 61.7828C19.1914 63.0581 20.7012 63.8356 22.3638 63.9715L22.3638 63.9715C22.5368 63.9855 22.7092 63.9926 22.8809 63.9926C24.3575 63.9926 25.7717 63.4737 26.9064 62.5076L42.8145 49.1522C44.1099 49.4361 45.4366 49.6064 46.7821 49.642L17.1106 36.985ZM12.5604 25.79L12.5006 25.7198L12.5604 25.79C12.9972 25.4178 13.5487 25.2373 14.1219 25.2858L14.1222 25.2858C14.6936 25.3324 15.2125 25.5994 15.584 26.0384L21.6332 33.188L18.3393 35.9534L12.3131 28.8307C11.5461 27.924 11.6572 26.5596 12.5604 25.79ZM8.97664 57.0486L8.91233 57.1031L8.97663 57.0486C8.42907 56.4016 8.50831 55.4286 9.15257 54.8796L10.9655 53.3357L16.6436 60.0468L14.8267 61.594C14.8267 61.594 14.8267 61.5941 14.8267 61.5941C14.5154 61.8589 14.1156 61.9861 13.7139 61.9534C13.3068 61.92 12.9373 61.7299 12.6722 61.4168L8.97664 57.0486ZM25.8703 61.2823L25.8698 61.2828C24.9259 62.0869 23.7268 62.4762 22.4948 62.3725L22.4946 62.3725C21.2599 62.2715 20.1388 61.6942 19.3368 60.7463L10.718 50.5595C9.06242 48.6024 9.30226 45.6588 11.2486 44.0015L26.3104 31.3566C26.8546 35.2048 28.4456 38.9489 31.1329 42.125C33.7395 45.2059 37.1476 47.4471 40.9201 48.6474L25.8703 61.2823Z" fill="black" stroke="black" stroke-width="0.184416"/>
<path d="M57.2757 14.9017L57.2758 14.9017C57.6341 15.1563 57.7215 15.6518 57.4708 16.0133C56.8356 16.9295 56.929 18.1851 57.6928 18.998C58.4554 19.809 59.6955 19.975 60.6409 19.3944C61.0172 19.1628 61.5087 19.2802 61.742 19.6548L61.742 19.6549C62.8684 21.4681 63.6215 23.4512 63.9799 25.5487C64.054 25.9826 63.7645 26.3955 63.3309 26.4734L63.3146 26.3827L63.3309 26.4734C62.2377 26.6698 61.4194 27.6233 61.387 28.74C61.3546 29.856 62.1153 30.8556 63.1945 31.1164C63.6222 31.2198 63.887 31.6486 63.7875 32.0772C63.7875 32.0772 63.7875 32.0773 63.7875 32.0773L63.6977 32.0564C63.2193 34.1223 62.3588 36.0474 61.1395 37.778C60.9152 38.0977 60.4739 38.1767 60.1529 37.9514L57.2757 14.9017ZM57.2757 14.9017C55.5409 13.6717 53.6107 12.8032 51.5387 12.3199L51.5382 12.3198M57.2757 14.9017L51.5382 12.3198M60.0999 38.0268C59.1888 37.391 57.9401 37.485 57.1326 38.2496L57.1326 38.2496C56.3231 39.0156 56.1565 40.2633 56.7367 41.2148L56.658 41.2629L56.7367 41.2149C56.9655 41.5901 56.8496 42.0797 56.4771 42.3124C56.477 42.3124 56.477 42.3124 56.477 42.3125L56.4282 42.2343C54.6303 43.3585 52.6643 44.1098 50.5852 44.4672L60.0999 38.0268ZM60.0999 38.0268C60.4628 38.2816 60.9616 38.1921 61.215 37.831L60.0999 38.0268ZM51.5382 12.3198C51.1098 12.2225 50.6795 12.4847 50.5767 12.9138C50.3163 13.9982 49.3359 14.7607 48.2107 14.7284C47.0994 14.6957 46.1501 13.8747 45.9539 12.7766C45.8767 12.3429 45.463 12.0509 45.0283 12.1272C42.9377 12.4863 40.9604 13.2419 39.1517 14.3725L39.1517 14.3725M51.5382 12.3198L39.1517 14.3725M39.1517 14.3725C38.7792 14.6055 38.6633 15.0951 38.892 15.4704L39.1517 14.3725ZM35.8454 27.9919C35.8922 26.3997 34.9739 24.9491 33.5808 24.2829C33.9713 22.8961 34.5573 21.5851 35.3289 20.3706C36.7522 20.9714 38.4436 20.6952 39.5989 19.601C40.755 18.5077 41.1277 16.8301 40.612 15.3717C41.8667 14.6675 43.2034 14.156 44.6014 13.8458C45.1826 15.2802 46.5737 16.2853 48.1637 16.332L48.1644 16.332C49.749 16.3676 51.1988 15.4574 51.8638 14.0607C53.2451 14.4528 54.5505 15.0404 55.7595 15.8143C55.1592 17.24 55.4335 18.9368 56.5239 20.0971L56.5911 20.0339L56.5239 20.0971C57.6136 21.2562 59.2854 21.6316 60.7405 21.1154C61.4431 22.375 61.953 23.7175 62.2621 25.1221C60.8316 25.7052 59.8294 27.0998 59.7834 28.6937C59.737 30.2856 60.6556 31.7361 62.0483 32.4023C61.6575 33.7895 61.0715 35.1001 60.2999 36.3146C58.8779 35.7145 57.1859 35.9904 56.0296 37.0842L56.0295 37.0843C54.8742 38.1779 54.501 39.8551 55.0168 41.3136C53.7624 42.0178 52.4257 42.5293 51.0274 42.8394C50.4462 41.405 49.0551 40.4 47.465 40.3532L47.4649 40.3532C47.4269 40.3522 47.3889 40.3514 47.3504 40.3514C45.807 40.3514 44.4134 41.262 43.765 42.6248C42.384 42.2327 41.0786 41.6448 39.8696 40.8709C40.4699 39.4449 40.1953 37.7484 39.1049 36.5885L39.0377 36.6517L39.1048 36.5885C38.0149 35.4294 36.3418 35.054 34.8883 35.5698C34.1857 34.3099 33.6758 32.9674 33.3666 31.5635C34.7972 30.9804 35.7993 29.5858 35.8454 27.9919ZM35.8454 27.9919L35.7532 27.9892L35.8454 27.9918C35.8454 27.9919 35.8454 27.9919 35.8454 27.9919Z" fill="black" stroke="black" stroke-width="0.184416"/>
<path d="M47.8158 23.7662C45.2923 23.7662 43.2393 25.8193 43.2393 28.3428C43.2393 30.8662 45.2923 32.9189 47.8158 32.9189C50.3393 32.9189 52.3919 30.8662 52.3919 28.3428C52.3919 25.8193 50.3393 23.7662 47.8158 23.7662ZM47.8158 31.4989C46.0751 31.4989 44.6593 30.0831 44.6593 28.3428C44.6593 26.6021 46.0751 25.1862 47.8158 25.1862C49.5561 25.1862 50.9719 26.6021 50.9719 28.3428C50.9719 30.0831 49.5561 31.4989 47.8158 31.4989Z" fill="black"/>
</svg>
