<svg width="35" height="35" viewBox="0 0 35 35" fill="none" xmlns="http://www.w3.org/2000/svg">
<path d="M13.2206 30.4179L17.4274 21.3032C17.4505 21.2531 17.462 21.228 17.478 21.2202C17.4919 21.2134 17.5081 21.2134 17.522 21.2202C17.538 21.228 17.5495 21.2531 17.5726 21.3032L21.7794 30.4179C21.8087 30.4814 21.8234 30.5132 21.8175 30.5317C21.8124 30.5477 21.7997 30.56 21.7835 30.5646C21.7649 30.5699 21.7336 30.5543 21.671 30.523L17.5358 28.4554C17.5227 28.4488 17.5161 28.4455 17.5092 28.4442C17.5031 28.4431 17.4969 28.4431 17.4908 28.4442C17.4839 28.4455 17.4773 28.4488 17.4642 28.4554L13.329 30.523C13.2664 30.5543 13.2351 30.5699 13.2165 30.5646C13.2003 30.56 13.1876 30.5477 13.1825 30.5317C13.1766 30.5132 13.1913 30.4814 13.2206 30.4179Z" stroke="#222222" stroke-width="2" stroke-linecap="round"/>
<path d="M5.83334 26.25L10.2083 5.83331" stroke="#222222" stroke-width="2" stroke-linecap="round"/>
<path d="M29.1667 26.25L24.7917 5.83331" stroke="#222222" stroke-width="2" stroke-linecap="round"/>
<path d="M17.5 16.0417L17.5 13.125" stroke="#222222" stroke-width="2" stroke-linecap="round"/>
<path d="M17.5 8.74998L17.5 5.83331" stroke="#222222" stroke-width="2" stroke-linecap="round"/>
</svg>
