<?xml version="1.0" encoding="UTF-8"?>
<svg xmlns="http://www.w3.org/2000/svg" xmlns:xlink="http://www.w3.org/1999/xlink" width="38px" height="38px" viewBox="0 0 38 38" version="1.1">
<g id="surface1">
<path style=" stroke:none;fill-rule:evenodd;fill:rgb(13.333333%,13.333333%,13.333333%);fill-opacity:1;" d="M 22.140625 4.023438 C 22.277344 4.292969 22.3125 4.636719 22.382812 5.324219 C 22.511719 6.621094 22.578125 7.273438 22.847656 7.628906 C 23.195312 8.082031 23.753906 8.3125 24.320312 8.238281 C 24.761719 8.175781 25.269531 7.765625 26.28125 6.9375 C 26.8125 6.5 27.082031 6.28125 27.367188 6.191406 C 27.734375 6.074219 28.128906 6.09375 28.480469 6.246094 C 28.757812 6.363281 29 6.609375 29.488281 7.097656 L 30.902344 8.511719 C 31.390625 9 31.636719 9.242188 31.753906 9.519531 C 31.90625 9.871094 31.925781 10.265625 31.808594 10.632812 C 31.71875 10.917969 31.5 11.1875 31.0625 11.71875 C 30.234375 12.730469 29.824219 13.238281 29.761719 13.679688 C 29.6875 14.246094 29.917969 14.804688 30.371094 15.152344 C 30.726562 15.421875 31.378906 15.488281 32.675781 15.617188 C 33.363281 15.6875 33.707031 15.722656 33.976562 15.859375 C 34.316406 16.035156 34.582031 16.328125 34.722656 16.683594 C 34.832031 16.964844 34.832031 17.308594 34.832031 18 L 34.832031 20 C 34.832031 20.691406 34.832031 21.035156 34.722656 21.316406 C 34.582031 21.671875 34.316406 21.964844 33.976562 22.140625 C 33.707031 22.277344 33.363281 22.3125 32.679688 22.382812 C 31.378906 22.511719 30.730469 22.578125 30.371094 22.847656 C 29.917969 23.195312 29.6875 23.753906 29.761719 24.320312 C 29.824219 24.761719 30.238281 25.269531 31.0625 26.28125 C 31.5 26.8125 31.71875 27.082031 31.808594 27.367188 C 31.925781 27.734375 31.90625 28.128906 31.753906 28.480469 C 31.636719 28.757812 31.390625 29 30.902344 29.488281 L 29.488281 30.902344 C 29 31.390625 28.757812 31.632812 28.480469 31.753906 C 28.128906 31.90625 27.734375 31.925781 27.367188 31.808594 C 27.082031 31.71875 26.8125 31.5 26.28125 31.0625 C 25.269531 30.234375 24.761719 29.820312 24.320312 29.761719 C 23.753906 29.6875 23.195312 29.917969 22.847656 30.371094 C 22.578125 30.726562 22.511719 31.378906 22.382812 32.675781 C 22.3125 33.363281 22.277344 33.707031 22.140625 33.976562 C 21.964844 34.316406 21.671875 34.582031 21.316406 34.722656 C 21.035156 34.832031 20.691406 34.832031 20 34.832031 L 18 34.832031 C 17.308594 34.832031 16.964844 34.832031 16.683594 34.722656 C 16.328125 34.582031 16.035156 34.316406 15.859375 33.976562 C 15.722656 33.707031 15.6875 33.363281 15.617188 32.675781 C 15.488281 31.378906 15.421875 30.726562 15.152344 30.371094 C 14.804688 29.917969 14.246094 29.6875 13.679688 29.761719 C 13.238281 29.824219 12.730469 30.234375 11.71875 31.0625 C 11.1875 31.5 10.917969 31.71875 10.632812 31.808594 C 10.265625 31.925781 9.871094 31.90625 9.519531 31.753906 C 9.242188 31.636719 9 31.390625 8.511719 30.902344 L 7.097656 29.488281 C 6.609375 29 6.363281 28.757812 6.246094 28.480469 C 6.09375 28.128906 6.074219 27.734375 6.191406 27.367188 C 6.28125 27.082031 6.5 26.8125 6.9375 26.28125 C 7.765625 25.269531 8.175781 24.761719 8.238281 24.320312 C 8.3125 23.753906 8.082031 23.195312 7.628906 22.847656 C 7.273438 22.578125 6.621094 22.511719 5.320312 22.382812 C 4.636719 22.3125 4.292969 22.277344 4.023438 22.140625 C 3.683594 21.964844 3.417969 21.671875 3.277344 21.316406 C 3.167969 21.035156 3.167969 20.691406 3.167969 20 L 3.167969 18 C 3.167969 17.308594 3.167969 16.964844 3.277344 16.683594 C 3.417969 16.328125 3.683594 16.035156 4.023438 15.859375 C 4.292969 15.722656 4.636719 15.6875 5.324219 15.617188 C 6.621094 15.488281 7.273438 15.421875 7.628906 15.152344 C 8.082031 14.804688 8.3125 14.246094 8.238281 13.679688 C 8.179688 13.238281 7.765625 12.730469 6.9375 11.71875 C 6.5 11.183594 6.28125 10.917969 6.191406 10.628906 C 6.074219 10.265625 6.09375 9.871094 6.246094 9.519531 C 6.363281 9.242188 6.609375 9 7.097656 8.511719 L 8.511719 7.097656 C 9 6.609375 9.242188 6.363281 9.519531 6.246094 C 9.871094 6.09375 10.265625 6.070312 10.632812 6.1875 C 10.917969 6.28125 11.1875 6.5 11.71875 6.9375 C 12.730469 7.761719 13.238281 8.175781 13.679688 8.238281 C 14.246094 8.3125 14.804688 8.078125 15.152344 7.628906 C 15.421875 7.269531 15.488281 6.621094 15.617188 5.320312 C 15.6875 4.636719 15.722656 4.292969 15.859375 4.023438 C 16.035156 3.683594 16.328125 3.417969 16.683594 3.277344 C 16.964844 3.167969 17.308594 3.167969 18 3.167969 L 20 3.167969 C 20.691406 3.167969 21.035156 3.167969 21.316406 3.277344 C 21.671875 3.417969 21.964844 3.683594 22.140625 4.023438 Z M 19 25.332031 C 22.496094 25.332031 25.332031 22.496094 25.332031 19 C 25.332031 15.503906 22.496094 12.667969 19 12.667969 C 15.503906 12.667969 12.667969 15.503906 12.667969 19 C 12.667969 22.496094 15.503906 25.332031 19 25.332031 Z M 19 25.332031 "/>
</g>
</svg>
