<svg width="56" height="55" viewBox="0 0 56 55" fill="none" xmlns="http://www.w3.org/2000/svg">
<g clip-path="url(#clip0_130_179)">
<path d="M28.0004 47.826C27.3404 47.826 26.8047 48.3617 26.8047 49.0217C26.8047 49.6817 27.3404 50.2173 28.0004 50.2173C28.6604 50.2173 29.1961 49.6816 29.1961 49.0216C29.1961 48.3616 28.6604 47.826 28.0004 47.826Z" fill="black"/>
<path d="M28.0004 7.17392C28.6604 7.17392 29.1961 6.63834 29.1961 5.97834C29.1961 5.31834 28.6604 4.78265 28.0004 4.78265C27.3404 4.78265 26.8047 5.31834 26.8047 5.97834C26.8047 6.63834 27.3404 7.17392 28.0004 7.17392Z" fill="black"/>
<path d="M6.47889 26.3044C5.81889 26.3044 5.2832 26.8401 5.2832 27.5001C5.2832 28.1601 5.81889 28.6956 6.47889 28.6956C7.13889 28.6956 7.67458 28.1601 7.67458 27.5001C7.67458 26.8401 7.139 26.3044 6.47889 26.3044Z" fill="black"/>
<path d="M27.9999 0C12.8368 0 0.5 12.3367 0.5 27.5001C0.5 42.6635 12.8367 55 27.9999 55C43.1632 55 55.4999 42.6633 55.4999 27.5001C55.4999 12.3368 43.1633 0 27.9999 0ZM27.9999 52.6086C14.1543 52.6086 2.89127 41.3456 2.89127 27.4999C2.89127 13.6543 14.1543 2.39127 27.9999 2.39127C41.8456 2.39127 53.1086 13.6543 53.1086 27.4999C53.1086 41.3456 41.8457 52.6086 27.9999 52.6086Z" fill="black"/>
<path d="M27.9992 23.9131C27.6285 23.9131 27.277 23.9848 26.9398 24.09L22.9798 18.8123C22.5805 18.2815 21.832 18.1786 21.306 18.5732C20.7775 18.9703 20.67 19.7187 21.0644 20.2472L25.0148 25.5152C24.8521 25.7567 24.7303 26.0269 24.6322 26.3044H11.2601C10.6001 26.3044 10.0645 26.8401 10.0645 27.5001C10.0645 28.1601 10.6001 28.6956 11.2601 28.6956H24.6323C25.1273 30.0849 26.4425 31.0869 27.9992 31.0869C29.9769 31.0869 31.5862 29.4776 31.5862 27.4999C31.5862 25.5223 29.9769 23.9131 27.9992 23.9131ZM27.9992 28.6956C27.3416 28.6956 26.8035 28.1601 26.8035 27.5001C26.8035 26.8401 27.3416 26.3044 27.9992 26.3044C28.6569 26.3044 29.1949 26.8401 29.1949 27.5001C29.1949 28.1601 28.6569 28.6956 27.9992 28.6956Z" fill="black"/>
<path d="M49.5219 26.3044C48.8619 26.3044 48.3262 26.8401 48.3262 27.5001C48.3262 28.1601 48.8619 28.6956 49.5219 28.6956C50.1819 28.6956 50.7176 28.1601 50.7176 27.5001C50.7176 26.8401 50.1819 26.3044 49.5219 26.3044Z" fill="black"/>
</g>
<defs>
<clipPath id="clip0_130_179">
<rect width="55" height="55" fill="white" transform="translate(0.5)"/>
</clipPath>
</defs>
</svg>
