<svg width="69" height="69" viewBox="0 0 69 69" fill="none" xmlns="http://www.w3.org/2000/svg">
<path d="M54.3272 18.9094L35.2878 10.7497C34.7847 10.5341 34.2153 10.5341 33.7122 10.7497L14.6728 18.9094C13.8535 19.2605 13.3655 20.1114 13.4761 20.9958L15.9641 40.8997C16.1842 42.6609 17.0652 44.2727 18.4287 45.409L33.2196 57.7347C33.9613 58.3528 35.0387 58.3528 35.7804 57.7347L50.5713 45.409C51.9348 44.2727 52.8158 42.6609 53.0359 40.8997L55.5239 20.9958C55.6345 20.1114 55.1465 19.2605 54.3272 18.9094Z" stroke="#222222" stroke-width="2" stroke-linecap="round"/>
<path d="M25.875 34.5L34.0687 42.6937C34.2918 42.9168 34.6633 42.8801 34.8383 42.6175L46 25.875" stroke="#222222" stroke-width="2" stroke-linecap="round"/>
</svg>
