<svg width="108" height="108" viewBox="0 0 108 108" fill="none" xmlns="http://www.w3.org/2000/svg">
<path d="M63.1801 10.801L64.1751 10.7015L64.1751 10.7015L63.1801 10.801ZM62.766 9.25855L63.437 8.5171L63.437 8.5171L62.766 9.25855ZM64.5036 24.0364L65.4987 23.9369L65.4987 23.9369L64.5036 24.0364ZM67.7602 25.3853L67.1269 24.6113L67.1269 24.6113L67.7602 25.3853ZM78.0548 16.9624L78.6881 17.7364L78.6881 17.7364L78.0548 16.9624ZM80.7355 17.0961L80.0284 17.8032L80.0284 17.8032L80.7355 17.0961ZM90.9037 27.2643L90.1966 27.9714L90.1966 27.9714L90.9037 27.2643ZM91.8353 28.5616L90.8366 28.6113L90.8366 28.6114L91.8353 28.5616ZM91.0374 29.945L90.2635 29.3118L90.2635 29.3118L91.0374 29.945ZM82.6144 40.2398L81.8405 39.6066L81.8405 39.6066L82.6144 40.2398ZM81.2841 42.6985L82.208 42.3158L82.208 42.3158L81.2841 42.6985ZM83.9634 43.4963L84.0629 42.5013L84.0629 42.5013L83.9634 43.4963ZM97.199 44.8199L97.2985 43.8249L97.2985 43.8249L97.199 44.8199ZM98.7415 45.234L99.4829 44.563L99.4829 44.563L98.7415 45.234ZM98.7415 62.766L99.4829 63.437L99.4829 63.437L98.7415 62.766ZM97.199 63.1801L97.2985 64.1751L97.2985 64.1751L97.199 63.1801ZM83.9651 64.5035L84.0646 65.4985L84.0646 65.4985L83.9651 64.5035ZM81.2858 65.3013L82.2097 65.684L82.2097 65.684L81.2858 65.3013ZM82.6162 67.76L81.8422 68.3933L81.8422 68.3933L82.6162 67.76ZM91.0376 78.053L90.2637 78.6862L90.2637 78.6862L91.0376 78.053ZM91.8355 79.4365L90.8368 79.3866L90.8368 79.3867L91.8355 79.4365ZM79.4385 91.8335L79.3887 90.8347L79.3887 90.8347L79.4385 91.8335ZM78.055 91.0356L77.4218 91.8096L77.4218 91.8096L78.055 91.0356ZM67.7604 82.6127L68.3936 81.8388L68.3936 81.8388L67.7604 82.6127ZM65.3017 81.2823L65.6844 82.2062L65.6844 82.2062L65.3017 81.2823ZM64.5038 83.9616L65.4989 84.0611L65.4989 84.0611L64.5038 83.9616ZM63.1801 97.199L64.1751 97.2985L64.1751 97.2985L63.1801 97.199ZM62.766 98.7415L63.437 99.4829L63.437 99.4829L62.766 98.7415ZM45.234 98.7415L44.563 99.4829L44.563 99.4829L45.234 98.7415ZM44.8199 97.199L43.8249 97.2985L43.8249 97.2985L44.8199 97.199ZM43.4963 83.9634L42.5013 84.0629L42.5013 84.0629L43.4963 83.9634ZM42.6985 81.2841L42.3158 82.208L42.3158 82.208L42.6985 81.2841ZM40.2398 82.6145L39.6066 81.8405L39.6066 81.8405L40.2398 82.6145ZM29.9448 91.0376L29.3116 90.2637L29.3116 90.2637L29.9448 91.0376ZM28.5613 91.8355L28.6112 90.8368L28.6111 90.8368L28.5613 91.8355ZM27.2641 90.9039L26.557 91.6111L26.557 91.6111L27.2641 90.9039ZM17.0959 80.7357L17.803 80.0286L17.803 80.0286L17.0959 80.7357ZM16.1643 79.4385L15.1656 79.4883L15.1656 79.4883L16.1643 79.4385ZM16.9622 78.055L17.7362 78.6883L17.7362 78.6883L16.9622 78.055ZM25.3852 67.7602L26.1592 68.3934L26.1592 68.3934L25.3852 67.7602ZM24.0363 64.5036L23.9368 65.4987L23.9368 65.4987L24.0363 64.5036ZM10.801 63.1801L10.7015 64.1751L10.7015 64.1751L10.801 63.1801ZM9 61.19L8 61.19V61.19H9ZM9 46.81L10 46.81V46.81H9ZM10.801 44.8199L10.7015 43.8249L10.7015 43.8249L10.801 44.8199ZM24.038 43.4962L23.9385 42.5012L23.9385 42.5012L24.038 43.4962ZM25.3869 40.2396L24.613 40.8729L24.613 40.8729L25.3869 40.2396ZM16.9624 29.943L16.1884 30.5762L16.1884 30.5762L16.9624 29.943ZM16.1645 28.5595L17.1633 28.6093L17.1633 28.6093L16.1645 28.5595ZM17.0961 27.2623L17.8032 27.9694L17.8032 27.9694L17.0961 27.2623ZM27.2643 17.0941L26.5572 16.387L26.5572 16.387L27.2643 17.0941ZM28.5616 16.1625L28.6114 17.1612L28.6114 17.1612L28.5616 16.1625ZM29.945 16.9604L29.3118 17.7343L29.3118 17.7343L29.945 16.9604ZM40.24 25.3835L40.8732 24.6096L40.8732 24.6096L40.24 25.3835ZM43.4965 24.0346L42.5015 23.9351L42.5015 23.9351L43.4965 24.0346ZM44.8199 10.801L43.8249 10.7015L43.8249 10.7015L44.8199 10.801ZM45.234 9.25855L44.563 8.5171L44.563 8.5171L45.234 9.25855ZM64.1751 10.7015C64.135 10.3001 64.0973 9.9035 64.0223 9.57987C63.9408 9.22844 63.7895 8.83606 63.437 8.5171L62.095 10C62.0283 9.93958 62.0412 9.89046 62.0739 10.0316C62.1131 10.2006 62.1396 10.4459 62.1851 10.9005L64.1751 10.7015ZM65.4987 23.9369L64.1751 10.7015L62.1851 10.9005L63.5086 24.1359L65.4987 23.9369ZM65.6842 25.7918C65.8581 25.8638 65.8135 26.0054 65.7263 25.6588C65.6387 25.3107 65.5837 24.7874 65.4987 23.9369L63.5086 24.1359C63.5869 24.9188 63.6544 25.6208 63.7867 26.1467C63.9194 26.674 64.1921 27.3385 64.9188 27.6395L65.6842 25.7918ZM67.1269 24.6113C66.4654 25.1526 66.0565 25.4837 65.7484 25.6679C65.4416 25.8514 65.5103 25.7198 65.6842 25.7918L64.9188 27.6395C65.6455 27.9406 66.3082 27.6635 66.7749 27.3844C67.2403 27.1061 67.7844 26.6575 68.3934 26.1592L67.1269 24.6113ZM77.4216 16.1884L67.1269 24.6113L68.3934 26.1592L78.6881 17.7364L77.4216 16.1884ZM79.4881 15.1658C79.0134 15.1421 78.6289 15.3126 78.3228 15.5035C78.0409 15.6792 77.7338 15.933 77.4216 16.1884L78.6881 17.7364C79.0416 17.4471 79.2338 17.2923 79.381 17.2006C79.504 17.1239 79.4784 17.1678 79.3885 17.1633L79.4881 15.1658ZM81.4426 16.389C81.1574 16.1038 80.877 15.8207 80.614 15.6177C80.3284 15.3973 79.9629 15.1894 79.4881 15.1658L79.3885 17.1633C79.2986 17.1588 79.2775 17.1126 79.3922 17.2011C79.5295 17.3071 79.7054 17.4802 80.0284 17.8032L81.4426 16.389ZM91.6108 26.5572L81.4426 16.389L80.0284 17.8032L90.1966 27.9714L91.6108 26.5572ZM92.8341 28.5118C92.8104 28.037 92.6025 27.6714 92.3821 27.3858C92.1792 27.1228 91.8961 26.8424 91.6108 26.5572L90.1966 27.9714C90.5197 28.2945 90.6928 28.4703 90.7987 28.6076C90.8873 28.7224 90.841 28.7013 90.8366 28.6113L92.8341 28.5118ZM91.8114 30.5783C92.0668 30.2661 92.3206 29.959 92.4964 29.6771C92.6873 29.3709 92.8578 28.9865 92.8341 28.5117L90.8366 28.6114C90.8321 28.5214 90.876 28.4959 90.7993 28.6188C90.7075 28.766 90.5528 28.9582 90.2635 29.3118L91.8114 30.5783ZM83.3884 40.873L91.8114 30.5783L90.2635 29.3118L81.8405 39.6066L83.3884 40.873ZM82.208 42.3158C82.28 42.4897 82.1483 42.5583 82.3318 42.2515C82.516 41.9435 82.8471 41.5346 83.3884 40.873L81.8405 39.6066C81.3422 40.2156 80.8936 40.7596 80.6153 41.2251C80.3362 41.6918 80.0592 42.3545 80.3602 43.0812L82.208 42.3158ZM84.0629 42.5013C83.2123 42.4162 82.6891 42.3613 82.341 42.2737C81.9943 42.1865 82.1359 42.1419 82.208 42.3158L80.3602 43.0812C80.6612 43.8079 81.3257 44.0806 81.853 44.2132C82.379 44.3456 83.0809 44.4131 83.8639 44.4914L84.0629 42.5013ZM97.2985 43.8249L84.0629 42.5013L83.8639 44.4914L97.0995 45.8149L97.2985 43.8249ZM99.4829 44.563C99.1639 44.2105 98.7716 44.0592 98.4201 43.9777C98.0965 43.9027 97.6999 43.865 97.2985 43.8249L97.0995 45.8149C97.5541 45.8604 97.7994 45.8869 97.9684 45.9261C98.1095 45.9588 98.0604 45.9717 98 45.905L99.4829 44.563ZM100 46.81C100 46.4066 100.002 46.0082 99.9595 45.6787C99.9134 45.3209 99.8019 44.9154 99.4829 44.563L98 45.905C97.9396 45.8382 97.9574 45.7906 97.9759 45.9344C97.9981 46.1064 98 46.3531 98 46.81H100ZM100 61.19V46.81H98V61.19H100ZM99.4829 63.437C99.8019 63.0846 99.9134 62.6791 99.9595 62.3213C100.002 61.9918 100 61.5934 100 61.19H98C98 61.6469 97.9981 61.8936 97.9759 62.0656C97.9574 62.2094 97.9396 62.1618 98 62.095L99.4829 63.437ZM97.2985 64.1751C97.6999 64.135 98.0965 64.0973 98.4201 64.0223C98.7716 63.9408 99.1639 63.7895 99.4829 63.437L98 62.095C98.0604 62.0283 98.1095 62.0412 97.9684 62.0739C97.7994 62.1131 97.5541 62.1396 97.0995 62.1851L97.2985 64.1751ZM84.0646 65.4985L97.2985 64.1751L97.0995 62.1851L83.8656 63.5085L84.0646 65.4985ZM82.2097 65.684C82.1376 65.8579 81.996 65.8134 82.3427 65.7262C82.6908 65.6386 83.214 65.5836 84.0646 65.4985L83.8656 63.5085C83.0826 63.5868 82.3807 63.6543 81.8547 63.7866C81.3274 63.9193 80.6629 64.192 80.3619 64.9187L82.2097 65.684ZM83.3901 67.1268C82.8488 66.4652 82.5177 66.0564 82.3335 65.7483C82.15 65.4415 82.2817 65.5101 82.2097 65.684L80.3619 64.9186C80.0609 65.6454 80.3379 66.308 80.617 66.7747C80.8953 67.2402 81.3439 67.7843 81.8422 68.3933L83.3901 67.1268ZM91.8116 77.4197L83.3901 67.1268L81.8422 68.3933L90.2637 78.6862L91.8116 77.4197ZM92.8343 79.4863C92.858 79.0115 92.6875 78.6271 92.4966 78.321C92.3208 78.0391 92.067 77.7319 91.8116 77.4197L90.2637 78.6862C90.553 79.0398 90.7077 79.232 90.7995 79.3792C90.8762 79.5021 90.8323 79.4766 90.8368 79.3866L92.8343 79.4863ZM91.6111 81.4408C91.8963 81.1556 92.1794 80.8752 92.3823 80.6122C92.6027 80.3266 92.8106 79.961 92.8343 79.4863L90.8368 79.3867C90.8412 79.2967 90.8875 79.2756 90.7989 79.3904C90.693 79.5277 90.5199 79.7035 90.1968 80.0266L91.6111 81.4408ZM81.4428 91.609L91.6111 81.4408L90.1968 80.0266L80.0286 90.1948L81.4428 91.609ZM79.4883 92.8322C79.9631 92.8086 80.3286 92.6007 80.6142 92.3803C80.8773 92.1773 81.1576 91.8942 81.4428 91.609L80.0286 90.1948C79.7056 90.5178 79.5297 90.6909 79.3924 90.7969C79.2777 90.8854 79.2988 90.8392 79.3887 90.8347L79.4883 92.8322ZM77.4218 91.8096C77.734 92.065 78.0411 92.3188 78.323 92.4946C78.6291 92.6854 79.0136 92.8559 79.4883 92.8322L79.3887 90.8347C79.4786 90.8302 79.5042 90.8741 79.3812 90.7975C79.234 90.7057 79.0418 90.5509 78.6883 90.2616L77.4218 91.8096ZM67.1271 83.3867L77.4218 91.8096L78.6883 90.2616L68.3936 81.8388L67.1271 83.3867ZM65.6844 82.2062C65.5105 82.2782 65.4418 82.1466 65.7486 82.3301C66.0567 82.5143 66.4656 82.8454 67.1271 83.3867L68.3936 81.8388C67.7846 81.3405 67.2405 80.8919 66.7751 80.6136C66.3084 80.3345 65.6457 80.0574 64.919 80.3585L65.6844 82.2062ZM65.4989 84.0611C65.5839 83.2106 65.6389 82.6873 65.7265 82.3392C65.8137 81.9926 65.8583 82.1342 65.6844 82.2062L64.919 80.3585C64.1923 80.6595 63.9196 81.324 63.7869 81.8513C63.6546 82.3772 63.5871 83.0792 63.5088 83.8621L65.4989 84.0611ZM64.1751 97.2985L65.4989 84.0611L63.5088 83.8621L62.1851 97.0995L64.1751 97.2985ZM63.437 99.4829C63.7895 99.1639 63.9408 98.7716 64.0223 98.4201C64.0973 98.0965 64.135 97.6999 64.1751 97.2985L62.1851 97.0995C62.1396 97.5541 62.1131 97.7994 62.0739 97.9684C62.0412 98.1095 62.0283 98.0604 62.095 98L63.437 99.4829ZM61.19 100C61.5934 100 61.9918 100.002 62.3213 99.9595C62.6791 99.9134 63.0846 99.8019 63.437 99.4829L62.095 98C62.1618 97.9396 62.2094 97.9574 62.0656 97.9759C61.8936 97.9981 61.6469 98 61.19 98V100ZM46.81 100H61.19V98H46.81V100ZM44.563 99.4829C44.9154 99.8019 45.3209 99.9134 45.6787 99.9595C46.0082 100.002 46.4066 100 46.81 100V98C46.3531 98 46.1064 97.9981 45.9344 97.9759C45.7906 97.9574 45.8382 97.9396 45.905 98L44.563 99.4829ZM43.8249 97.2985C43.865 97.6999 43.9027 98.0965 43.9778 98.4201C44.0592 98.7716 44.2105 99.1639 44.563 99.4829L45.905 98C45.9717 98.0604 45.9588 98.1095 45.9261 97.9684C45.8869 97.7994 45.8604 97.5541 45.8149 97.0995L43.8249 97.2985ZM42.5013 84.0629L43.8249 97.2985L45.8149 97.0995L44.4914 83.8639L42.5013 84.0629ZM42.3158 82.208C42.1419 82.136 42.1865 81.9944 42.2737 82.341C42.3613 82.6891 42.4162 83.2123 42.5013 84.0629L44.4914 83.8639C44.4131 83.0809 44.3456 82.379 44.2132 81.8531C44.0806 81.3257 43.8079 80.6612 43.0812 80.3602L42.3158 82.208ZM40.873 83.3884C41.5346 82.8471 41.9435 82.5161 42.2515 82.3318C42.5583 82.1484 42.4897 82.28 42.3158 82.208L43.0812 80.3602C42.3545 80.0592 41.6918 80.3363 41.2251 80.6153C40.7596 80.8937 40.2156 81.3423 39.6066 81.8405L40.873 83.3884ZM30.5781 91.8116L40.873 83.3884L39.6066 81.8405L29.3116 90.2637L30.5781 91.8116ZM28.5115 92.8343C28.9863 92.858 29.3707 92.6875 29.6768 92.4966C29.9587 92.3208 30.2659 92.067 30.5781 91.8116L29.3116 90.2637C28.958 90.553 28.7658 90.7077 28.6186 90.7995C28.4957 90.8762 28.5212 90.8323 28.6112 90.8368L28.5115 92.8343ZM26.557 91.6111C26.8422 91.8963 27.1226 92.1794 27.3856 92.3823C27.6712 92.6027 28.0368 92.8106 28.5115 92.8343L28.6111 90.8368C28.7011 90.8412 28.7222 90.8875 28.6074 90.7989C28.4701 90.693 28.2943 90.5199 27.9712 90.1968L26.557 91.6111ZM16.3888 81.4428L26.557 91.6111L27.9712 90.1968L17.803 80.0286L16.3888 81.4428ZM15.1656 79.4883C15.1892 79.9631 15.3971 80.3286 15.6175 80.6142C15.8205 80.8772 16.1036 81.1576 16.3888 81.4428L17.803 80.0286C17.48 79.7056 17.3069 79.5297 17.2009 79.3924C17.1124 79.2777 17.1586 79.2988 17.1631 79.3887L15.1656 79.4883ZM16.1882 77.4218C15.9328 77.734 15.679 78.0411 15.5032 78.323C15.3124 78.6291 15.1419 79.0135 15.1656 79.4883L17.1631 79.3887C17.1676 79.4786 17.1237 79.5042 17.2003 79.3812C17.2921 79.234 17.4469 79.0418 17.7362 78.6883L16.1882 77.4218ZM24.6113 67.1269L16.1882 77.4218L17.7362 78.6883L26.1592 68.3934L24.6113 67.1269ZM25.7918 65.6842C25.7197 65.5103 25.8514 65.4416 25.6679 65.7484C25.4837 66.0565 25.1526 66.4654 24.6113 67.1269L26.1592 68.3934C26.6575 67.7844 27.1061 67.2403 27.3844 66.7749C27.6635 66.3082 27.9405 65.6455 27.6395 64.9188L25.7918 65.6842ZM23.9368 65.4987C24.7874 65.5837 25.3106 65.6387 25.6587 65.7263C26.0054 65.8135 25.8638 65.858 25.7918 65.6842L27.6395 64.9188C27.3385 64.1921 26.674 63.9194 26.1467 63.7867C25.6207 63.6544 24.9188 63.5869 24.1358 63.5086L23.9368 65.4987ZM10.7015 64.1751L23.9368 65.4987L24.1358 63.5086L10.9005 62.1851L10.7015 64.1751ZM8.5171 63.437C8.83606 63.7895 9.22844 63.9408 9.57987 64.0222C9.9035 64.0973 10.3001 64.135 10.7015 64.1751L10.9005 62.1851C10.4459 62.1396 10.2006 62.1131 10.0316 62.0739C9.89046 62.0412 9.93958 62.0283 10 62.095L8.5171 63.437ZM8 61.19C8 61.5934 7.99806 61.9918 8.04052 62.3213C8.08663 62.6791 8.19813 63.0846 8.5171 63.437L10 62.095C10.0604 62.1618 10.0426 62.2094 10.0241 62.0656C10.0019 61.8936 10 61.6469 10 61.19H8ZM8 46.81L8 61.19L10 61.19L10 46.81L8 46.81ZM8.5171 44.563C8.19813 44.9154 8.08664 45.3209 8.04052 45.6787C7.99806 46.0082 8 46.4066 8 46.81H10C10 46.3531 10.0019 46.1064 10.0241 45.9344C10.0426 45.7906 10.0604 45.8382 10 45.905L8.5171 44.563ZM10.7015 43.8249C10.3001 43.865 9.9035 43.9027 9.57987 43.9777C9.22844 44.0592 8.83606 44.2105 8.5171 44.563L10 45.905C9.93959 45.9717 9.89046 45.9588 10.0316 45.9261C10.2006 45.8869 10.4459 45.8604 10.9005 45.8149L10.7015 43.8249ZM23.9385 42.5012L10.7015 43.8249L10.9005 45.8149L24.1375 44.4912L23.9385 42.5012ZM25.7934 42.3157C25.8655 42.1418 26.0071 42.1863 25.6604 42.2735C25.3123 42.3611 24.7891 42.4161 23.9385 42.5012L24.1375 44.4912C24.9205 44.4129 25.6224 44.3454 26.1484 44.2131C26.6757 44.0804 27.3402 43.8077 27.6412 43.081L25.7934 42.3157ZM24.613 40.8729C25.1543 41.5345 25.4854 41.9433 25.6696 42.2514C25.8531 42.5582 25.7214 42.4896 25.7934 42.3157L27.6412 43.081C27.9422 42.3543 27.6652 41.6916 27.3861 41.2249C27.1078 40.7595 26.6592 40.2154 26.1609 39.6064L24.613 40.8729ZM16.1884 30.5762L24.613 40.8729L26.1609 39.6064L17.7364 29.3097L16.1884 30.5762ZM15.1658 28.5097C15.1421 28.9845 15.3126 29.3689 15.5035 29.675C15.6792 29.9569 15.933 30.264 16.1884 30.5762L17.7364 29.3097C17.4471 28.9562 17.2923 28.764 17.2006 28.6168C17.1239 28.4938 17.1678 28.5194 17.1633 28.6093L15.1658 28.5097ZM16.389 26.5552C16.1038 26.8404 15.8207 27.1208 15.6177 27.3838C15.3973 27.6694 15.1895 28.0349 15.1658 28.5097L17.1633 28.6093C17.1588 28.6992 17.1126 28.7203 17.2011 28.6056C17.3071 28.4683 17.4802 28.2924 17.8032 27.9694L16.389 26.5552ZM26.5572 16.387L16.389 26.5552L17.8032 27.9694L27.9714 17.8012L26.5572 16.387ZM28.5117 15.1637C28.037 15.1874 27.6714 15.3953 27.3858 15.6157C27.1228 15.8186 26.8424 16.1017 26.5572 16.387L27.9714 17.8012C28.2945 17.4781 28.4703 17.305 28.6076 17.1991C28.7224 17.1105 28.7013 17.1568 28.6114 17.1612L28.5117 15.1637ZM30.5783 16.1864C30.2661 15.931 29.959 15.6772 29.6771 15.5014C29.3709 15.3105 28.9865 15.1401 28.5117 15.1637L28.6114 17.1612C28.5214 17.1657 28.4959 17.1218 28.6188 17.1985C28.766 17.2903 28.9582 17.445 29.3118 17.7343L30.5783 16.1864ZM40.8732 24.6096L30.5783 16.1864L29.3118 17.7343L39.6068 26.1575L40.8732 24.6096ZM42.316 25.79C42.4899 25.718 42.5585 25.8496 42.2517 25.6662C41.9437 25.482 41.5348 25.1509 40.8732 24.6096L39.6068 26.1575C40.2158 26.6557 40.7598 27.1043 41.2253 27.3827C41.692 27.6618 42.3547 27.9388 43.0814 27.6378L42.316 25.79ZM42.5015 23.9351C42.4164 24.7857 42.3615 25.3089 42.2739 25.657C42.1867 26.0037 42.1421 25.862 42.316 25.79L43.0814 27.6378C43.8081 27.3368 44.0808 26.6723 44.2134 26.1449C44.3458 25.619 44.4133 24.9171 44.4916 24.1341L42.5015 23.9351ZM43.8249 10.7015L42.5015 23.9351L44.4916 24.1341L45.8149 10.9005L43.8249 10.7015ZM44.563 8.5171C44.2105 8.83606 44.0592 9.22844 43.9778 9.57987C43.9027 9.9035 43.865 10.3001 43.8249 10.7015L45.8149 10.9005C45.8604 10.4459 45.8869 10.2006 45.9261 10.0316C45.9588 9.89046 45.9717 9.93959 45.905 10L44.563 8.5171ZM46.81 8C46.4066 8 46.0082 7.99806 45.6787 8.04052C45.3209 8.08663 44.9154 8.19813 44.563 8.5171L45.905 10C45.8382 10.0604 45.7906 10.0426 45.9344 10.0241C46.1064 10.0019 46.3531 10 46.81 10V8ZM61.19 8H46.81V10H61.19V8ZM63.437 8.5171C63.0846 8.19813 62.6791 8.08663 62.3213 8.04052C61.9918 7.99806 61.5934 8 61.19 8V10C61.6469 10 61.8936 10.0019 62.0656 10.0241C62.2094 10.0426 62.1618 10.0604 62.095 10L63.437 8.5171ZM71 54C71 63.3888 63.3888 71 54 71V73C64.4934 73 73 64.4934 73 54H71ZM54 37C63.3888 37 71 44.6112 71 54H73C73 43.5066 64.4934 35 54 35V37ZM37 54C37 44.6112 44.6112 37 54 37V35C43.5066 35 35 43.5066 35 54H37ZM54 71C44.6112 71 37 63.3888 37 54H35C35 64.4934 43.5066 73 54 73V71Z" fill="#33363F"/>
</svg>
