<svg width="50" height="50" viewBox="0 0 50 50" fill="none" xmlns="http://www.w3.org/2000/svg">
<path d="M29.3468 5.96766L28.3518 6.06716L28.3518 6.06716L29.3468 5.96766ZM29.6636 9.13563L28.6686 9.23514L28.6686 9.23514L29.6636 9.13563ZM30.4614 11.8149L30.0787 12.7388L30.0788 12.7388L30.4614 11.8149ZM32.9201 10.4845L32.2869 9.71059L32.2869 9.71059L32.9201 10.4845ZM35.3842 8.46848L36.0175 9.24244L36.0175 9.24244L35.3842 8.46848ZM38.0649 8.60218L37.3578 9.30929L37.3578 9.30929L38.0649 8.60218ZM41.3978 11.935L42.1049 11.2279L42.1049 11.2279L41.3978 11.935ZM42.3293 13.2323L41.3306 13.2821L41.3306 13.2821L42.3293 13.2323ZM41.5315 14.6157L42.3054 15.249L42.3054 15.249L41.5315 14.6157ZM39.5154 17.0799L38.7414 16.4466L38.7414 16.4466L39.5154 17.0799ZM38.185 19.5386L39.1089 19.1559L39.1089 19.1559L38.185 19.5386ZM40.8643 20.3364L40.7648 21.3315L40.7648 21.3315L40.8643 20.3364ZM44.0324 20.6532L43.9329 21.6483L43.9329 21.6483L44.0324 20.6532ZM45.5748 21.0673L44.8334 21.7383L44.8334 21.7383L45.5748 21.0673ZM45.5748 28.9327L46.3163 29.6037L46.3163 29.6037L45.5748 28.9327ZM44.0324 29.3468L43.9329 28.3517L43.9329 28.3517L44.0324 29.3468ZM40.865 29.6635L40.9646 30.6585L40.9646 30.6585L40.865 29.6635ZM38.1858 30.4613L39.1096 30.844L39.1096 30.844L38.1858 30.4613ZM39.5161 32.92L40.2901 32.2868L40.2901 32.2868L39.5161 32.92ZM41.5316 35.3833L42.3055 34.7501L42.3055 34.7501L41.5316 35.3833ZM42.3294 36.7668L41.3307 36.717L41.3307 36.717L42.3294 36.7668ZM41.3979 38.064L42.105 38.7711L42.105 38.7711L41.3979 38.064ZM38.065 41.3969L37.3579 40.6898L37.3579 40.6898L38.065 41.3969ZM36.7678 42.3285L36.718 41.3297L36.718 41.3297L36.7678 42.3285ZM35.3843 41.5306L36.0175 40.7566L36.0175 40.7566L35.3843 41.5306ZM32.9202 39.5145L33.5535 38.7406L33.5535 38.7406L32.9202 39.5145ZM30.4615 38.1841L30.0788 37.2603L30.0788 37.2603L30.4615 38.1841ZM29.6637 40.8634L28.6686 40.7639L28.6686 40.7639L29.6637 40.8634ZM29.3468 44.0323L28.3518 43.9328L28.3518 43.9328L29.3468 44.0323ZM28.9327 45.5748L29.6037 46.3162L29.6037 46.3162L28.9327 45.5748ZM21.0673 45.5748L20.3963 46.3162L20.3963 46.3162L21.0673 45.5748ZM20.6533 44.0323L19.6582 44.1318L19.6582 44.1318L20.6533 44.0323ZM20.3365 40.8643L19.3414 40.9638L19.3414 40.9638L20.3365 40.8643ZM19.5386 38.185L19.1559 39.1088L19.1559 39.1088L19.5386 38.185ZM17.0799 39.5153L17.7131 40.2893L17.7131 40.2893L17.0799 39.5153ZM14.6157 41.5315L15.2489 42.3055L15.2489 42.3055L14.6157 41.5315ZM13.2322 42.3294L13.282 41.3306L13.282 41.3306L13.2322 42.3294ZM11.935 41.3978L12.6421 40.6907L12.6421 40.6907L11.935 41.3978ZM8.60212 38.065L7.89501 38.7721L7.89501 38.7721L8.60212 38.065ZM7.67054 36.7678L8.6693 36.7179L8.6693 36.7179L7.67054 36.7678ZM8.46841 35.3843L7.69446 34.751L7.69446 34.751L8.46841 35.3843ZM10.4846 32.9201L11.2585 33.5533L11.2585 33.5533L10.4846 32.9201ZM11.8149 30.4614L12.7388 30.0787L12.7388 30.0787L11.8149 30.4614ZM9.13565 29.6636L9.03614 30.6586L9.03614 30.6586L9.13565 29.6636ZM5.96768 29.3468L6.06718 28.3517L6.06718 28.3517L5.96768 29.3468ZM4.42523 28.9327L3.68378 29.6037L3.68378 29.6037L4.42523 28.9327ZM4.42523 21.0673L5.16669 21.7383L5.16669 21.7383L4.42523 21.0673ZM5.96768 20.6532L6.06718 21.6483L6.06718 21.6483L5.96768 20.6532ZM9.13643 20.3364L9.03693 19.3413L9.03693 19.3413L9.13643 20.3364ZM11.8157 19.5385L10.8918 19.1558L10.8918 19.1558L11.8157 19.5385ZM10.4853 17.0798L11.2593 16.4466L11.2593 16.4466L10.4853 17.0798ZM8.46851 14.6148L7.69455 15.248L7.69455 15.248L8.46851 14.6148ZM8.60221 11.9341L9.30932 12.6412L9.30932 12.6412L8.60221 11.9341ZM11.9351 8.60124L11.228 7.89413L11.228 7.89413L11.9351 8.60124ZM14.6158 8.46754L13.9825 9.2415L13.9825 9.2415L14.6158 8.46754ZM17.08 10.4837L16.4468 11.2577L16.4468 11.2577L17.08 10.4837ZM19.5387 11.8141L19.9214 12.738L19.9214 12.738L19.5387 11.8141ZM20.3365 9.13482L19.3415 9.03531L19.3415 9.03531L20.3365 9.13482ZM20.6533 5.96766L19.6582 5.86815L19.6582 5.86815L20.6533 5.96766ZM21.0673 4.42521L20.3963 3.68376L20.3963 3.68376L21.0673 4.42521ZM30.3418 5.86815C30.3017 5.46679 30.264 5.07016 30.1889 4.74654C30.1075 4.3951 29.9562 4.00272 29.6037 3.68376L28.2617 5.16666C28.1949 5.10625 28.2079 5.05712 28.2406 5.19829C28.2798 5.36727 28.3063 5.61259 28.3518 6.06716L30.3418 5.86815ZM30.6586 9.03613L30.3418 5.86815L28.3518 6.06716L28.6686 9.23514L30.6586 9.03613ZM30.8441 10.891C31.018 10.9631 30.9735 11.1047 30.8862 10.758C30.7987 10.4099 30.7437 9.8867 30.6586 9.03613L28.6686 9.23514C28.7468 10.0181 28.8144 10.72 28.9467 11.246C29.0793 11.7733 29.352 12.4378 30.0787 12.7388L30.8441 10.891ZM32.2869 9.71059C31.6253 10.2519 31.2164 10.583 30.9084 10.7672C30.6016 10.9507 30.6702 10.819 30.8441 10.891L30.0788 12.7388C30.8055 13.0398 31.4681 12.7628 31.9348 12.4837C32.4003 12.2054 32.9444 11.7568 33.5534 11.2585L32.2869 9.71059ZM34.751 7.69453L32.2869 9.71059L33.5534 11.2585L36.0175 9.24244L34.751 7.69453ZM36.8175 6.67185C36.3427 6.64817 35.9583 6.81865 35.6522 7.00953C35.3703 7.18531 35.0632 7.4391 34.751 7.69453L36.0175 9.24244C36.371 8.95316 36.5632 8.79841 36.7104 8.70663C36.8334 8.62996 36.8078 8.67385 36.7179 8.66937L36.8175 6.67185ZM38.772 7.89508C38.4868 7.60986 38.2064 7.32676 37.9434 7.12381C37.6578 6.90341 37.2923 6.69553 36.8175 6.67185L36.7179 8.66937C36.6279 8.66488 36.6069 8.61866 36.7216 8.70719C36.8589 8.81316 37.0348 8.98626 37.3578 9.30929L38.772 7.89508ZM42.1049 11.2279L38.772 7.89508L37.3578 9.30929L40.6907 12.6422L42.1049 11.2279ZM43.3281 13.1825C43.3044 12.7077 43.0965 12.3421 42.8761 12.0565C42.6732 11.7935 42.3901 11.5132 42.1049 11.2279L40.6907 12.6422C41.0137 12.9652 41.1868 13.141 41.2928 13.2784C41.3813 13.3931 41.3351 13.372 41.3306 13.2821L43.3281 13.1825ZM42.3054 15.249C42.5608 14.9368 42.8146 14.6297 42.9904 14.3478C43.1813 14.0416 43.3518 13.6572 43.3281 13.1824L41.3306 13.2821C41.3261 13.1922 41.37 13.1666 41.2933 13.2895C41.2015 13.4367 41.0468 13.6289 40.7575 13.9825L42.3054 15.249ZM40.2893 17.7131L42.3054 15.249L40.7575 13.9825L38.7414 16.4466L40.2893 17.7131ZM39.1089 19.1559C39.1809 19.3298 39.0492 19.3984 39.2327 19.0916C39.4169 18.7836 39.748 18.3747 40.2893 17.7131L38.7414 16.4466C38.2431 17.0556 37.7945 17.5997 37.5162 18.0652C37.2371 18.5319 36.9601 19.1946 37.2611 19.9213L39.1089 19.1559ZM40.9638 19.3414C40.1132 19.2563 39.59 19.2013 39.2419 19.1138C38.8952 19.0266 39.0368 18.982 39.1089 19.1559L37.2611 19.9213C37.5621 20.648 38.2266 20.9207 38.7539 21.0533C39.2799 21.1856 39.9818 21.2532 40.7648 21.3315L40.9638 19.3414ZM44.1319 19.6582L40.9638 19.3414L40.7648 21.3315L43.9329 21.6483L44.1319 19.6582ZM46.3163 20.3963C45.9973 20.0439 45.6049 19.8926 45.2535 19.8111C44.9299 19.736 44.5332 19.6983 44.1319 19.6582L43.9329 21.6483C44.3874 21.6937 44.6328 21.7202 44.8017 21.7594C44.9429 21.7921 44.8938 21.8051 44.8334 21.7383L46.3163 20.3963ZM46.8334 22.6433C46.8334 22.2399 46.8353 21.8415 46.7928 21.512C46.7467 21.1542 46.6352 20.7488 46.3163 20.3963L44.8334 21.7383C44.7729 21.6716 44.7907 21.624 44.8092 21.7677C44.8314 21.9397 44.8334 22.1865 44.8334 22.6433H46.8334ZM46.8334 27.3567V22.6433H44.8334V27.3567H46.8334ZM46.3163 29.6037C46.6352 29.2512 46.7467 28.8457 46.7928 28.4879C46.8353 28.1585 46.8334 27.7601 46.8334 27.3567H44.8334C44.8334 27.8135 44.8314 28.0603 44.8092 28.2323C44.7907 28.376 44.7729 28.3284 44.8334 28.2617L46.3163 29.6037ZM44.1319 30.3418C44.5332 30.3017 44.9299 30.264 45.2535 30.1889C45.6049 30.1074 45.9973 29.9561 46.3163 29.6037L44.8334 28.2617C44.8938 28.1949 44.9429 28.2079 44.8017 28.2406C44.6328 28.2798 44.3874 28.3063 43.9329 28.3517L44.1319 30.3418ZM40.9646 30.6585L44.1319 30.3418L43.9329 28.3517L40.7655 28.6685L40.9646 30.6585ZM39.1096 30.844C39.0376 31.0179 38.896 30.9734 39.2427 30.8862C39.5908 30.7986 40.114 30.7436 40.9646 30.6585L40.7655 28.6685C39.9826 28.7468 39.2807 28.8143 38.7547 28.9466C38.2274 29.0793 37.5629 29.352 37.2619 30.0787L39.1096 30.844ZM40.2901 32.2868C39.7488 31.6252 39.4177 31.2164 39.2335 30.9083C39.05 30.6015 39.1817 30.6701 39.1096 30.844L37.2619 30.0787C36.9609 30.8054 37.2379 31.468 37.517 31.9347C37.7953 32.4002 38.2439 32.9443 38.7422 33.5533L40.2901 32.2868ZM42.3055 34.7501L40.2901 32.2868L38.7422 33.5533L40.7576 36.0166L42.3055 34.7501ZM43.3282 36.8166C43.3519 36.3419 43.1814 35.9574 42.9905 35.6513C42.8147 35.3694 42.5609 35.0623 42.3055 34.7501L40.7576 36.0166C41.0469 36.3701 41.2016 36.5623 41.2934 36.7095C41.3701 36.8325 41.3262 36.8069 41.3307 36.717L43.3282 36.8166ZM42.105 38.7711C42.3902 38.4859 42.6733 38.2056 42.8762 37.9426C43.0966 37.6569 43.3045 37.2914 43.3282 36.8166L41.3307 36.717C41.3352 36.6271 41.3814 36.606 41.2929 36.7207C41.1869 36.858 41.0138 37.0339 40.6908 37.3569L42.105 38.7711ZM38.7721 42.104L42.105 38.7711L40.6908 37.3569L37.3579 40.6898L38.7721 42.104ZM36.8176 43.3272C37.2923 43.3035 37.6579 43.0957 37.9435 42.8753C38.2065 42.6723 38.4869 42.3892 38.7721 42.104L37.3579 40.6898C37.0349 41.0128 36.859 41.1859 36.7217 41.2919C36.607 41.3804 36.628 41.3342 36.718 41.3297L36.8176 43.3272ZM34.7511 42.3045C35.0633 42.56 35.3704 42.8138 35.6523 42.9895C35.9584 43.1804 36.3428 43.3509 36.8176 43.3272L36.718 41.3297C36.8079 41.3252 36.8335 41.3691 36.7105 41.2924C36.5633 41.2007 36.3711 41.0459 36.0175 40.7566L34.7511 42.3045ZM32.287 40.2885L34.7511 42.3045L36.0175 40.7566L33.5535 38.7406L32.287 40.2885ZM30.8442 39.108C30.6703 39.1801 30.6017 39.0484 30.9085 39.2319C31.2165 39.4161 31.6254 39.7472 32.287 40.2885L33.5535 38.7406C32.9445 38.2423 32.4004 37.7937 31.9349 37.5154C31.4682 37.2363 30.8055 36.9593 30.0788 37.2603L30.8442 39.108ZM30.6587 40.9629C30.7438 40.1124 30.7988 39.5891 30.8863 39.2411C30.9736 38.8944 31.0181 39.036 30.8442 39.108L30.0788 37.2603C29.3521 37.5613 29.0794 38.2258 28.9468 38.7531C28.8145 39.279 28.7469 39.981 28.6686 40.7639L30.6587 40.9629ZM30.3418 44.1318L30.6587 40.9629L28.6686 40.7639L28.3518 43.9328L30.3418 44.1318ZM29.6037 46.3162C29.9562 45.9973 30.1075 45.6049 30.1889 45.2535C30.264 44.9298 30.3017 44.5332 30.3418 44.1318L28.3518 43.9328C28.3063 44.3874 28.2798 44.6327 28.2406 44.8017C28.2079 44.9429 28.1949 44.8937 28.2617 44.8333L29.6037 46.3162ZM27.3567 46.8333C27.7601 46.8333 28.1585 46.8353 28.488 46.7928C28.8458 46.7467 29.2513 46.6352 29.6037 46.3162L28.2617 44.8333C28.3285 44.7729 28.3761 44.7907 28.2323 44.8092C28.0603 44.8314 27.8136 44.8333 27.3567 44.8333V46.8333ZM22.6433 46.8333H27.3567V44.8333H22.6433V46.8333ZM20.3963 46.3162C20.7488 46.6352 21.1543 46.7467 21.5121 46.7928C21.8416 46.8353 22.24 46.8333 22.6433 46.8333V44.8333C22.1865 44.8333 21.9398 44.8314 21.7677 44.8092C21.624 44.7907 21.6716 44.7729 21.7383 44.8333L20.3963 46.3162ZM19.6582 44.1318C19.6984 44.5332 19.7361 44.9298 19.8111 45.2535C19.8926 45.6049 20.0439 45.9973 20.3963 46.3162L21.7383 44.8333C21.8051 44.8938 21.7922 44.9429 21.7594 44.8017C21.7202 44.6327 21.6938 44.3874 21.6483 43.9328L19.6582 44.1318ZM19.3414 40.9638L19.6582 44.1318L21.6483 43.9328L21.3315 40.7647L19.3414 40.9638ZM19.1559 39.1088C18.982 39.0368 19.0266 38.8952 19.1138 39.2419C19.2014 39.59 19.2564 40.1132 19.3414 40.9638L21.3315 40.7647C21.2532 39.9818 21.1857 39.2799 21.0534 38.7539C20.9207 38.2266 20.648 37.5621 19.9213 37.2611L19.1559 39.1088ZM17.7131 40.2893C18.3747 39.748 18.7836 39.4169 19.0916 39.2327C19.3984 39.0492 19.3298 39.1809 19.1559 39.1088L19.9213 37.2611C19.1946 36.9601 18.5319 37.2371 18.0652 37.5162C17.5997 37.7945 17.0557 38.2431 16.4467 38.7414L17.7131 40.2893ZM15.2489 42.3055L17.7131 40.2893L16.4467 38.7414L13.9824 40.7576L15.2489 42.3055ZM13.1824 43.3282C13.6571 43.3518 14.0416 43.1814 14.3477 42.9905C14.6296 42.8147 14.9367 42.5609 15.2489 42.3055L13.9824 40.7576C13.6289 41.0469 13.4367 41.2016 13.2895 41.2934C13.1665 41.3701 13.1921 41.3262 13.282 41.3306L13.1824 43.3282ZM11.2279 42.1049C11.5131 42.3902 11.7934 42.6733 12.0564 42.8762C12.3421 43.0966 12.7076 43.3045 13.1824 43.3282L13.282 41.3306C13.3719 41.3351 13.393 41.3814 13.2783 41.2928C13.141 41.1869 12.9651 41.0138 12.6421 40.6907L11.2279 42.1049ZM7.89501 38.7721L11.2279 42.1049L12.6421 40.6907L9.30922 37.3579L7.89501 38.7721ZM6.67178 36.8176C6.69546 37.2923 6.90335 37.6579 7.12374 37.9435C7.32669 38.2065 7.60979 38.4869 7.89501 38.7721L9.30922 37.3579C8.98619 37.0348 8.81309 36.859 8.70712 36.7217C8.61859 36.6069 8.66481 36.628 8.6693 36.7179L6.67178 36.8176ZM7.69446 34.751C7.43903 35.0632 7.18524 35.3704 7.00946 35.6523C6.81858 35.9584 6.6481 36.3428 6.67178 36.8176L8.6693 36.7179C8.67378 36.8079 8.62989 36.8334 8.70656 36.7105C8.79835 36.5633 8.95309 36.3711 9.24237 36.0175L7.69446 34.751ZM9.7106 32.2869L7.69446 34.751L9.24237 36.0175L11.2585 33.5533L9.7106 32.2869ZM10.8911 30.8441C10.819 30.6702 10.9507 30.6016 10.7672 30.9084C10.583 31.2164 10.2519 31.6253 9.7106 32.2869L11.2585 33.5533C11.7568 32.9443 12.2054 32.4003 12.4837 31.9348C12.7628 31.4681 13.0398 30.8054 12.7388 30.0787L10.8911 30.8441ZM9.03614 30.6586C9.88672 30.7437 10.4099 30.7986 10.758 30.8862C11.1047 30.9734 10.9631 31.018 10.8911 30.8441L12.7388 30.0787C12.4378 29.352 11.7733 29.0793 11.246 28.9467C10.72 28.8143 10.0181 28.7468 9.23515 28.6685L9.03614 30.6586ZM5.86818 30.3418L9.03614 30.6586L9.23515 28.6685L6.06718 28.3517L5.86818 30.3418ZM3.68378 29.6037C4.00274 29.9561 4.39513 30.1074 4.74656 30.1889C5.07018 30.264 5.46681 30.3017 5.86818 30.3418L6.06718 28.3517C5.61261 28.3063 5.36729 28.2798 5.19831 28.2406C5.05714 28.2079 5.10627 28.1949 5.16669 28.2617L3.68378 29.6037ZM3.16669 27.3567C3.16669 27.7601 3.16474 28.1585 3.20721 28.4879C3.25332 28.8457 3.36482 29.2512 3.68378 29.6037L5.16669 28.2617C5.2271 28.3284 5.20933 28.376 5.1908 28.2323C5.16863 28.0603 5.16669 27.8135 5.16669 27.3567H3.16669ZM3.16669 22.6433V27.3567H5.16669V22.6433H3.16669ZM3.68378 20.3963C3.36482 20.7488 3.25332 21.1542 3.20721 21.512C3.16474 21.8415 3.16669 22.2399 3.16669 22.6433H5.16669C5.16669 22.1865 5.16863 21.9397 5.1908 21.7677C5.20933 21.624 5.2271 21.6716 5.16669 21.7383L3.68378 20.3963ZM5.86818 19.6582C5.46681 19.6983 5.07019 19.736 4.74656 19.8111C4.39513 19.8926 4.00274 20.0439 3.68378 20.3963L5.16669 21.7383C5.10627 21.8051 5.05715 21.7921 5.19832 21.7594C5.36729 21.7202 5.61261 21.6937 6.06718 21.6483L5.86818 19.6582ZM9.03693 19.3413L5.86818 19.6582L6.06718 21.6483L9.23593 21.3314L9.03693 19.3413ZM10.8918 19.1558C10.9639 18.9819 11.1055 19.0265 10.7588 19.1137C10.4107 19.2013 9.8875 19.2563 9.03693 19.3413L9.23593 21.3314C10.0189 21.2531 10.7208 21.1856 11.2468 21.0533C11.7741 20.9206 12.4386 20.6479 12.7396 19.9212L10.8918 19.1558ZM9.71138 17.713C10.2527 18.3746 10.5838 18.7835 10.768 19.0915C10.9514 19.3984 10.8198 19.3297 10.8918 19.1558L12.7396 19.9212C13.0406 19.1945 12.7636 18.5318 12.4845 18.0651C12.2062 17.5997 11.7576 17.0556 11.2593 16.4466L9.71138 17.713ZM7.69455 15.248L9.71138 17.713L11.2593 16.4466L9.24247 13.9816L7.69455 15.248ZM6.67188 13.1815C6.6482 13.6563 6.81868 14.0407 7.00956 14.3468C7.18534 14.6287 7.43913 14.9358 7.69455 15.248L9.24247 13.9816C8.95318 13.628 8.79844 13.4358 8.70666 13.2886C8.62999 13.1656 8.67388 13.1912 8.6694 13.2811L6.67188 13.1815ZM7.89511 11.227C7.60988 11.5122 7.32679 11.7926 7.12384 12.0556C6.90344 12.3412 6.69556 12.7068 6.67188 13.1815L8.6694 13.2811C8.66491 13.3711 8.61869 13.3921 8.70722 13.2774C8.81319 13.1401 8.98629 12.9642 9.30932 12.6412L7.89511 11.227ZM11.228 7.89413L7.89511 11.227L9.30932 12.6412L12.6422 9.30835L11.228 7.89413ZM13.1825 6.67091C12.7077 6.69459 12.3422 6.90247 12.0565 7.12286C11.7935 7.32582 11.5132 7.60891 11.228 7.89413L12.6422 9.30835C12.9652 8.98532 13.1411 8.81222 13.2784 8.70625C13.3931 8.61772 13.372 8.66394 13.2821 8.66842L13.1825 6.67091ZM15.249 7.69358C14.9368 7.43816 14.6297 7.18436 14.3478 7.00859C14.0417 6.81771 13.6572 6.64723 13.1825 6.67091L13.2821 8.66842C13.1922 8.67291 13.1666 8.62901 13.2896 8.70569C13.4368 8.79747 13.629 8.95221 13.9825 9.2415L15.249 7.69358ZM17.7132 9.70977L15.249 7.69358L13.9825 9.2415L16.4468 11.2577L17.7132 9.70977ZM19.156 10.8902C19.3299 10.8182 19.3985 10.9498 19.0917 10.7664C18.7837 10.5822 18.3748 10.2511 17.7132 9.70977L16.4468 11.2577C17.0558 11.756 17.5998 12.2045 18.0653 12.4829C18.532 12.762 19.1947 13.039 19.9214 12.738L19.156 10.8902ZM19.3415 9.03531C19.2564 9.88589 19.2015 10.4091 19.1139 10.7572C19.0267 11.1039 18.9821 10.9623 19.156 10.8902L19.9214 12.738C20.6481 12.437 20.9208 11.7725 21.0535 11.2451C21.1858 10.7192 21.2533 10.0173 21.3316 9.23432L19.3415 9.03531ZM19.6582 5.86815L19.3415 9.03531L21.3316 9.23432L21.6483 6.06716L19.6582 5.86815ZM20.3963 3.68376C20.0439 4.00272 19.8926 4.39511 19.8111 4.74654C19.7361 5.07016 19.6984 5.46679 19.6582 5.86815L21.6483 6.06716C21.6938 5.61259 21.7202 5.36727 21.7594 5.19829C21.7922 5.05712 21.8051 5.10625 21.7383 5.16666L20.3963 3.68376ZM22.6433 3.16666C22.24 3.16666 21.8416 3.16472 21.5121 3.20719C21.1543 3.2533 20.7488 3.3648 20.3963 3.68376L21.7383 5.16666C21.6716 5.22708 21.624 5.2093 21.7677 5.19078C21.9398 5.16861 22.1865 5.16666 22.6433 5.16666V3.16666ZM27.3567 3.16666H22.6433V5.16666H27.3567V3.16666ZM29.6037 3.68376C29.2513 3.3648 28.8458 3.2533 28.488 3.20719C28.1585 3.16472 27.7601 3.16666 27.3567 3.16666V5.16666C27.8136 5.16666 28.0603 5.16861 28.2323 5.19078C28.3761 5.2093 28.3285 5.22708 28.2617 5.16666L29.6037 3.68376ZM32.3334 25C32.3334 29.0501 29.0501 32.3333 25 32.3333V34.3333C30.1547 34.3333 34.3334 30.1547 34.3334 25H32.3334ZM25 17.6667C29.0501 17.6667 32.3334 20.9499 32.3334 25H34.3334C34.3334 19.8453 30.1547 15.6667 25 15.6667V17.6667ZM17.6667 25C17.6667 20.9499 20.9499 17.6667 25 17.6667V15.6667C19.8454 15.6667 15.6667 19.8453 15.6667 25H17.6667ZM25 32.3333C20.9499 32.3333 17.6667 29.0501 17.6667 25H15.6667C15.6667 30.1547 19.8454 34.3333 25 34.3333V32.3333Z" fill="#222222"/>
</svg>
