<svg width="44" height="44" viewBox="0 0 44 44" fill="none" xmlns="http://www.w3.org/2000/svg">
<path d="M34.5355 11.6178L22.7878 6.58305C22.2847 6.36744 21.7152 6.36744 21.2122 6.58305L9.46444 11.6178C8.6452 11.9689 8.15717 12.8197 8.26772 13.7041L9.71404 25.2747C9.93419 27.0359 10.8152 28.6477 12.1787 29.784L20.7196 36.9014C21.4613 37.5195 22.5387 37.5195 23.2804 36.9014L31.8213 29.784C33.1848 28.6477 34.0658 27.0359 34.2859 25.2747L35.7323 13.7041L34.74 13.5801L35.7323 13.7041C35.8428 12.8197 35.3548 11.9689 34.5355 11.6178Z" stroke="#222222" stroke-width="2" stroke-linecap="round"/>
<path d="M16.5 22L21.5687 27.0687C21.7919 27.2918 22.1633 27.2551 22.3383 26.9925L29.3333 16.5" stroke="#222222" stroke-width="2" stroke-linecap="round"/>
</svg>
