<?xml version="1.0" encoding="UTF-8"?>
<svg xmlns="http://www.w3.org/2000/svg" xmlns:xlink="http://www.w3.org/1999/xlink" width="px" height="38px" viewBox="0 0 38 38" version="1.1">
<g id="surface1">
<path style="fill:none;stroke-width:2;stroke-linecap:butt;stroke-linejoin:round;stroke:rgb(13.333333%,13.333333%,13.333333%);stroke-opacity:1;stroke-miterlimit:4;" d="M 18 8.000822 L 12.999178 11.000822 L 11.000822 9 L 6.999178 9 M 18 8.000822 L 21 11.000822 M 18 8.000822 L 14.000822 15 L 3 15 L 3 9 L 6.999178 9 M 6.999178 9 L 6.999178 3.999178 M 6.999178 3.999178 L 3.999178 3.999178 M 6.999178 3.999178 L 9.999178 3.999178 " transform="matrix(1.583333,0,0,1.583333,0,0)"/>
<path style="fill:none;stroke-width:2;stroke-linecap:butt;stroke-linejoin:round;stroke:rgb(13.333333%,13.333333%,13.333333%);stroke-opacity:1;stroke-miterlimit:4;" d="M 3 21 L 4.5 19.5 C 4.578947 19.421053 4.618421 19.381579 4.655428 19.349507 C 5.417763 18.65625 6.582237 18.65625 7.344572 19.349507 C 7.381579 19.381579 7.421053 19.421053 7.5 19.5 L 7.648026 19.648026 C 8.395559 20.395559 9.604441 20.395559 10.351974 19.648026 L 10.724507 19.275493 C 11.385691 18.614309 12.483553 18.722862 12.999178 19.5 C 13.51727 20.277138 14.615132 20.385691 15.273849 19.724507 L 15.648849 19.351974 C 16.393914 18.604441 17.605263 18.604441 18.350329 19.351974 L 20.000822 21 " transform="matrix(1.583333,0,0,1.583333,0,0)"/>
</g>
</svg>
