<svg width="74" height="73" viewBox="0 0 74 73" fill="none" xmlns="http://www.w3.org/2000/svg">
<path d="M48.9951 65.8C49.4535 65.8 49.8251 65.4283 49.8251 64.97V63.0454H51.5533C54.4187 63.0454 56.7501 60.7144 56.7501 57.8489V20.4767C56.7501 17.6112 54.4187 15.2802 51.5533 15.2802H45.4362V11.13C45.4362 8.96283 43.6733 7.19999 41.5062 7.19999H32.455C30.2881 7.19999 28.5253 8.96283 28.5253 11.13V15.2802H22.4474C19.582 15.2802 17.2506 17.6112 17.2506 20.4767V57.8489C17.2506 60.7144 19.582 63.0454 22.4474 63.0454H24.136V64.97C24.136 65.4283 24.5077 65.8 24.966 65.8C25.4244 65.8 25.796 65.4283 25.796 64.97V63.0454H48.1651V64.97C48.1651 65.4283 48.5367 65.8 48.9951 65.8ZM30.1853 11.13C30.1853 9.87847 31.2035 8.85999 32.455 8.85999H41.5062C42.7577 8.85999 43.7762 9.87849 43.7762 11.13V15.2802H30.1853V11.13ZM22.4474 61.3854C20.4973 61.3854 18.9106 59.7987 18.9106 57.8489V20.4767C18.9106 18.5269 20.4973 16.9402 22.4474 16.9402H51.5533C53.5034 16.9402 55.0901 18.5269 55.0901 20.4767V57.8489C55.0901 59.7987 53.5034 61.3854 51.5533 61.3854H22.4474Z" fill="black" stroke="black" stroke-width="0.2"/>
<path d="M27.0786 22.2805C26.6203 22.2805 26.2486 22.6521 26.2486 23.1105V55.2148C26.2486 55.6732 26.6203 56.0448 27.0786 56.0448C27.537 56.0448 27.9086 55.6732 27.9086 55.2148V23.1105C27.9086 22.6521 27.537 22.2805 27.0786 22.2805Z" fill="black" stroke="black" stroke-width="0.2"/>
<path d="M37.0005 22.2805C36.5421 22.2805 36.1705 22.6521 36.1705 23.1105V55.2148C36.1705 55.6732 36.5421 56.0448 37.0005 56.0448C37.4589 56.0448 37.8305 55.6732 37.8305 55.2148V23.1105C37.8305 22.6521 37.4589 22.2805 37.0005 22.2805Z" fill="black" stroke="black" stroke-width="0.2"/>
<path d="M46.9204 22.2805C46.4621 22.2805 46.0904 22.6521 46.0904 23.1105V55.2148C46.0904 55.6732 46.4621 56.0448 46.9204 56.0448C47.3788 56.0448 47.7504 55.6732 47.7504 55.2148V23.1105C47.7504 22.6521 47.3788 22.2805 46.9204 22.2805Z" fill="black" stroke="black" stroke-width="0.2"/>
</svg>
