<svg width="28" height="54" viewBox="0 0 28 54" fill="none" xmlns="http://www.w3.org/2000/svg">
<path fill-rule="evenodd" clip-rule="evenodd" d="M16.9541 54C10.9424 54 6.09082 49.1484 6.09082 43.2422C6.09082 39.4453 8.09473 35.9648 11.2588 34.0664V5.69531C11.2588 2.53125 13.79 0 16.9541 0C20.1182 0 22.6494 2.53125 22.6494 5.69531V34.0664C25.8135 35.9648 27.7119 39.4453 27.7119 43.2422C27.7119 49.1484 22.8604 54 16.9541 54ZM16.9541 1.47656C14.6338 1.47656 12.7354 3.375 12.7354 5.69531V34.3828C12.7354 34.6992 12.6299 34.9102 12.3135 35.1211C9.46582 36.7031 7.56738 39.8672 7.56738 43.2422C7.56738 48.3047 11.7861 52.5234 16.9541 52.5234C22.1221 52.5234 26.2354 48.3047 26.2354 43.2422C26.2354 39.8672 24.4424 36.7031 21.4893 35.1211C21.2783 34.9102 21.1729 34.6992 21.1729 34.3828V5.69531C21.1729 3.375 19.2744 1.47656 16.9541 1.47656Z" fill="black"/>
<path fill-rule="evenodd" clip-rule="evenodd" d="M16.9541 48.4102C14.001 48.4102 11.6807 46.0898 11.6807 43.2422C11.6807 40.2891 14.001 37.9688 16.9541 37.9688C19.8018 37.9688 22.2275 40.2891 22.2275 43.2422C22.2275 46.0898 19.8018 48.4102 16.9541 48.4102ZM16.9541 39.4453C14.8447 39.4453 13.1572 41.1328 13.1572 43.2422C13.1572 45.2461 14.8447 46.9336 16.9541 46.9336C19.0635 46.9336 20.751 45.2461 20.751 43.2422C20.751 41.1328 19.0635 39.4453 16.9541 39.4453Z" fill="black"/>
<path fill-rule="evenodd" clip-rule="evenodd" d="M18.5361 7.69922H11.9971C11.5752 7.69922 11.2588 7.38281 11.2588 6.96094C11.2588 6.53906 11.5752 6.22266 11.9971 6.22266H18.5361C18.8525 6.22266 19.2744 6.53906 19.2744 6.96094C19.2744 7.38281 18.8525 7.69922 18.5361 7.69922Z" fill="black"/>
<path fill-rule="evenodd" clip-rule="evenodd" d="M17.0596 10.6523H11.9971C11.5752 10.6523 11.2588 10.3359 11.2588 9.91406C11.2588 9.59766 11.5752 9.17578 11.9971 9.17578H17.0596C17.4814 9.17578 17.7979 9.59766 17.7979 9.91406C17.7979 10.3359 17.4814 10.6523 17.0596 10.6523Z" fill="black"/>
<path fill-rule="evenodd" clip-rule="evenodd" d="M18.5361 13.7109H11.9971C11.5752 13.7109 11.2588 13.3945 11.2588 12.9727C11.2588 12.5508 11.5752 12.2344 11.9971 12.2344H18.5361C18.8525 12.2344 19.2744 12.5508 19.2744 12.9727C19.2744 13.3945 18.8525 13.7109 18.5361 13.7109Z" fill="black"/>
<path fill-rule="evenodd" clip-rule="evenodd" d="M15.583 16.7695H11.9971C11.5752 16.7695 11.2588 16.4531 11.2588 16.0312C11.2588 15.6094 11.5752 15.293 11.9971 15.293H15.583C16.0049 15.293 16.3213 15.6094 16.3213 16.0312C16.3213 16.4531 16.0049 16.7695 15.583 16.7695Z" fill="black"/>
<path fill-rule="evenodd" clip-rule="evenodd" d="M18.5361 19.7227H11.9971C11.5752 19.7227 11.2588 19.4062 11.2588 18.9844C11.2588 18.668 11.5752 18.2461 11.9971 18.2461H18.5361C18.8525 18.2461 19.2744 18.668 19.2744 18.9844C19.2744 19.4062 18.8525 19.7227 18.5361 19.7227Z" fill="black"/>
<path fill-rule="evenodd" clip-rule="evenodd" d="M15.583 22.7812H11.9971C11.5752 22.7812 11.2588 22.4648 11.2588 22.043C11.2588 21.6211 11.5752 21.3047 11.9971 21.3047H15.583C16.0049 21.3047 16.3213 21.6211 16.3213 22.043C16.3213 22.4648 16.0049 22.7812 15.583 22.7812Z" fill="black"/>
<path fill-rule="evenodd" clip-rule="evenodd" d="M16.9541 39.4453C16.5322 39.4453 16.2158 39.1289 16.2158 38.707V27.5273C16.2158 27.2109 16.5322 26.7891 16.9541 26.7891C17.376 26.7891 17.6924 27.2109 17.6924 27.5273V38.707C17.6924 39.1289 17.376 39.4453 16.9541 39.4453Z" fill="black"/>
<path fill-rule="evenodd" clip-rule="evenodd" d="M3.98145 28.3711C3.66504 28.3711 3.24316 28.0547 3.24316 27.6328V10.0195C3.24316 9.70312 3.66504 9.28125 3.98145 9.28125C4.40332 9.28125 4.71973 9.70312 4.71973 10.0195V27.6328C4.71973 28.0547 4.40332 28.3711 3.98145 28.3711Z" fill="black"/>
<path fill-rule="evenodd" clip-rule="evenodd" d="M3.98197 28.3711C3.77103 28.3711 3.66557 28.2656 3.45463 28.1601L0.396034 24.5742C0.185096 24.2578 0.185096 23.8359 0.501503 23.5195C0.817909 23.3086 1.34525 23.3086 1.55619 23.625L3.98197 26.4726L6.51322 23.625C6.72416 23.3086 7.2515 23.3086 7.56791 23.5195C7.88431 23.8359 7.88431 24.2578 7.56791 24.5742L4.61478 28.1601C4.40385 28.2656 4.29838 28.3711 3.98197 28.3711Z" fill="black"/>
</svg>
