<?xml version="1.0" encoding="UTF-8"?>
<svg xmlns="http://www.w3.org/2000/svg" xmlns:xlink="http://www.w3.org/1999/xlink" width="128px" height="128px" viewBox="0 0 128 128" version="1.1">
<g id="surface1">
<path style=" stroke:none;fill-rule:nonzero;fill:rgb(0%,0%,0%);fill-opacity:1;" d="M 100.753906 50.691406 L 94.53125 50.691406 C 94.53125 50.691406 94.53125 50.605469 94.441406 50.566406 L 74.519531 32 C 75.777344 29.171875 75.675781 25.925781 74.242188 23.183594 C 72.8125 20.441406 70.207031 18.503906 67.167969 17.921875 L 67.167969 8.238281 C 67.167969 7.1875 66.316406 6.335938 65.265625 6.335938 C 64.21875 6.335938 63.367188 7.1875 63.367188 8.238281 L 63.367188 19.644531 C 63.367188 20.695312 64.21875 21.542969 65.265625 21.542969 C 67.171875 21.542969 68.972656 22.398438 70.175781 23.875 C 71.378906 25.347656 71.859375 27.285156 71.476562 29.148438 L 66.558594 24.585938 C 65.839844 23.941406 64.746094 23.941406 64.023438 24.585938 L 59.070312 29.007812 C 58.988281 28.636719 58.941406 28.261719 58.929688 27.882812 C 58.929688 26.832031 58.078125 25.980469 57.03125 25.980469 C 55.980469 25.980469 55.128906 26.832031 55.128906 27.882812 C 55.132812 29.21875 55.398438 30.539062 55.914062 31.773438 L 34.851562 50.539062 C 34.8125 50.589844 34.773438 50.640625 34.738281 50.691406 L 28.515625 50.691406 C 27.464844 50.691406 26.613281 51.542969 26.613281 52.59375 L 26.613281 110.890625 C 26.613281 111.941406 27.464844 112.792969 28.515625 112.792969 L 100.753906 112.792969 C 101.800781 112.792969 102.652344 111.941406 102.652344 110.890625 L 102.652344 52.59375 C 102.652344 51.542969 101.800781 50.691406 100.753906 50.691406 Z M 65.265625 28.554688 L 69.550781 32.546875 C 67.089844 34.863281 63.230469 34.8125 60.832031 32.429688 Z M 58.03125 34.976562 C 61.933594 38.949219 68.3125 39.03125 72.3125 35.15625 L 89.003906 50.691406 L 40.402344 50.691406 Z M 98.851562 108.988281 L 30.414062 108.988281 L 30.414062 54.496094 L 98.851562 54.496094 Z M 98.851562 108.988281 "/>
<path style=" stroke:none;fill-rule:nonzero;fill:rgb(0%,0%,0%);fill-opacity:1;" d="M 51.328125 92.515625 C 52.375 92.515625 53.226562 91.664062 53.226562 90.613281 L 53.226562 72.871094 C 53.226562 71.820312 52.375 70.96875 51.328125 70.96875 C 50.277344 70.96875 49.425781 71.820312 49.425781 72.871094 L 49.425781 90.613281 C 49.425781 91.664062 50.277344 92.515625 51.328125 92.515625 Z M 51.328125 92.515625 "/>
<path style=" stroke:none;fill-rule:nonzero;fill:rgb(0%,0%,0%);fill-opacity:1;" d="M 65.265625 92.515625 C 66.316406 92.515625 67.167969 91.664062 67.167969 90.613281 L 67.167969 72.871094 C 67.167969 71.820312 66.316406 70.96875 65.265625 70.96875 C 64.21875 70.96875 63.367188 71.820312 63.367188 72.871094 L 63.367188 90.613281 C 63.367188 91.664062 64.21875 92.515625 65.265625 92.515625 Z M 65.265625 92.515625 "/>
<path style=" stroke:none;fill-rule:nonzero;fill:rgb(0%,0%,0%);fill-opacity:1;" d="M 77.941406 92.515625 C 78.992188 92.515625 79.839844 91.664062 79.839844 90.613281 L 79.839844 72.871094 C 79.839844 71.820312 78.992188 70.96875 77.941406 70.96875 C 76.890625 70.96875 76.039062 71.820312 76.039062 72.871094 L 76.039062 90.613281 C 76.039062 91.664062 76.890625 92.515625 77.941406 92.515625 Z M 77.941406 92.515625 "/>
</g>
</svg>
