<svg width="32" height="32" viewBox="0 0 32 32" fill="none" xmlns="http://www.w3.org/2000/svg">
<path d="M16 0.0256348C7.17205 0.0256348 0 7.19768 0 16.0256C0 24.0396 5.91093 30.6717 13.6094 31.8282L14.4446 31.9546V19.3467H10.6648V16.787H14.4446V13.3879C14.4446 11.2947 14.9469 9.91612 15.7784 9.0512C16.6099 8.18629 17.8385 7.75007 19.5483 7.75007C20.9154 7.75007 21.4473 7.8329 21.9531 7.89495V9.99012H20.1733C19.1634 9.99012 18.3349 10.5536 17.9048 11.304C17.4748 12.0545 17.3409 12.9506 17.3409 13.8637V16.7856H21.794L21.3977 19.3452H17.3409V31.9745L18.1662 31.8623C25.9741 30.8034 32 24.1179 32 16.0256C32 7.19768 24.828 0.0256348 16 0.0256348ZM16 1.48018C24.0419 1.48018 30.5455 7.98377 30.5455 16.0256C30.5455 23.1018 25.4806 28.9215 18.7955 30.2316V20.7998H22.6449L23.4901 15.331H18.7955V13.8637C18.7955 13.1092 18.9335 12.4331 19.1662 12.0271C19.3989 11.621 19.6232 11.4447 20.1733 11.4447H23.4077V6.57819L22.777 6.49296C22.3408 6.43394 21.3449 6.29552 19.5483 6.29552C17.5824 6.29552 15.895 6.83105 14.7301 8.04268C13.5653 9.25431 12.9901 11.0585 12.9901 13.3879V15.3325H9.21023V20.8012H12.9901V30.1861C6.41236 28.7928 1.45455 23.0252 1.45455 16.0256C1.45455 7.98377 7.95814 1.48018 16 1.48018Z" fill="white"/>
</svg>
