<svg width="32" height="32" viewBox="0 0 32 32" fill="none" xmlns="http://www.w3.org/2000/svg">
<path d="M16 0C7.17205 0 0 7.17205 0 16C0 24.0139 5.91093 30.6461 13.6094 31.8026L14.4446 31.929V19.321H10.6648V16.7614H14.4446V13.3622C14.4446 11.2691 14.9469 9.89049 15.7784 9.02557C16.6099 8.16065 17.8385 7.72443 19.5483 7.72443C20.9154 7.72443 21.4473 7.80727 21.9531 7.86932V9.96449H20.1733C19.1634 9.96449 18.3349 10.5279 17.9048 11.2784C17.4748 12.0289 17.3409 12.925 17.3409 13.8381V16.7599H21.794L21.3977 19.3196H17.3409V31.9489L18.1662 31.8366C25.9741 30.7777 32 24.0923 32 16C32 7.17205 24.828 0 16 0ZM16 1.45455C24.0419 1.45455 30.5455 7.95814 30.5455 16C30.5455 23.0762 25.4806 28.8959 18.7955 30.206V20.7741H22.6449L23.4901 15.3054H18.7955V13.8381C18.7955 13.0835 18.9335 12.4075 19.1662 12.0014C19.3989 11.5954 19.6232 11.419 20.1733 11.419H23.4077V6.55256L22.777 6.46733C22.3408 6.4083 21.3449 6.26989 19.5483 6.26989C17.5824 6.26989 15.895 6.80542 14.7301 8.01705C13.5653 9.22867 12.9901 11.0328 12.9901 13.3622V15.3068H9.21023V20.7756H12.9901V30.1605C6.41236 28.7671 1.45455 22.9996 1.45455 16C1.45455 7.95814 7.95814 1.45455 16 1.45455Z" fill="black"/>
</svg>
