<svg width="46" height="46" viewBox="0 0 46 46" fill="none" xmlns="http://www.w3.org/2000/svg">
<path d="M22.9997 3.83337C12.4139 3.83337 3.83301 12.4143 3.83301 23C3.83301 33.5858 12.4139 42.1667 22.9997 42.1667C33.5854 42.1667 42.1663 33.5858 42.1663 23C42.1663 12.4143 33.5854 3.83337 22.9997 3.83337Z" fill="url(#paint0_linear_1_35)"/>
<path d="M25.593 28.0802H30.5534L31.3325 23.0413H25.593V20.287C25.593 18.194 26.2773 16.3377 28.2351 16.3377H31.3814V11.9409C30.8284 11.8662 29.6592 11.7032 27.4503 11.7032C22.8369 11.7032 20.1324 14.1393 20.1324 19.69V23.0422H15.3896V28.0812H20.1315V41.931C21.0706 42.0709 22.0223 42.1667 22.9988 42.1667C23.8814 42.1667 24.743 42.0863 25.593 41.9713V28.0802Z" fill="white"/>
<defs>
<linearGradient id="paint0_linear_1_35" x1="9.5763" y1="9.57667" x2="38.9224" y2="38.9227" gradientUnits="userSpaceOnUse">
<stop stop-color="#2AA4F4"/>
<stop offset="1" stop-color="#007AD9"/>
</linearGradient>
</defs>
</svg>
