<svg width="38" height="38" viewBox="0 0 38 38" fill="none" xmlns="http://www.w3.org/2000/svg">
<path d="M18.6084 0.0741395L0.744337 6.401C0.297735 6.54987 0 6.99647 0 7.44308V29.7732C0 30.257 0.297735 30.6664 0.744337 30.8153L18.6084 37.1421C18.7201 37.1793 18.8689 37.2166 18.9806 37.2166C19.055 37.2166 19.0922 37.2166 19.1667 37.2166H19.2039C19.2411 37.2166 19.2783 37.1793 19.3155 37.1793L37.1796 30.8525C37.6262 30.7036 37.924 30.257 37.924 29.8104V7.44308V7.40586C37.924 7.36864 37.924 7.29421 37.924 7.25699V7.21978C37.8495 6.84761 37.589 6.51265 37.2168 6.401L28.2848 3.23757H28.2476C28.0243 3.16314 27.7266 3.12592 27.466 3.23757L10.0485 9.37835C9.60195 9.52722 9.30421 9.97382 9.30421 10.4204V14.5143C9.30421 15.147 9.78803 15.6308 10.4207 15.6308C11.0534 15.6308 11.5372 15.147 11.5372 14.5143V11.202L27.8382 5.43337L33.4952 7.44308L18.6084 12.7279C18.1618 12.8767 17.8641 13.2861 17.8641 13.7699C17.8641 13.7699 17.8641 13.7699 17.8641 13.8072V34.5742L2.23301 28.9916V8.22463L19.3528 2.15828C19.9482 1.93498 20.246 1.3023 20.0227 0.744043C19.8366 0.148573 19.2039 -0.149162 18.6084 0.0741395ZM20.0971 14.5515L35.7282 9.00618V28.9544L20.0971 34.4997V14.5515Z" fill="#212121"/>
</svg>
