<svg width="52" height="52" viewBox="0 0 52 52" fill="none" xmlns="http://www.w3.org/2000/svg">
<path d="M45.1424 14.6033C44.7091 14.885 44.0916 15.145 43.8316 15.4375C43.7341 15.535 43.6799 15.6433 43.7016 15.7517V16.8675L43.3766 17.9617L43.0516 19.045L42.6941 20.2367L41.9574 22.6742L41.2424 25.0792L40.7008 26.8883C40.7008 27.17 40.6899 27.4517 40.6683 27.7225C40.5924 28.7625 40.3758 29.7592 40.0291 30.6908C39.8233 31.265 39.5741 31.8175 39.2708 32.3375C39.1624 32.5433 39.0324 32.7492 38.9024 32.9442C38.4691 33.6267 37.9491 34.255 37.3749 34.8075C36.9308 35.2517 36.4433 35.6633 35.9124 36.01C35.9124 36.01 35.9124 36.01 35.9016 36.01C35.8149 36.0858 35.7174 36.1508 35.6091 36.205C35.2733 36.4325 34.9158 36.6275 34.5474 36.8008C34.2983 36.9308 34.0491 37.0392 33.7891 37.1367C33.7349 37.1692 33.6699 37.1908 33.6158 37.2125C32.9983 37.505 32.2833 37.7 31.5683 37.7975C31.5249 37.8083 31.4924 37.8083 31.4491 37.8192C31.0158 37.895 30.5933 37.96 30.1599 37.9925C29.9649 38.0142 29.7591 38.025 29.5641 38.025L28.7949 37.9817L25.0899 37.7867C25.0899 37.7758 25.0791 37.7867 25.0791 37.7867L23.2158 37.6892C23.0749 37.6892 22.9233 37.6892 22.7824 37.6783C22.1974 37.6567 21.6341 37.5917 21.0708 37.4725C21.0599 37.4725 21.0599 37.4725 21.0599 37.4725C20.0308 37.2775 19.0449 36.9308 18.1241 36.465C17.6149 36.205 17.1166 35.9125 16.6508 35.5767C16.4558 35.4358 16.2716 35.2842 16.0874 35.1217C15.5674 34.6883 15.1016 34.2225 14.6683 33.7458C14.6033 33.6808 14.5491 33.6158 14.4949 33.5508C14.4299 33.4858 14.3649 33.41 14.3108 33.345C13.8991 32.825 13.5524 32.2942 13.2708 31.7308C13.0108 31.2325 12.8049 30.7017 12.6424 30.1167C12.5774 29.9108 12.5233 29.7158 12.4799 29.4992C12.4691 29.4883 12.4583 29.4667 12.4583 29.445C12.3499 29.0008 12.2524 28.535 12.1983 28.0692C12.1333 27.7117 12.1008 27.3542 12.1008 26.9858C12.0791 26.845 12.0791 26.6933 12.0791 26.5525L14.1483 23.3567L16.1741 20.2367L17.0949 18.8175L17.9291 17.5392L18.2108 17.095V15.9792C18.2324 15.73 18.2433 15.47 18.2324 15.2317C18.2216 14.4733 18.0699 13.7367 17.8208 13.0325C17.5824 12.285 17.2466 11.5808 16.8999 10.9308C16.4883 10.1833 16.0549 9.51167 15.6974 8.905C15.1666 8.01667 14.7983 7.29083 14.8958 6.78167C15.6758 6.5975 16.4991 6.5 17.3333 6.5H34.6666C39.1949 6.5 43.0949 9.31667 44.7091 13.2817C44.8824 13.7042 45.0341 14.1483 45.1424 14.6033Z" fill="#304FFE"/>
<path d="M45.4996 17.3333V17.6258L44.0046 18.4925L43.0512 19.045L42.0004 19.6517L39.8987 20.8758L37.8404 22.0675L35.7387 23.2808L34.9046 23.7683C34.9046 24.2883 34.7746 24.765 34.5362 25.1983C34.2004 25.8267 33.6371 26.3467 32.9221 26.7908C32.1962 27.235 31.3079 27.5925 30.3112 27.8525C30.3112 27.8525 30.3112 27.8417 30.3004 27.8525C26.4437 28.8492 21.1787 28.3942 18.6221 26.4875C17.9071 25.9567 17.4087 25.3067 17.1921 24.5592C17.1271 24.31 17.0946 24.0392 17.0946 23.7683V15.9792C17.1054 15.8167 16.9971 15.6542 16.8021 15.4917C16.2171 15.0258 14.8412 14.5817 13.3029 14.1375C12.1004 13.8017 10.8112 13.4658 9.72789 13.1408C8.87206 12.8808 8.14622 12.6208 7.71289 12.3717C7.90789 11.9925 8.13539 11.6133 8.37372 11.2558C9.89039 9.035 12.2087 7.39917 14.8954 6.78167C15.6754 6.5975 16.4987 6.5 17.3329 6.5H29.0329C34.8504 7.51833 40.2129 9.89083 44.7087 13.2817C44.8821 13.7042 45.0337 14.1483 45.1421 14.6033C45.3371 15.3183 45.4562 16.055 45.4887 16.8242C45.4996 16.9867 45.4996 17.16 45.4996 17.3333Z" fill="#4928F4"/>
<path d="M45.5004 17.3334V22.1109L45.2621 22.8476L44.4496 25.3717L43.6046 27.9717L43.1604 29.3584L42.7487 30.6476L42.3479 31.8717L41.9579 33.0851L41.7521 33.7242L41.4812 34.5692C41.4812 35.3926 41.4596 36.1184 41.4054 36.7359C41.3946 36.8009 41.3837 36.8659 41.3837 36.9309C41.3187 37.5051 41.2321 37.9926 41.0912 38.4042C41.0804 38.4692 41.0587 38.5342 41.0371 38.5884C40.7554 39.3684 40.3329 39.8667 39.7046 40.1917C39.5529 40.2784 39.3796 40.3434 39.1954 40.4084C38.6212 40.6034 37.8954 40.7009 37.0071 40.7551C36.3571 40.7984 35.6096 40.8092 34.7646 40.8092H34.0171L32.7279 40.7551L32.5004 40.7442L30.1496 40.6467L27.7662 40.5492L19.9121 40.2242L17.8754 40.1376H17.5937C16.7487 40.1267 16.0229 40.0726 15.3946 39.9859C14.4846 39.8451 13.7804 39.6067 13.2496 39.2492C12.4912 38.7617 12.0471 38.0467 11.7871 37.0501C11.7221 36.8117 11.6679 36.5626 11.6354 36.2917C11.5271 35.6634 11.4729 34.9376 11.4404 34.1251C11.4404 33.9626 11.4404 33.8001 11.4296 33.6267C11.4187 33.6159 11.4296 33.6159 11.4296 33.6159V32.9876C11.4187 32.6734 11.4187 32.3484 11.4187 32.0126L11.4729 30.2684L11.5054 29.0226L11.5487 27.5709V27.3651L11.6246 24.7001L11.7004 22.0351L11.7762 19.5326L11.8412 17.0734L11.8629 16.4234C11.8629 16.0876 10.7254 15.8926 9.4579 15.7301C8.4504 15.6001 7.3454 15.4809 6.68457 15.3292C6.73874 15.0801 6.7929 14.8309 6.8579 14.5926C7.0529 13.8126 7.3454 13.0759 7.71374 12.3717C7.90874 11.9926 8.13624 11.6134 8.37457 11.2559C10.7146 10.2267 13.1521 9.42506 15.6979 8.90506C17.9296 8.43923 20.2587 8.19006 22.6637 8.19006C30.6371 8.19006 38.0037 10.8876 43.8321 15.4376C44.3954 15.8709 44.9479 16.3367 45.4896 16.8242C45.5004 16.9867 45.5004 17.1601 45.5004 17.3334Z" fill="#6200EA"/>
<path d="M45.5 19.9009V24.8192L44.9042 25.9676L43.7667 28.1884L43.16 29.3584L42.6075 30.4309L42.3692 30.8967C42.3692 31.2326 42.3692 31.5576 42.3475 31.8717C42.3475 32.3376 42.3258 32.7817 42.2933 33.1934C42.25 33.6809 42.185 34.1251 42.12 34.5367C41.9575 35.3926 41.73 36.1292 41.405 36.7359C41.3617 36.8117 41.3183 36.8876 41.275 36.9526C41.1558 37.1476 41.015 37.3317 40.8633 37.5051C40.6683 37.7434 40.4517 37.9492 40.2025 38.1226C39.8342 38.4042 39.4008 38.6317 38.9025 38.8051C38.285 39.0326 37.57 39.1842 36.725 39.2709C36.1725 39.3251 35.5658 39.3576 34.905 39.3576L34.45 39.3792L32.1967 39.5092H32.1858L29.7917 39.6501L27.3542 39.7909L23.9958 39.9859L19.9117 40.2242L19.3158 40.2567C18.7633 40.2567 18.2433 40.2242 17.745 40.1592C17.6908 40.1484 17.6475 40.1376 17.5933 40.1376C16.8567 40.0184 16.185 39.8234 15.5783 39.5526C14.8417 39.2276 14.2025 38.7942 13.6608 38.2742C13.1842 37.8084 12.7725 37.2776 12.4367 36.6817C12.3608 36.5409 12.285 36.4109 12.22 36.2592C11.895 35.6201 11.635 34.9051 11.44 34.1251C11.4075 33.9951 11.375 33.8542 11.3533 33.7134C11.2883 33.4642 11.2342 33.2042 11.2017 32.9334C11.0825 32.2401 11.0175 31.5034 10.985 30.7342V30.7234C10.9742 30.4092 10.9633 30.1059 10.9633 29.7809L10.4325 28.5134L10.3567 28.3184L10.2917 28.1559L9.47917 26.2167L9.34917 25.9026L8.56917 24.0284L7.7025 21.9376C7.7025 21.9376 7.7025 21.9376 7.69167 21.9376L6.81417 19.8251L6.5 19.0559V17.3334C6.5 16.6509 6.565 15.9792 6.68417 15.3292C6.73833 15.0801 6.7925 14.8309 6.8575 14.5926C7.77833 14.0617 8.7425 13.5742 9.72833 13.1409C11.9817 12.1334 14.3975 11.3859 16.9 10.9309C18.7633 10.5951 20.7025 10.4109 22.6633 10.4109C30.5825 10.4109 37.765 13.2817 43.3767 17.9617C43.5933 18.1351 43.7992 18.3084 44.005 18.4926C44.5142 18.9367 45.0125 19.4026 45.5 19.9009Z" fill="#673AB7"/>
<path d="M45.5 23.1294V28.6977L44.8825 29.9869L43.7125 32.4244L43.7017 32.4569C43.7017 32.9227 43.68 33.3452 43.6475 33.7244C43.5392 34.9702 43.2358 35.761 42.7375 36.2485C42.38 36.6169 41.9358 36.8227 41.3833 36.931C41.3508 36.9419 41.3075 36.9419 41.275 36.9527C41.1017 36.9852 40.9175 37.0069 40.7225 37.0069C40.0508 37.0719 39.26 37.0285 38.35 36.9635C38.2525 36.9635 38.1442 36.9527 38.0358 36.9419C37.375 36.8985 36.6708 36.8552 35.8908 36.8227C35.4683 36.8119 35.0242 36.801 34.5692 36.801H34.5475L33.4533 36.8877H33.4425L30.9833 37.061L28.1775 37.2777L27.7658 37.3102L24.4833 37.5485L22.7825 37.6785L21.1033 37.7977C20.8108 37.7977 20.5292 37.7977 20.2475 37.7869C20.2475 37.7869 20.2367 37.776 20.2367 37.7869C19.0125 37.7652 17.9183 37.6894 16.9433 37.5052C16.0442 37.3535 15.2533 37.1152 14.5817 36.7577C13.8883 36.4219 13.3142 35.9452 12.8483 35.3385C12.4042 34.7427 12.0792 33.9952 11.8733 33.096C11.8733 33.0852 11.8733 33.0852 11.8733 33.0852C11.7217 32.3594 11.635 31.5144 11.635 30.561L11.4725 30.2685L10.5083 28.546L10.3675 28.3077L10.2917 28.156L9.28417 26.3685L8.78583 25.4694L8.1575 24.3535L7.07417 22.4144L6.5 21.396V17.4094C7.45333 16.781 8.43917 16.2285 9.4575 15.7302C10.6925 15.1019 11.9708 14.571 13.3033 14.1377C14.755 13.661 16.2717 13.2819 17.8208 13.0327C19.3917 12.7727 21.0058 12.6427 22.6633 12.6427C30.03 12.6427 36.79 15.2752 42.0008 19.6519C42.2392 19.836 42.4667 20.0419 42.6942 20.2369C43.6042 21.0494 44.4708 21.9269 45.2617 22.8477C45.3483 22.9452 45.435 23.0319 45.5 23.1294Z" fill="#8E24AA"/>
<path d="M45.5 26.7692V34.6017C45.24 34.4501 44.8825 34.2659 44.4383 34.0709C44.2 33.9517 43.9292 33.8326 43.6475 33.7242C43.2358 33.5401 42.7917 33.3667 42.2933 33.1934C42.185 33.1501 42.0767 33.1176 41.9575 33.0851C41.7625 33.0092 41.5567 32.9442 41.3508 32.8792C40.7117 32.6842 40.0075 32.5001 39.2708 32.3376C38.9892 32.2834 38.6967 32.2292 38.4042 32.1859C37.4617 32.0234 36.4542 31.9259 35.4033 31.9151C35.3167 31.9042 35.2192 31.9042 35.1325 31.9042L32.3483 31.9259L28.5567 31.9476H28.5458L20.4317 32.0126C17.8533 32.0126 16.2717 32.6301 15.3183 32.8792C15.3183 32.8792 15.3075 32.8792 15.3075 32.8901C14.3 33.1501 13.9858 32.9876 13.8992 31.2217C13.8775 30.7342 13.8667 30.1059 13.8667 29.3367L13.26 28.8709L12.1983 28.0692L11.5483 27.5709L11.4183 27.4734L9.62 26.1084L9.34917 25.9026L8.78583 25.4692L7.74583 24.6892L6.5 23.7359V20.0526C6.60833 19.9659 6.70583 19.8901 6.81417 19.8251C8.385 18.7417 10.0642 17.8209 11.8408 17.0734C13.4225 16.4017 15.0908 15.8709 16.8025 15.4917C17.2683 15.3942 17.745 15.2967 18.2325 15.2317C19.6733 14.9826 21.1575 14.8634 22.6633 14.8634C29.1742 14.8634 35.1542 17.1276 39.8992 20.8759C40.6142 21.4392 41.3075 22.0351 41.9575 22.6742C42.8458 23.5192 43.68 24.4184 44.4492 25.3717C44.6008 25.5667 44.7525 25.7617 44.9042 25.9676C45.11 26.2276 45.305 26.4984 45.5 26.7692Z" fill="#C2185B"/>
<path d="M45.5 31.1134V34.6668C45.5 35.3709 45.435 36.0643 45.305 36.7359C45.11 37.7326 44.7742 38.6859 44.3192 39.5743C44.0808 39.6284 43.81 39.6284 43.5067 39.5851C42.8242 39.4659 42.0225 39.1084 41.1558 38.6426C41.1125 38.6318 41.0692 38.6101 41.0367 38.5884C40.7658 38.4476 40.4842 38.2959 40.2025 38.1226C39.6283 37.8084 39.0217 37.4618 38.415 37.1368C38.285 37.0718 38.155 37.0068 38.0358 36.9418C37.3425 36.5843 36.6275 36.2593 35.9125 36.0101C35.9125 36.0101 35.9125 36.0101 35.9017 36.0101C35.75 35.9559 35.5875 35.9018 35.425 35.8584C34.8075 35.6851 34.1792 35.5768 33.5725 35.5768L32.3808 35.2301L27.105 33.7026C27.105 33.7026 27.105 33.7026 27.0942 33.7026L23.855 32.7601H23.8442L22.4358 32.3484C18.3625 32.3484 15.86 34.0818 14.6467 33.4209C14.17 33.1718 13.8883 32.5434 13.7908 31.3084C13.7583 30.9618 13.7475 30.5718 13.7475 30.1168L12.48 29.4993L12.4258 29.4776H12.415L11.505 29.0226L10.5083 28.5459L10.4325 28.5134L10.2483 28.4159L8.125 27.3868L6.5 26.5959V22.8801C6.68417 22.7176 6.87917 22.5659 7.07417 22.4143C7.28 22.2518 7.48583 22.1001 7.69167 21.9376C7.7025 21.9376 7.7025 21.9376 7.7025 21.9376C8.98083 21.0168 10.335 20.2043 11.7758 19.5326C13.455 18.7309 15.2425 18.1134 17.095 17.7126C17.3658 17.6476 17.6475 17.5826 17.9292 17.5393C19.4675 17.2468 21.0492 17.0951 22.6633 17.0951C28.3725 17.0951 33.6158 18.9476 37.8408 22.0676C39.065 22.9776 40.2025 23.9851 41.2425 25.0793C42.0983 25.9784 42.8892 26.9534 43.6042 27.9718C43.6583 28.0476 43.7125 28.1234 43.7667 28.1884C44.1675 28.7734 44.5358 29.3693 44.8825 29.9868C45.11 30.3551 45.305 30.7343 45.5 31.1134Z" fill="#D81B60"/>
<path d="M45.305 36.7358C45.11 37.7325 44.7742 38.6858 44.3192 39.5741C44.1133 39.975 43.8858 40.3541 43.6367 40.7225C43.485 40.95 43.3225 41.1666 43.16 41.3725C42.77 41.2208 42.1958 41.0041 41.4917 40.7658C41.4917 40.7658 41.4917 40.7658 41.4917 40.755C40.9608 40.5708 40.3542 40.3758 39.7042 40.1916C39.52 40.1375 39.3358 40.0833 39.1408 40.0291C38.3717 39.8233 37.57 39.6391 36.79 39.5308C36.14 39.4225 35.5008 39.3575 34.905 39.3575L34.4067 39.2166H34.3958L31.7742 38.4583L30.16 37.9925L28.3617 37.4725H28.3508L27.7658 37.31L20.6917 35.2733L18.655 34.6883L17.1383 34.3308L14.6683 33.7458L14.365 33.67C14.365 33.67 14.365 33.67 14.3542 33.67L11.8733 33.0958C11.8733 33.085 11.8733 33.085 11.8733 33.085L11.4292 32.9875L11.2017 32.9333L9.3925 32.5108L9.18667 32.4566L7.64833 31.1891L6.5 30.225V25.805C6.90083 25.415 7.3125 25.0466 7.74583 24.6891C7.87583 24.57 8.01667 24.4616 8.1575 24.3533C8.2875 24.245 8.42833 24.1366 8.56917 24.0283C9.555 23.2808 10.595 22.6091 11.7 22.035C13.1083 21.2766 14.6033 20.67 16.1742 20.2366C16.4775 20.1391 16.7808 20.0525 17.095 19.9875C18.8717 19.5433 20.735 19.3158 22.6633 19.3158C27.5058 19.3158 32.0125 20.7783 35.7392 23.2808C37.5917 24.5266 39.26 26.0216 40.6683 27.7225C41.3833 28.5783 42.0333 29.4775 42.6075 30.4308C42.6617 30.5066 42.705 30.5716 42.7483 30.6475C43.095 31.2216 43.42 31.8175 43.7125 32.4241C43.9833 32.9658 44.2217 33.5075 44.4383 34.0708C44.785 34.9375 45.0667 35.8258 45.305 36.7358Z" fill="#F50057"/>
<path d="M43.6367 40.7226C43.485 40.9501 43.3225 41.1668 43.16 41.3726C42.6833 41.9684 42.1633 42.5101 41.5783 42.9868C41.0692 43.4093 40.5275 43.7884 39.9533 44.1134C39.7367 44.0593 39.52 43.9943 39.2925 43.9076C38.5775 43.6584 37.83 43.2468 37.1367 42.8134C36.0967 42.1526 35.1975 41.4376 34.7967 41.1126C34.645 40.9826 34.5692 40.9176 34.5692 40.9176L32.7275 40.7551L32.5 40.7334L30.1167 40.5276L27.6467 40.3109L23.9958 39.9859L18.2108 39.4768L18.1892 39.4659L16.1525 38.4801L14.0942 37.4834L12.4367 36.6818L12.0792 36.5084L11.635 36.2918L10.0967 35.5443L8.04917 34.5584L7.41 34.2443L6.5 33.9626V29.1201C7.00917 28.5134 7.55083 27.9393 8.125 27.3868C8.49333 27.0401 8.88333 26.6934 9.28417 26.3684C9.34917 26.3143 9.41417 26.2601 9.47917 26.2168C9.5225 26.1626 9.57667 26.1301 9.62 26.1084C10.2592 25.5884 10.9308 25.1226 11.6242 24.7001C12.4258 24.1909 13.2708 23.7359 14.1483 23.3568C15.0908 22.9343 16.0767 22.5768 17.095 22.3059C18.8608 21.8076 20.735 21.5476 22.6633 21.5476C27.0833 21.5476 31.1675 22.8909 34.5367 25.1984C36.6925 26.6718 38.5558 28.5351 40.0292 30.6909C40.5167 31.3843 40.95 32.1209 41.3508 32.8793C41.4917 33.1609 41.6325 33.4426 41.7517 33.7243C41.8817 33.9951 42.0008 34.2659 42.12 34.5368C42.3475 35.1001 42.5533 35.6634 42.7375 36.2484C43.0842 37.3318 43.3442 38.4368 43.5067 39.5851C43.5608 39.9643 43.6042 40.3434 43.6367 40.7226Z" fill="#FF1744"/>
<path d="M41.5892 42.7049C41.5892 42.7915 41.5892 42.889 41.5783 42.9865C41.0692 43.409 40.5275 43.7882 39.9533 44.1132C39.715 44.2432 39.4767 44.3732 39.2275 44.4815C38.9783 44.6007 38.7292 44.709 38.4692 44.8065C38.1008 44.6115 37.6025 44.3732 37.0717 44.1457C36.3242 43.8099 35.5117 43.5065 34.8833 43.409C34.7317 43.3765 34.5908 43.3657 34.4608 43.3657L32.6842 43.1382H32.6625L30.4525 42.8457L28.2208 42.5532L27.1808 42.4232L18.9908 41.3615C18.46 41.3615 17.8967 41.329 17.3117 41.2532C16.5967 41.1882 15.8492 41.0799 15.1017 40.9282C14.365 40.7982 13.6175 40.6249 12.9025 40.4407C12.155 40.2674 11.4183 40.0615 10.7358 39.8665C9.945 39.6282 9.20833 39.4007 8.59083 39.1949C8.08167 39.0324 7.64833 38.8807 7.3125 38.7615C7.1175 38.2957 6.955 37.8082 6.83583 37.3099C6.60833 36.4649 6.5 35.5765 6.5 34.6665V32.8574C6.84667 32.2832 7.22583 31.7199 7.64833 31.189C8.4175 30.1707 9.295 29.239 10.2483 28.4157C10.2808 28.3724 10.3242 28.3399 10.3567 28.3182L10.3675 28.3074C10.7033 28.004 11.05 27.7332 11.4183 27.4732C11.4617 27.4299 11.505 27.3974 11.5483 27.3649C11.7217 27.2349 11.9058 27.1049 12.1008 26.9857C13.65 25.9349 15.3617 25.1115 17.1925 24.559C18.9258 24.039 20.7567 23.7682 22.6633 23.7682C26.4442 23.7682 29.9758 24.884 32.9225 26.7907C35.1 28.1882 36.9742 30.0299 38.4042 32.1857C38.5775 32.4349 38.74 32.684 38.9025 32.944C39.65 34.2115 40.2675 35.5765 40.7225 37.0065C40.7767 37.169 40.82 37.3315 40.8633 37.5049C40.95 37.7974 41.0258 38.1007 41.0908 38.404C41.1125 38.4799 41.1342 38.5557 41.1558 38.6424C41.3075 39.3249 41.4158 40.0399 41.4917 40.7549C41.4917 40.7657 41.4917 40.7657 41.4917 40.7657C41.5567 41.4049 41.5892 42.0549 41.5892 42.7049Z" fill="#FF5722"/>
<path d="M39.3576 42.705C39.3576 43.0842 39.3359 43.4958 39.2926 43.9075C39.2709 44.1025 39.2493 44.2975 39.2276 44.4817C38.9784 44.6008 38.7293 44.7092 38.4693 44.8067C37.9818 44.9908 37.4834 45.1425 36.9743 45.2508C36.6276 45.3267 36.2701 45.3917 35.9126 45.4242H35.9018C35.5659 45.2183 35.1759 44.9692 34.7751 44.6875C34.0493 44.1783 33.2909 43.6042 32.6843 43.1383C32.6734 43.1275 32.6734 43.1275 32.6626 43.1167C32.0234 42.6292 31.5684 42.2608 31.5684 42.2608L30.4201 42.3042L28.2101 42.38L27.1809 42.4233L23.0426 42.575L19.5434 42.705C19.3159 42.7158 19.0451 42.7158 18.7093 42.705H18.6984C18.2434 42.6942 17.7018 42.6617 17.1059 42.6075C16.4126 42.5533 15.6543 42.4883 14.8851 42.4125C14.1376 42.3258 13.3793 42.2392 12.6534 42.1525C11.8518 42.0658 11.0934 41.9683 10.4434 41.8817C9.93427 41.8167 9.4901 41.7625 9.1326 41.7192C8.82927 41.3725 8.55844 41.015 8.29844 40.625C7.90844 40.04 7.5726 39.4225 7.3126 38.7617C7.1176 38.2958 6.9551 37.8083 6.83594 37.31C7.1501 36.3458 7.56177 35.4358 8.04927 34.5583C8.43927 33.8433 8.89427 33.1608 9.3926 32.5108C9.8801 31.8717 10.4109 31.2758 10.9851 30.7342V30.7233C11.1476 30.5608 11.3101 30.4092 11.4726 30.2683C11.7759 29.9867 12.0901 29.7267 12.4151 29.4775H12.4259C12.4368 29.4558 12.4476 29.4558 12.4584 29.445C12.7184 29.2392 12.9893 29.055 13.2601 28.8708C14.8634 27.7767 16.6726 26.9642 18.6226 26.4875C19.9118 26.1733 21.2659 26 22.6634 26C25.4151 26 28.0151 26.6608 30.3009 27.8525H30.3118C32.2726 28.86 34.0059 30.2467 35.4034 31.915C36.1726 32.8033 36.8334 33.7783 37.3751 34.8075C37.7543 35.5008 38.0793 36.2267 38.3501 36.9633C38.3718 37.0283 38.3934 37.0825 38.4151 37.1367C38.5993 37.6783 38.7618 38.2417 38.9026 38.805C39.0001 39.2058 39.0759 39.6175 39.1409 40.0292C39.1626 40.1592 39.1843 40.2783 39.1951 40.4083C39.3034 41.1558 39.3576 41.925 39.3576 42.705Z" fill="#FF6F00"/>
<path d="M37.1362 42.7051V42.8135C37.1362 43.1818 37.1037 43.6476 37.0712 44.146C37.0387 44.5143 37.0062 44.8935 36.9737 45.251C36.627 45.3268 36.2695 45.3918 35.912 45.4243H35.9012C35.4895 45.4785 35.0887 45.5001 34.6662 45.5001H32.7703L32.3587 45.381L30.2245 44.731L28.0578 44.081L23.042 42.5751L20.8754 41.9251C20.8754 41.9251 19.9762 42.2826 18.7087 42.7051H18.6979C18.2104 42.8676 17.6795 43.041 17.1162 43.2143C16.412 43.4201 15.6645 43.626 14.9279 43.7885C14.1695 43.9618 13.422 44.0918 12.7504 44.146C12.5445 44.1676 12.3387 44.1785 12.1545 44.1785C11.5479 43.8426 10.9629 43.4418 10.432 42.9976C9.96619 42.6076 9.53285 42.1851 9.13202 41.7193C8.82869 41.3726 8.55785 41.0151 8.29785 40.6251C8.37368 40.1376 8.46035 39.661 8.59035 39.1951C8.91535 37.906 9.42452 36.671 10.0962 35.5443C10.4645 34.9051 10.8762 34.2876 11.3529 33.7135C11.3637 33.681 11.3962 33.6485 11.4287 33.6268C11.4179 33.616 11.4287 33.616 11.4287 33.616C11.5695 33.4318 11.7212 33.2585 11.8729 33.096C11.8729 33.0851 11.8729 33.0851 11.8729 33.0851C12.317 32.6085 12.772 32.1535 13.2704 31.731C13.4437 31.5901 13.6062 31.4493 13.7904 31.3085C13.8229 31.276 13.8554 31.2543 13.8987 31.2218C16.3362 29.3585 19.3804 28.2318 22.6629 28.2318C26.3895 28.2318 29.7804 29.6293 32.3479 31.926C33.5829 33.0418 34.6337 34.3743 35.4245 35.8585C35.4895 35.9668 35.5545 36.086 35.6087 36.2051C35.7062 36.4001 35.8037 36.606 35.8904 36.8226C36.2479 37.6026 36.5295 38.426 36.7245 39.271C36.7462 39.3576 36.7678 39.4443 36.7895 39.531C36.8762 39.9318 36.952 40.3435 37.0062 40.7551C37.0928 41.3943 37.1362 42.0443 37.1362 42.7051Z" fill="#FF9800"/>
<path d="M34.9053 42.7049C34.9053 42.9216 34.8945 43.1599 34.8836 43.4091C34.862 43.8099 34.8295 44.2432 34.7753 44.6874C34.7536 44.9582 34.7103 45.2291 34.667 45.4999H28.7303L27.582 45.3157L23.097 44.6007L22.4578 44.5032L20.9953 44.2649C20.3561 44.2649 18.9695 44.5466 17.507 44.8174C16.7378 44.9582 15.9578 45.1099 15.2536 45.2074C15.167 45.2182 15.0803 45.2291 15.0045 45.2399H14.9936C14.2353 45.0774 13.4986 44.8282 12.8053 44.5032C12.5886 44.4057 12.372 44.2974 12.1553 44.1782C11.5486 43.8424 10.9636 43.4416 10.4328 42.9974C10.422 42.8674 10.4111 42.7591 10.4111 42.7049C10.4111 42.4232 10.422 42.1524 10.4436 41.8816C10.487 41.1882 10.5845 40.5166 10.7361 39.8666C10.9745 38.8807 11.3211 37.9274 11.787 37.0499C11.8736 36.8657 11.9711 36.6816 12.0795 36.5082C12.1228 36.4216 12.177 36.3457 12.2203 36.2591C12.4153 35.9449 12.632 35.6416 12.8486 35.3382C13.3036 34.7424 13.8128 34.1791 14.3545 33.6699C14.3653 33.6699 14.3653 33.6699 14.3653 33.6699C14.4086 33.6266 14.452 33.5832 14.4953 33.5507C14.5495 33.5074 14.5928 33.4532 14.647 33.4207C14.8636 33.2257 15.0803 33.0524 15.3078 32.8899C15.3078 32.8791 15.3186 32.8791 15.3186 32.8791C17.3661 31.3516 19.9011 30.4524 22.6636 30.4524C24.8086 30.4524 26.802 30.9941 28.5461 31.9474H28.557C30.052 32.7707 31.352 33.8866 32.3811 35.2299C32.782 35.7499 33.1395 36.3024 33.4428 36.8874H33.4536C33.5078 36.9957 33.562 37.1041 33.6161 37.2124C33.9411 37.8516 34.2011 38.5232 34.3961 39.2166H34.407C34.4178 39.2707 34.4395 39.3249 34.4503 39.3791C34.5803 39.8449 34.6886 40.3216 34.7645 40.8091C34.7753 40.9066 34.7861 41.0149 34.797 41.1124C34.8728 41.6324 34.9053 42.1632 34.9053 42.7049Z" fill="#FFC107"/>
<path d="M32.6842 42.5859C32.6842 42.7592 32.6842 42.9434 32.6626 43.1167V43.1275C32.6626 43.1384 32.6626 43.1384 32.6626 43.1384C32.6409 43.9184 32.5326 44.6875 32.3592 45.3809C32.3592 45.4242 32.3484 45.4567 32.3267 45.5H27.2676L23.0967 44.6009L22.5442 44.4817L22.4576 44.5034L17.8317 45.4567L17.6259 45.5H17.3334C16.6401 45.5 15.9576 45.435 15.2967 45.305C15.1992 45.2834 15.1017 45.2617 15.0042 45.24H14.9934C14.2351 45.0775 13.4984 44.8284 12.8051 44.5034C12.7834 44.3842 12.7617 44.265 12.7509 44.1459C12.6751 43.68 12.6426 43.1925 12.6426 42.705C12.6426 42.5209 12.6426 42.3367 12.6534 42.1525C12.6859 41.5675 12.7726 40.9934 12.9026 40.4409C12.9892 40.0292 13.1084 39.6284 13.2492 39.2492C13.3684 38.9134 13.5092 38.5884 13.6609 38.2742C13.7909 38.0034 13.9426 37.7434 14.0942 37.4834C14.2459 37.2342 14.4084 36.9959 14.5817 36.7575C15.0151 36.1617 15.5242 35.6092 16.0876 35.1217C16.4126 34.84 16.7701 34.5692 17.1384 34.3309C18.7201 33.2909 20.6159 32.6842 22.6634 32.6842C23.0642 32.6842 23.4542 32.7059 23.8334 32.76H23.8551C25.0142 32.89 26.0976 33.215 27.0942 33.7025C27.1051 33.7025 27.1051 33.7025 27.1051 33.7025C28.6759 34.4717 30.0084 35.6309 30.9834 37.0609C31.1459 37.2992 31.3084 37.5592 31.4492 37.8192C31.5684 38.025 31.6767 38.2417 31.7742 38.4584C31.9259 38.7942 32.0667 39.1517 32.1859 39.5092H32.1967C32.3159 39.91 32.4242 40.3109 32.5001 40.7334V40.7442C32.6192 41.34 32.6842 41.9575 32.6842 42.5859Z" fill="#FFD54F"/>
<path d="M30.4534 42.8133V42.8458C30.4534 43.485 30.3776 44.1133 30.2259 44.7308C30.1718 44.9908 30.0959 45.2508 29.9984 45.5H25.1451L22.6643 44.8175L20.1834 45.5H17.3343C16.6409 45.5 15.9584 45.435 15.2976 45.305C15.2759 45.2725 15.2651 45.24 15.2543 45.2075C15.1026 44.7416 14.9834 44.2758 14.9293 43.7883C14.8859 43.4741 14.8643 43.1491 14.8643 42.8133C14.8643 42.6833 14.8643 42.5425 14.8859 42.4125C14.8968 41.9033 14.9726 41.405 15.1026 40.9283C15.1676 40.6033 15.2651 40.2891 15.3951 39.9858C15.4384 39.8341 15.5034 39.6933 15.5793 39.5525C15.7418 39.1841 15.9368 38.8266 16.1534 38.48C16.3918 38.1333 16.6518 37.8083 16.9443 37.505C17.2909 37.115 17.6809 36.7575 18.1251 36.465C18.8834 35.9125 19.7501 35.5008 20.6926 35.2733C21.3209 35.1 21.9818 35.0133 22.6643 35.0133C24.8309 35.0133 26.7701 35.88 28.1784 37.2775C28.2326 37.3316 28.2976 37.3966 28.3518 37.4725H28.3626C28.5143 37.635 28.6551 37.7975 28.7959 37.9816C29.1968 38.4908 29.5326 39.0433 29.7926 39.65C29.9226 39.9316 30.0309 40.2241 30.1176 40.5275C30.1284 40.5708 30.1393 40.6033 30.1501 40.6466C30.3018 41.1775 30.3993 41.73 30.4209 42.3041C30.4426 42.4666 30.4534 42.64 30.4534 42.8133Z" fill="#FFE082"/>
<path d="M28.2324 42.8134C28.2324 43.2576 28.1782 43.6801 28.059 44.0809C27.9507 44.5143 27.7882 44.926 27.5824 45.316C27.5499 45.381 27.474 45.5001 27.474 45.5001H17.854C17.8432 45.4893 17.8324 45.4676 17.8324 45.4568C17.7024 45.2509 17.594 45.0451 17.5074 44.8176C17.2907 44.3193 17.1607 43.7776 17.1174 43.2143C17.0957 43.0843 17.0957 42.9434 17.0957 42.8134C17.0957 42.7484 17.0957 42.6726 17.1065 42.6076C17.1174 42.131 17.1824 41.676 17.3124 41.2535C17.4207 40.8635 17.5615 40.5059 17.7457 40.1593C17.7457 40.1593 17.7565 40.1484 17.7565 40.1376C17.8865 39.9101 18.0274 39.6826 18.1899 39.4659C18.7207 38.7509 19.4249 38.166 20.2374 37.7868C20.2482 37.7868 20.2482 37.7868 20.2482 37.7868C20.5082 37.6568 20.779 37.5484 21.0607 37.4726C21.0607 37.4726 21.0607 37.4726 21.0715 37.4726C21.5699 37.3209 22.1115 37.2451 22.664 37.2451C23.3032 37.2451 23.9207 37.3426 24.484 37.5484C24.6899 37.6026 24.8849 37.6893 25.0799 37.7868C25.0799 37.7868 25.0799 37.7868 25.0907 37.7868C26.0224 38.231 26.8132 38.9243 27.3549 39.7909C27.4632 39.9534 27.5607 40.1268 27.6474 40.3109C27.6907 40.3868 27.734 40.4734 27.7665 40.5493C28.0157 41.1126 28.1674 41.7301 28.2107 42.3801C28.2215 42.4343 28.2215 42.4884 28.2215 42.5534C28.2324 42.6401 28.2324 42.7268 28.2324 42.8134Z" fill="#FFECB3"/>
<path d="M32.4984 11.9169H19.4984C15.2734 11.9169 11.915 15.2752 11.915 19.5002V32.5002C11.915 36.7252 15.2734 40.0835 19.4984 40.0835H32.4984C36.7234 40.0835 40.0817 36.7252 40.0817 32.5002V19.5002C40.0817 15.2752 36.7234 11.9169 32.4984 11.9169Z" stroke="white" stroke-width="2.16667" stroke-miterlimit="10" stroke-linecap="round" stroke-linejoin="round"/>
<path d="M33.5814 18.4169C34.1797 18.4169 34.6647 17.9319 34.6647 17.3336C34.6647 16.7353 34.1797 16.2502 33.5814 16.2502C32.9831 16.2502 32.498 16.7353 32.498 17.3336C32.498 17.9319 32.9831 18.4169 33.5814 18.4169Z" fill="white"/>
<path d="M26 32.5C29.5899 32.5 32.5 29.5899 32.5 26C32.5 22.4101 29.5899 19.5 26 19.5C22.4101 19.5 19.5 22.4101 19.5 26C19.5 29.5899 22.4101 32.5 26 32.5Z" stroke="white" stroke-width="2.16667" stroke-miterlimit="10" stroke-linecap="round" stroke-linejoin="round"/>
</svg>
