<svg width="32" height="30" viewBox="0 0 32 30" fill="none" xmlns="http://www.w3.org/2000/svg">
<path d="M4.17391 0C3.00008 0 1.97251 0.333853 1.22011 0.941576C0.46771 1.5493 0.00815217 2.44974 0.00815217 3.43342C0.00815217 5.34199 1.71736 6.8193 3.9769 6.90761C4.04064 6.92801 4.10701 6.939 4.17391 6.94022C5.39378 6.94022 6.43213 6.58264 7.17391 5.94973C7.91569 5.31681 8.33967 4.40432 8.33967 3.43342C8.33957 3.42073 8.33912 3.40805 8.33832 3.39538C8.23117 1.47476 6.52159 -6.95652e-08 4.17391 0ZM4.17391 1.375C5.98892 1.375 6.88409 2.26617 6.9606 3.45109C6.95566 4.03006 6.73152 4.52186 6.28261 4.90489C5.82874 5.29215 5.12795 5.56522 4.17391 5.56522C2.36386 5.56522 1.38315 4.58257 1.38315 3.43342C1.38315 2.85885 1.61925 2.38645 2.08424 2.01087C2.54923 1.63529 3.26079 1.375 4.17391 1.375ZM0.695652 8.33967C0.511159 8.33969 0.334228 8.41299 0.203772 8.54345C0.0733161 8.6739 1.84465e-05 8.85083 0 9.03533V29.2092C1.84465e-05 29.3937 0.0733161 29.5707 0.203772 29.7011C0.334228 29.8316 0.511159 29.9049 0.695652 29.9049H7.65217C7.83667 29.9049 8.0136 29.8316 8.14405 29.7011C8.27451 29.5707 8.34781 29.3937 8.34783 29.2092V22.7147V9.03533C8.34781 8.85083 8.27451 8.6739 8.14405 8.54345C8.0136 8.41299 7.83667 8.33969 7.65217 8.33967H0.695652ZM11.1304 8.33967C10.9459 8.33969 10.769 8.41299 10.6386 8.54345C10.5081 8.6739 10.4348 8.85083 10.4348 9.03533V29.2092C10.4348 29.3937 10.5081 29.5707 10.6386 29.7011C10.769 29.8316 10.9459 29.9049 11.1304 29.9049H18.087C18.2715 29.9049 18.4484 29.8316 18.5788 29.7011C18.7093 29.5707 18.7826 29.3937 18.7826 29.2092V18.0788V17.9049V17.731C18.7826 16.3783 19.8647 15.2962 21.2174 15.2962C22.57 15.2962 23.6522 16.3783 23.6522 17.731V29.2092C23.6522 29.3937 23.7255 29.5707 23.8559 29.7011C23.9864 29.8316 24.1633 29.9049 24.3478 29.9049H31.3043C31.4888 29.9049 31.6658 29.8316 31.7962 29.7011C31.9267 29.5707 32 29.3937 32 29.2092V17.3832C32 14.5125 31.1568 12.2384 29.7351 10.6875C28.3133 9.13657 26.3299 8.33967 24.1997 8.33967C21.4837 8.33967 19.8411 9.33173 18.7826 10.1495V9.03533C18.7826 8.85083 18.7093 8.6739 18.5788 8.54345C18.4484 8.41299 18.2715 8.33969 18.087 8.33967H11.1304ZM1.3913 9.73098H6.95652V22.7147V28.5136H1.3913V9.73098ZM11.8261 9.73098H17.3913V11.5666C17.3913 11.7073 17.4341 11.8448 17.5139 11.9607C17.5937 12.0767 17.7068 12.1657 17.8382 12.2161C17.9697 12.2664 18.1133 12.2757 18.2501 12.2427C18.387 12.2097 18.5106 12.136 18.6046 12.0312C18.6046 12.0312 20.6677 9.73098 24.1997 9.73098C25.9896 9.73098 27.5586 10.3726 28.7092 11.6277C29.8599 12.8829 30.6087 14.7825 30.6087 17.3832V28.5136H25.0435V17.731C25.0444 17.6328 25.0244 17.5356 24.9851 17.4457C24.8307 15.4799 23.2211 13.9049 21.2174 13.9049C19.1126 13.9049 17.3913 15.6262 17.3913 17.731V17.9049V18.0788V28.5136H11.8261V9.73098Z" fill="black"/>
</svg>
