<?xml version="1.0" encoding="UTF-8"?>
<svg xmlns="http://www.w3.org/2000/svg" xmlns:xlink="http://www.w3.org/1999/xlink" width="52px" height="100px" viewBox="0 0 52 100" version="1.1">
<g id="surface1">
<path style=" stroke:none;fill-rule:evenodd;fill:rgb(0%,0%,0%);fill-opacity:1;" d="M 31.484375 100 C 20.320312 100 11.3125 91.015625 11.3125 80.078125 C 11.3125 73.046875 15.03125 66.601562 20.910156 63.085938 L 20.910156 10.546875 C 20.910156 4.6875 25.609375 0 31.484375 0 C 37.363281 0 42.0625 4.6875 42.0625 10.546875 L 42.0625 63.085938 C 47.9375 66.601562 51.464844 73.046875 51.464844 80.078125 C 51.464844 91.015625 42.453125 100 31.484375 100 Z M 31.484375 2.734375 C 27.175781 2.734375 23.652344 6.25 23.652344 10.546875 L 23.652344 63.671875 C 23.652344 64.257812 23.457031 64.648438 22.867188 65.039062 C 17.578125 67.96875 14.054688 73.828125 14.054688 80.078125 C 14.054688 89.453125 21.886719 97.265625 31.484375 97.265625 C 41.082031 97.265625 48.722656 89.453125 48.722656 80.078125 C 48.722656 73.828125 45.394531 67.96875 39.910156 65.039062 C 39.515625 64.648438 39.320312 64.257812 39.320312 63.671875 L 39.320312 10.546875 C 39.320312 6.25 35.796875 2.734375 31.484375 2.734375 Z M 31.484375 2.734375 "/>
<path style=" stroke:none;fill-rule:evenodd;fill:rgb(0%,0%,0%);fill-opacity:1;" d="M 31.484375 89.648438 C 26 89.648438 21.691406 85.351562 21.691406 80.078125 C 21.691406 74.609375 26 70.3125 31.484375 70.3125 C 36.773438 70.3125 41.28125 74.609375 41.28125 80.078125 C 41.28125 85.351562 36.773438 89.648438 31.484375 89.648438 Z M 31.484375 73.046875 C 27.570312 73.046875 24.433594 76.171875 24.433594 80.078125 C 24.433594 83.789062 27.570312 86.914062 31.484375 86.914062 C 35.402344 86.914062 38.539062 83.789062 38.539062 80.078125 C 38.539062 76.171875 35.402344 73.046875 31.484375 73.046875 Z M 31.484375 73.046875 "/>
<path style=" stroke:none;fill-rule:evenodd;fill:rgb(0%,0%,0%);fill-opacity:1;" d="M 34.425781 14.257812 L 22.28125 14.257812 C 21.496094 14.257812 20.910156 13.671875 20.910156 12.890625 C 20.910156 12.109375 21.496094 11.523438 22.28125 11.523438 L 34.425781 11.523438 C 35.011719 11.523438 35.796875 12.109375 35.796875 12.890625 C 35.796875 13.671875 35.011719 14.257812 34.425781 14.257812 Z M 34.425781 14.257812 "/>
<path style=" stroke:none;fill-rule:evenodd;fill:rgb(0%,0%,0%);fill-opacity:1;" d="M 31.683594 19.726562 L 22.28125 19.726562 C 21.496094 19.726562 20.910156 19.140625 20.910156 18.359375 C 20.910156 17.773438 21.496094 16.992188 22.28125 16.992188 L 31.683594 16.992188 C 32.464844 16.992188 33.054688 17.773438 33.054688 18.359375 C 33.054688 19.140625 32.464844 19.726562 31.683594 19.726562 Z M 31.683594 19.726562 "/>
<path style=" stroke:none;fill-rule:evenodd;fill:rgb(0%,0%,0%);fill-opacity:1;" d="M 34.425781 25.390625 L 22.28125 25.390625 C 21.496094 25.390625 20.910156 24.804688 20.910156 24.023438 C 20.910156 23.242188 21.496094 22.65625 22.28125 22.65625 L 34.425781 22.65625 C 35.011719 22.65625 35.796875 23.242188 35.796875 24.023438 C 35.796875 24.804688 35.011719 25.390625 34.425781 25.390625 Z M 34.425781 25.390625 "/>
<path style=" stroke:none;fill-rule:evenodd;fill:rgb(0%,0%,0%);fill-opacity:1;" d="M 28.941406 31.054688 L 22.28125 31.054688 C 21.496094 31.054688 20.910156 30.46875 20.910156 29.6875 C 20.910156 28.90625 21.496094 28.320312 22.28125 28.320312 L 28.941406 28.320312 C 29.722656 28.320312 30.3125 28.90625 30.3125 29.6875 C 30.3125 30.46875 29.722656 31.054688 28.941406 31.054688 Z M 28.941406 31.054688 "/>
<path style=" stroke:none;fill-rule:evenodd;fill:rgb(0%,0%,0%);fill-opacity:1;" d="M 34.425781 36.523438 L 22.28125 36.523438 C 21.496094 36.523438 20.910156 35.9375 20.910156 35.15625 C 20.910156 34.570312 21.496094 33.789062 22.28125 33.789062 L 34.425781 33.789062 C 35.011719 33.789062 35.796875 34.570312 35.796875 35.15625 C 35.796875 35.9375 35.011719 36.523438 34.425781 36.523438 Z M 34.425781 36.523438 "/>
<path style=" stroke:none;fill-rule:evenodd;fill:rgb(0%,0%,0%);fill-opacity:1;" d="M 28.941406 42.1875 L 22.28125 42.1875 C 21.496094 42.1875 20.910156 41.601562 20.910156 40.820312 C 20.910156 40.039062 21.496094 39.453125 22.28125 39.453125 L 28.941406 39.453125 C 29.722656 39.453125 30.3125 40.039062 30.3125 40.820312 C 30.3125 41.601562 29.722656 42.1875 28.941406 42.1875 Z M 28.941406 42.1875 "/>
<path style=" stroke:none;fill-rule:evenodd;fill:rgb(0%,0%,0%);fill-opacity:1;" d="M 31.484375 73.046875 C 30.703125 73.046875 30.113281 72.460938 30.113281 71.679688 L 30.113281 50.976562 C 30.113281 50.390625 30.703125 49.609375 31.484375 49.609375 C 32.269531 49.609375 32.855469 50.390625 32.855469 50.976562 L 32.855469 71.679688 C 32.855469 72.460938 32.269531 73.046875 31.484375 73.046875 Z M 31.484375 73.046875 "/>
<path style=" stroke:none;fill-rule:evenodd;fill:rgb(0%,0%,0%);fill-opacity:1;" d="M 7.394531 52.539062 C 6.804688 52.539062 6.023438 51.953125 6.023438 51.171875 L 6.023438 18.554688 C 6.023438 17.96875 6.804688 17.1875 7.394531 17.1875 C 8.175781 17.1875 8.765625 17.96875 8.765625 18.554688 L 8.765625 51.171875 C 8.765625 51.953125 8.175781 52.539062 7.394531 52.539062 Z M 7.394531 52.539062 "/>
<path style=" stroke:none;fill-rule:evenodd;fill:rgb(0%,0%,0%);fill-opacity:1;" d="M 7.394531 52.539062 C 7.003906 52.539062 6.808594 52.34375 6.414062 52.148438 L 0.734375 45.507812 C 0.34375 44.921875 0.34375 44.140625 0.929688 43.554688 C 1.519531 43.164062 2.5 43.164062 2.890625 43.75 L 7.394531 49.023438 L 12.097656 43.75 C 12.488281 43.164062 13.46875 43.164062 14.054688 43.554688 C 14.640625 44.140625 14.640625 44.921875 14.054688 45.507812 L 8.570312 52.148438 C 8.179688 52.34375 7.984375 52.539062 7.394531 52.539062 Z M 7.394531 52.539062 "/>
</g>
</svg>
